{"glyphs":{"0":{"ha":833,"x_min":56,"x_max":778,"o":"m 174 486 q 190 642 174 571 q 239 766 207 714 q 316 847 271 818 q 417 875 361 875 q 518 847 474 875 q 594 766 563 818 q 643 642 626 714 q 660 486 660 571 q 643 330 660 401 q 594 206 626 258 q 518 126 563 154 q 417 97 474 97 q 316 126 361 97 q 239 206 271 154 q 190 330 207 258 q 174 486 174 401 m 56 486 q 101 228 56 340 q 228 51 147 115 q 417 -14 310 -14 q 605 51 524 -14 q 732 228 686 115 q 778 486 778 340 q 732 744 778 632 q 605 922 686 857 q 417 986 524 986 q 228 922 310 986 q 101 744 147 857 q 56 486 56 632 z "},"1":{"ha":625,"x_min":111,"x_max":444,"o":"m 111 781 l 326 844 l 326 0 l 444 0 l 444 986 l 111 903 l 111 781 z "},"2":{"ha":790,"x_min":28,"x_max":714,"o":"m 28 0 l 714 0 l 714 111 l 271 111 l 581 426 q 674 558 638 485 q 710 707 710 632 q 692 800 710 751 q 636 891 674 849 q 540 960 599 933 q 401 988 482 988 q 230 944 301 988 q 121 822 158 900 q 83 639 83 743 l 201 639 q 225 766 201 713 q 294 848 249 819 q 401 876 339 876 q 481 861 446 876 q 540 821 515 846 q 576 765 564 796 q 589 703 589 735 q 577 628 589 664 q 542 559 565 593 q 488 490 519 525 l 28 0 z "},"3":{"ha":758,"x_min":83,"x_max":696,"o":"m 351 479 q 517 513 446 479 q 628 603 588 546 q 668 728 668 660 q 635 856 668 797 q 542 950 603 914 q 399 986 482 986 q 258 953 319 986 q 160 864 196 921 q 125 731 125 807 l 238 731 q 285 837 238 794 q 400 879 332 879 q 481 860 449 879 q 531 805 514 840 q 547 724 547 769 q 534 658 547 689 q 496 605 521 628 q 435 569 471 582 q 351 556 399 556 l 351 479 m 393 -14 q 549 19 481 -14 q 656 114 617 53 q 696 257 696 175 q 669 381 696 329 q 594 465 642 432 q 484 513 546 497 q 351 528 422 528 l 351 451 q 439 440 399 451 q 510 406 479 429 q 558 349 540 383 q 575 271 575 315 q 553 179 575 218 q 490 119 531 140 q 393 97 449 97 q 294 118 338 97 q 227 175 251 139 q 203 257 203 211 l 83 257 q 106 151 83 200 q 168 65 128 101 q 265 7 208 28 q 393 -14 322 -14 z "},"4":{"ha":810,"x_min":28,"x_max":768,"o":"m 28 194 l 768 194 l 768 299 l 569 299 l 546 299 l 222 299 l 497 710 l 497 260 l 497 244 l 497 0 l 615 0 l 615 972 l 567 972 l 28 194 z "},"5":{"ha":783,"x_min":42,"x_max":728,"o":"m 728 319 q 690 490 728 417 q 587 606 653 564 q 438 647 521 647 q 365 638 401 647 q 293 611 328 629 l 358 868 l 725 868 l 725 972 l 267 972 l 139 454 q 227 508 189 489 q 303 534 265 526 q 388 542 342 542 q 499 514 450 542 q 577 436 549 486 q 606 319 606 386 q 580 203 606 253 q 506 125 554 153 q 388 97 457 97 q 286 120 335 97 q 201 180 238 143 q 142 258 164 217 l 42 190 q 120 88 74 135 q 233 14 167 42 q 388 -14 299 -14 q 519 7 458 -14 q 628 69 581 28 q 701 174 675 111 q 728 319 728 236 z "},"6":{"ha":800,"x_min":69,"x_max":731,"o":"m 182 319 q 210 438 182 386 q 288 519 239 490 q 400 549 338 549 q 512 519 463 549 q 590 438 561 490 q 618 319 618 386 q 590 202 618 253 q 512 122 561 151 q 400 93 463 93 q 288 122 338 93 q 210 202 239 151 q 182 319 182 253 m 458 972 l 131 521 q 86 431 103 482 q 69 319 69 379 q 113 144 69 219 q 232 28 157 69 q 400 -14 307 -14 q 569 28 494 -14 q 687 144 643 69 q 731 319 731 219 q 708 444 731 386 q 647 544 686 501 q 555 611 607 588 q 443 635 503 635 q 359 624 396 635 q 294 578 322 613 l 303 571 l 607 972 l 458 972 z "},"7":{"ha":729,"x_min":42,"x_max":722,"o":"m 42 861 l 546 861 l 133 0 l 257 0 l 722 972 l 42 972 l 42 861 z "},"8":{"ha":758,"x_min":76,"x_max":682,"o":"m 111 738 q 131 635 111 681 q 185 558 150 590 q 270 510 221 526 q 379 493 319 493 q 488 510 439 493 q 573 558 538 526 q 628 635 608 590 q 647 738 647 681 q 612 863 647 807 q 516 953 576 919 q 379 986 456 986 q 242 953 303 986 q 147 863 182 919 q 111 738 111 807 m 224 724 q 244 806 224 769 q 299 862 264 842 q 379 882 335 882 q 460 862 425 882 q 515 806 494 842 q 535 724 535 769 q 513 643 535 678 q 456 589 492 608 q 379 569 421 569 q 302 589 338 569 q 245 643 267 608 q 224 724 224 678 m 76 264 q 99 157 76 207 q 163 68 122 107 q 259 8 204 29 q 379 -14 314 -14 q 499 8 444 -14 q 595 68 554 29 q 659 157 636 107 q 682 264 682 207 q 658 383 682 331 q 591 470 633 435 q 494 524 549 506 q 379 542 439 542 q 265 524 319 542 q 167 470 210 506 q 101 383 125 435 q 76 264 76 331 m 189 278 q 216 373 189 331 q 287 440 243 415 q 379 465 331 465 q 472 440 428 465 q 542 373 515 415 q 569 278 569 331 q 542 176 569 218 q 472 113 515 135 q 379 90 428 90 q 287 113 331 90 q 216 176 243 135 q 189 278 189 218 z "},"9":{"ha":800,"x_min":69,"x_max":731,"o":"m 618 653 q 590 535 618 586 q 512 453 561 483 q 400 424 463 424 q 288 453 338 424 q 210 535 239 483 q 182 653 182 586 q 210 770 182 719 q 288 850 239 821 q 400 879 338 879 q 512 850 463 879 q 590 770 561 821 q 618 653 618 719 m 342 0 l 669 451 q 714 542 697 490 q 731 653 731 593 q 687 828 731 753 q 569 944 643 903 q 400 986 494 986 q 232 944 307 986 q 113 828 157 903 q 69 653 69 753 q 92 528 69 586 q 153 428 114 471 q 245 361 193 385 q 357 338 297 338 q 441 349 404 338 q 506 394 478 360 l 497 401 l 193 0 l 342 0 z "}," ":{"ha":417,"x_min":0,"x_max":0,"o":""}," ":{"ha":417,"x_min":0,"x_max":0,"o":""},"A":{"ha":917,"x_min":7,"x_max":910,"o":"m 204 292 l 718 292 l 676 403 l 246 403 l 204 292 m 458 753 l 625 361 l 636 333 l 778 0 l 910 0 l 458 1021 l 7 0 l 139 0 l 283 342 l 294 367 l 458 753 z "},"À":{"ha":917,"x_min":7,"x_max":910,"o":"m 204 292 l 718 292 l 676 403 l 246 403 l 204 292 m 458 753 l 625 361 l 636 333 l 778 0 l 910 0 l 458 1021 l 7 0 l 139 0 l 283 342 l 294 367 l 458 753 m 278 1313 l 528 1104 l 590 1146 l 382 1368 l 278 1313 z "},"Á":{"ha":917,"x_min":7,"x_max":910,"o":"m 204 292 l 718 292 l 676 403 l 246 403 l 204 292 m 458 753 l 625 361 l 636 333 l 778 0 l 910 0 l 458 1021 l 7 0 l 139 0 l 283 342 l 294 367 l 458 753 m 639 1313 l 535 1368 l 326 1146 l 389 1104 l 639 1313 z "},"Â":{"ha":917,"x_min":7,"x_max":910,"o":"m 204 292 l 718 292 l 676 403 l 246 403 l 204 292 m 458 753 l 625 361 l 636 333 l 778 0 l 910 0 l 458 1021 l 7 0 l 139 0 l 283 342 l 294 367 l 458 753 m 458 1181 l 611 1049 l 681 1104 l 458 1299 l 236 1104 l 306 1049 l 458 1181 z "},"Ã":{"ha":917,"x_min":7,"x_max":910,"o":"m 204 292 l 718 292 l 676 403 l 246 403 l 204 292 m 458 753 l 625 361 l 636 333 l 778 0 l 910 0 l 458 1021 l 7 0 l 139 0 l 283 342 l 294 367 l 458 753 m 229 1128 l 303 1076 q 308 1104 303 1088 q 329 1134 314 1121 q 372 1147 344 1147 q 427 1131 404 1147 q 476 1099 450 1115 q 540 1082 503 1082 q 604 1097 575 1082 q 655 1135 633 1111 q 688 1183 676 1158 l 624 1243 q 584 1193 603 1210 q 546 1176 565 1176 q 500 1186 518 1176 q 466 1209 482 1196 q 428 1232 450 1222 q 374 1242 407 1242 q 312 1227 343 1242 q 258 1188 281 1213 q 229 1128 236 1163 z "},"Ä":{"ha":917,"x_min":7,"x_max":910,"o":"m 204 292 l 718 292 l 676 403 l 246 403 l 204 292 m 458 753 l 625 361 l 636 333 l 778 0 l 910 0 l 458 1021 l 7 0 l 139 0 l 283 342 l 294 367 l 458 753 m 521 1181 q 544 1127 521 1150 q 597 1104 567 1104 q 651 1127 629 1104 q 674 1181 674 1150 q 651 1235 674 1213 q 597 1257 629 1257 q 544 1235 567 1257 q 521 1181 521 1213 m 243 1181 q 266 1127 243 1150 q 319 1104 289 1104 q 374 1127 351 1104 q 396 1181 396 1150 q 374 1235 396 1213 q 319 1257 351 1257 q 266 1235 289 1257 q 243 1181 243 1213 z "},"Å":{"ha":917,"x_min":7,"x_max":910,"o":"m 204 292 l 718 292 l 676 403 l 246 403 l 204 292 m 458 753 l 625 361 l 636 333 l 778 0 l 910 0 l 458 1021 l 7 0 l 139 0 l 283 342 l 294 367 l 458 753 m 317 1108 q 360 1008 317 1046 q 458 969 404 969 q 556 1008 513 969 q 600 1108 600 1046 q 556 1209 600 1171 q 458 1247 513 1247 q 360 1209 404 1247 q 317 1108 317 1171 m 388 1108 q 410 1163 388 1143 q 458 1182 432 1182 q 507 1163 485 1182 q 529 1108 529 1143 q 507 1054 529 1074 q 458 1035 485 1035 q 410 1054 432 1035 q 388 1108 388 1074 z "},"Ā":{"ha":917,"x_min":7,"x_max":910,"o":"m 204 292 l 718 292 l 676 403 l 246 403 l 204 292 m 458 753 l 625 361 l 636 333 l 778 0 l 910 0 l 458 1021 l 7 0 l 139 0 l 283 342 l 294 367 l 458 753 m 215 1104 l 701 1104 l 701 1208 l 215 1208 l 215 1104 z "},"Ă":{"ha":917,"x_min":7,"x_max":910,"o":"m 204 292 l 718 292 l 676 403 l 246 403 l 204 292 m 458 753 l 625 361 l 636 333 l 778 0 l 910 0 l 458 1021 l 7 0 l 139 0 l 283 342 l 294 367 l 458 753 m 239 1299 q 263 1206 239 1251 q 337 1133 288 1161 q 458 1104 386 1104 q 581 1133 532 1104 q 653 1206 629 1161 q 678 1299 678 1251 l 579 1299 q 569 1256 579 1281 q 533 1213 560 1232 q 458 1194 507 1194 q 383 1213 410 1194 q 347 1256 357 1232 q 338 1299 338 1281 l 239 1299 z "},"Ą":{"ha":917,"x_min":7,"x_max":963,"o":"m 204 292 l 718 292 l 676 403 l 246 403 l 204 292 m 458 753 l 625 361 l 636 333 l 778 0 l 910 0 l 458 1021 l 7 0 l 139 0 l 283 342 l 294 367 l 458 753 m 917 -181 q 889 -201 903 -194 q 847 -208 875 -208 q 799 -192 817 -208 q 781 -139 781 -176 q 798 -87 781 -112 q 844 -38 815 -61 q 910 0 874 -15 l 853 35 q 763 -22 804 10 q 695 -89 721 -53 q 669 -167 669 -125 q 688 -239 669 -207 q 744 -288 707 -271 q 840 -306 782 -306 q 916 -288 885 -306 q 963 -250 947 -271 l 917 -181 z "},"B":{"ha":775,"x_min":111,"x_max":706,"o":"m 204 514 l 361 514 q 513 539 449 514 q 614 613 578 564 q 650 729 650 661 q 614 866 650 813 q 513 946 578 919 q 361 972 449 972 l 111 972 l 111 0 l 375 0 q 544 31 469 0 q 662 126 618 63 q 706 285 706 189 q 681 400 706 351 q 610 480 656 449 q 506 526 565 511 q 375 542 446 542 l 204 542 l 204 476 l 375 476 q 461 465 422 476 q 528 429 500 453 q 572 371 557 406 q 588 292 588 336 q 560 190 588 232 q 485 126 533 149 q 375 104 438 104 l 229 104 l 229 868 l 361 868 q 483 830 435 868 q 532 722 532 792 q 510 644 532 676 q 449 596 488 613 q 361 579 410 579 l 204 579 l 204 514 z "},"C":{"ha":951,"x_min":56,"x_max":854,"o":"m 181 486 q 231 685 181 600 q 364 819 282 771 q 542 868 446 868 q 669 850 611 868 q 774 799 726 832 q 854 724 821 767 l 854 879 q 721 960 793 933 q 542 986 649 986 q 352 949 440 986 q 197 845 264 913 q 93 686 131 778 q 56 486 56 594 q 93 286 56 378 q 197 127 131 194 q 352 23 264 60 q 542 -14 440 -14 q 721 13 649 -14 q 854 93 793 39 l 854 249 q 774 173 821 206 q 669 122 726 140 q 542 104 611 104 q 364 153 446 104 q 231 288 282 201 q 181 486 181 374 z "},"Ç":{"ha":951,"x_min":56,"x_max":854,"o":"m 181 486 q 231 685 181 600 q 364 819 282 771 q 542 868 446 868 q 669 850 611 868 q 774 799 726 832 q 854 724 821 767 l 854 879 q 721 960 793 933 q 542 986 649 986 q 352 949 440 986 q 197 845 264 913 q 93 686 131 778 q 56 486 56 594 q 93 286 56 378 q 197 127 131 194 q 352 23 264 60 q 542 -14 440 -14 q 721 13 649 -14 q 854 93 793 39 l 854 249 q 774 173 821 206 q 669 122 726 140 q 542 104 611 104 q 364 153 446 104 q 231 288 282 201 q 181 486 181 374 m 528 82 l 408 -151 q 455 -131 431 -136 q 489 -126 479 -126 q 542 -139 525 -126 q 558 -176 558 -151 q 542 -217 558 -201 q 489 -232 525 -232 q 447 -224 463 -232 q 411 -199 431 -215 l 364 -254 q 422 -295 393 -283 q 489 -307 450 -307 q 561 -292 528 -307 q 615 -247 594 -276 q 636 -176 636 -218 q 621 -119 636 -142 q 583 -85 606 -97 q 536 -74 560 -74 q 530 -74 533 -74 q 524 -74 526 -74 l 611 82 l 528 82 z "},"Ć":{"ha":951,"x_min":56,"x_max":854,"o":"m 181 486 q 231 685 181 600 q 364 819 282 771 q 542 868 446 868 q 669 850 611 868 q 774 799 726 832 q 854 724 821 767 l 854 879 q 721 960 793 933 q 542 986 649 986 q 352 949 440 986 q 197 845 264 913 q 93 686 131 778 q 56 486 56 594 q 93 286 56 378 q 197 127 131 194 q 352 23 264 60 q 542 -14 440 -14 q 721 13 649 -14 q 854 93 793 39 l 854 249 q 774 173 821 206 q 669 122 726 140 q 542 104 611 104 q 364 153 446 104 q 231 288 282 201 q 181 486 181 374 m 722 1278 l 618 1333 l 410 1111 l 472 1069 l 722 1278 z "},"Ĉ":{"ha":951,"x_min":56,"x_max":854,"o":"m 181 486 q 231 685 181 600 q 364 819 282 771 q 542 868 446 868 q 669 850 611 868 q 774 799 726 832 q 854 724 821 767 l 854 879 q 721 960 793 933 q 542 986 649 986 q 352 949 440 986 q 197 845 264 913 q 93 686 131 778 q 56 486 56 594 q 93 286 56 378 q 197 127 131 194 q 352 23 264 60 q 542 -14 440 -14 q 721 13 649 -14 q 854 93 793 39 l 854 249 q 774 173 821 206 q 669 122 726 140 q 542 104 611 104 q 364 153 446 104 q 231 288 282 201 q 181 486 181 374 m 542 1201 l 694 1069 l 764 1125 l 542 1319 l 319 1125 l 389 1069 l 542 1201 z "},"Ċ":{"ha":951,"x_min":56,"x_max":854,"o":"m 181 486 q 231 685 181 600 q 364 819 282 771 q 542 868 446 868 q 669 850 611 868 q 774 799 726 832 q 854 724 821 767 l 854 879 q 721 960 793 933 q 542 986 649 986 q 352 949 440 986 q 197 845 264 913 q 93 686 131 778 q 56 486 56 594 q 93 286 56 378 q 197 127 131 194 q 352 23 264 60 q 542 -14 440 -14 q 721 13 649 -14 q 854 93 793 39 l 854 249 q 774 173 821 206 q 669 122 726 140 q 542 104 611 104 q 364 153 446 104 q 231 288 282 201 q 181 486 181 374 m 465 1146 q 488 1092 465 1115 q 542 1069 511 1069 q 596 1092 574 1069 q 618 1146 618 1115 q 596 1200 618 1178 q 542 1222 574 1222 q 488 1200 511 1222 q 465 1146 465 1178 z "},"Č":{"ha":951,"x_min":56,"x_max":854,"o":"m 181 486 q 231 685 181 600 q 364 819 282 771 q 542 868 446 868 q 669 850 611 868 q 774 799 726 832 q 854 724 821 767 l 854 879 q 721 960 793 933 q 542 986 649 986 q 352 949 440 986 q 197 845 264 913 q 93 686 131 778 q 56 486 56 594 q 93 286 56 378 q 197 127 131 194 q 352 23 264 60 q 542 -14 440 -14 q 721 13 649 -14 q 854 93 793 39 l 854 249 q 774 173 821 206 q 669 122 726 140 q 542 104 611 104 q 364 153 446 104 q 231 288 282 201 q 181 486 181 374 m 542 1188 l 389 1319 l 319 1264 l 542 1069 l 764 1264 l 694 1319 l 542 1188 z "},"D":{"ha":944,"x_min":111,"x_max":889,"o":"m 111 972 l 111 0 l 229 0 l 229 972 l 111 972 m 403 0 q 654 61 544 0 q 826 231 764 122 q 889 486 889 340 q 826 741 889 632 q 654 911 764 850 q 403 972 544 972 l 176 972 l 176 854 l 403 854 q 553 828 485 854 q 669 755 621 803 q 744 639 718 707 q 771 486 771 571 q 744 333 771 401 q 669 217 718 265 q 553 144 621 169 q 403 118 485 118 l 176 118 l 176 0 l 403 0 z "},"Ď":{"ha":944,"x_min":111,"x_max":889,"o":"m 111 972 l 111 0 l 229 0 l 229 972 l 111 972 m 403 0 q 654 61 544 0 q 826 231 764 122 q 889 486 889 340 q 826 741 889 632 q 654 911 764 850 q 403 972 544 972 l 176 972 l 176 854 l 403 854 q 553 828 485 854 q 669 755 621 803 q 744 639 718 707 q 771 486 771 571 q 744 333 771 401 q 669 217 718 265 q 553 144 621 169 q 403 118 485 118 l 176 118 l 176 0 l 403 0 m 458 1188 l 306 1319 l 236 1264 l 458 1069 l 681 1264 l 611 1319 l 458 1188 z "},"E":{"ha":764,"x_min":111,"x_max":667,"o":"m 176 0 l 667 0 l 667 111 l 176 111 l 176 0 m 176 861 l 667 861 l 667 972 l 176 972 l 176 861 m 176 472 l 639 472 l 639 583 l 176 583 l 176 472 m 111 972 l 111 0 l 229 0 l 229 972 l 111 972 z "},"È":{"ha":764,"x_min":111,"x_max":667,"o":"m 176 0 l 667 0 l 667 111 l 176 111 l 176 0 m 176 861 l 667 861 l 667 972 l 176 972 l 176 861 m 176 472 l 639 472 l 639 583 l 176 583 l 176 472 m 111 972 l 111 0 l 229 0 l 229 972 l 111 972 m 208 1278 l 458 1069 l 521 1111 l 313 1333 l 208 1278 z "},"É":{"ha":764,"x_min":111,"x_max":667,"o":"m 176 0 l 667 0 l 667 111 l 176 111 l 176 0 m 176 861 l 667 861 l 667 972 l 176 972 l 176 861 m 176 472 l 639 472 l 639 583 l 176 583 l 176 472 m 111 972 l 111 0 l 229 0 l 229 972 l 111 972 m 569 1278 l 465 1333 l 257 1111 l 319 1069 l 569 1278 z "},"Ê":{"ha":764,"x_min":111,"x_max":667,"o":"m 176 0 l 667 0 l 667 111 l 176 111 l 176 0 m 176 861 l 667 861 l 667 972 l 176 972 l 176 861 m 176 472 l 639 472 l 639 583 l 176 583 l 176 472 m 111 972 l 111 0 l 229 0 l 229 972 l 111 972 m 403 1201 l 556 1069 l 625 1125 l 403 1319 l 181 1125 l 250 1069 l 403 1201 z "},"Ë":{"ha":764,"x_min":111,"x_max":667,"o":"m 176 0 l 667 0 l 667 111 l 176 111 l 176 0 m 176 861 l 667 861 l 667 972 l 176 972 l 176 861 m 176 472 l 639 472 l 639 583 l 176 583 l 176 472 m 111 972 l 111 0 l 229 0 l 229 972 l 111 972 m 465 1174 q 488 1120 465 1143 q 542 1097 511 1097 q 596 1120 574 1097 q 618 1174 618 1143 q 596 1228 618 1206 q 542 1250 574 1250 q 488 1228 511 1250 q 465 1174 465 1206 m 188 1174 q 210 1120 188 1143 q 264 1097 233 1097 q 318 1120 296 1097 q 340 1174 340 1143 q 318 1228 340 1206 q 264 1250 296 1250 q 210 1228 233 1250 q 188 1174 188 1206 z "},"Ē":{"ha":764,"x_min":111,"x_max":667,"o":"m 176 0 l 667 0 l 667 111 l 176 111 l 176 0 m 176 861 l 667 861 l 667 972 l 176 972 l 176 861 m 176 472 l 639 472 l 639 583 l 176 583 l 176 472 m 111 972 l 111 0 l 229 0 l 229 972 l 111 972 m 146 1069 l 632 1069 l 632 1174 l 146 1174 l 146 1069 z "},"Ĕ":{"ha":764,"x_min":111,"x_max":667,"o":"m 176 0 l 667 0 l 667 111 l 176 111 l 176 0 m 176 861 l 667 861 l 667 972 l 176 972 l 176 861 m 176 472 l 639 472 l 639 583 l 176 583 l 176 472 m 111 972 l 111 0 l 229 0 l 229 972 l 111 972 m 169 1264 q 194 1172 169 1217 q 267 1098 218 1126 q 389 1069 317 1069 q 511 1098 463 1069 q 584 1172 560 1126 q 608 1264 608 1217 l 510 1264 q 500 1222 510 1246 q 464 1178 490 1197 q 389 1160 438 1160 q 314 1178 340 1160 q 278 1222 288 1197 q 268 1264 268 1246 l 169 1264 z "},"Ė":{"ha":764,"x_min":111,"x_max":667,"o":"m 176 0 l 667 0 l 667 111 l 176 111 l 176 0 m 176 861 l 667 861 l 667 972 l 176 972 l 176 861 m 176 472 l 639 472 l 639 583 l 176 583 l 176 472 m 111 972 l 111 0 l 229 0 l 229 972 l 111 972 m 313 1146 q 335 1092 313 1115 q 389 1069 358 1069 q 443 1092 421 1069 q 465 1146 465 1115 q 443 1200 465 1178 q 389 1222 421 1222 q 335 1200 358 1222 q 313 1146 313 1178 z "},"Ę":{"ha":764,"x_min":111,"x_max":667,"o":"m 176 0 l 667 0 l 667 111 l 176 111 l 176 0 m 176 861 l 667 861 l 667 972 l 176 972 l 176 861 m 176 472 l 639 472 l 639 583 l 176 583 l 176 472 m 111 972 l 111 0 l 229 0 l 229 972 l 111 972 m 507 -181 q 479 -201 493 -194 q 438 -208 465 -208 q 389 -192 407 -208 q 371 -139 371 -176 q 388 -87 371 -112 q 435 -38 406 -61 q 500 0 464 -15 l 443 35 q 353 -22 394 10 q 285 -89 311 -53 q 260 -167 260 -125 q 278 -239 260 -207 q 335 -288 297 -271 q 431 -306 372 -306 q 506 -288 475 -306 q 553 -250 538 -271 l 507 -181 z "},"Ě":{"ha":764,"x_min":111,"x_max":667,"o":"m 176 0 l 667 0 l 667 111 l 176 111 l 176 0 m 176 861 l 667 861 l 667 972 l 176 972 l 176 861 m 176 472 l 639 472 l 639 583 l 176 583 l 176 472 m 111 972 l 111 0 l 229 0 l 229 972 l 111 972 m 389 1188 l 236 1319 l 167 1264 l 389 1069 l 611 1264 l 542 1319 l 389 1188 z "},"F":{"ha":694,"x_min":111,"x_max":611,"o":"m 176 861 l 611 861 l 611 972 l 176 972 l 176 861 m 176 472 l 597 472 l 597 583 l 176 583 l 176 472 m 111 972 l 111 0 l 229 0 l 229 972 l 111 972 z "},"G":{"ha":1076,"x_min":56,"x_max":1014,"o":"m 563 382 l 886 382 q 847 275 874 325 q 778 186 819 225 q 678 126 736 147 q 549 104 621 104 q 363 153 446 104 q 230 288 279 201 q 181 486 181 374 q 230 685 181 600 q 363 819 279 771 q 549 868 446 868 q 742 824 660 868 q 869 703 824 781 l 953 779 q 851 893 911 847 q 715 963 790 939 q 549 986 639 986 q 353 949 443 986 q 196 845 263 913 q 92 686 129 778 q 56 486 56 594 q 92 286 56 378 q 196 127 129 194 q 353 23 263 60 q 549 -14 443 -14 q 747 27 660 -14 q 893 139 833 68 q 983 301 953 210 q 1014 493 1014 392 l 563 493 l 563 382 z "},"Ĝ":{"ha":1076,"x_min":56,"x_max":1014,"o":"m 563 382 l 886 382 q 847 275 874 325 q 778 186 819 225 q 678 126 736 147 q 549 104 621 104 q 363 153 446 104 q 230 288 279 201 q 181 486 181 374 q 230 685 181 600 q 363 819 279 771 q 549 868 446 868 q 742 824 660 868 q 869 703 824 781 l 953 779 q 851 893 911 847 q 715 963 790 939 q 549 986 639 986 q 353 949 443 986 q 196 845 263 913 q 92 686 129 778 q 56 486 56 594 q 92 286 56 378 q 196 127 129 194 q 353 23 263 60 q 549 -14 443 -14 q 747 27 660 -14 q 893 139 833 68 q 983 301 953 210 q 1014 493 1014 392 l 563 493 l 563 382 m 549 1201 l 701 1069 l 771 1125 l 549 1319 l 326 1125 l 396 1069 l 549 1201 z "},"Ğ":{"ha":1076,"x_min":56,"x_max":1014,"o":"m 563 382 l 886 382 q 847 275 874 325 q 778 186 819 225 q 678 126 736 147 q 549 104 621 104 q 363 153 446 104 q 230 288 279 201 q 181 486 181 374 q 230 685 181 600 q 363 819 279 771 q 549 868 446 868 q 742 824 660 868 q 869 703 824 781 l 953 779 q 851 893 911 847 q 715 963 790 939 q 549 986 639 986 q 353 949 443 986 q 196 845 263 913 q 92 686 129 778 q 56 486 56 594 q 92 286 56 378 q 196 127 129 194 q 353 23 263 60 q 549 -14 443 -14 q 747 27 660 -14 q 893 139 833 68 q 983 301 953 210 q 1014 493 1014 392 l 563 493 l 563 382 m 329 1264 q 353 1172 329 1217 q 427 1098 378 1126 q 549 1069 476 1069 q 671 1098 622 1069 q 744 1172 719 1126 q 768 1264 768 1217 l 669 1264 q 660 1222 669 1246 q 624 1178 650 1197 q 549 1160 597 1160 q 474 1178 500 1160 q 438 1222 447 1197 q 428 1264 428 1246 l 329 1264 z "},"Ġ":{"ha":1076,"x_min":56,"x_max":1014,"o":"m 563 382 l 886 382 q 847 275 874 325 q 778 186 819 225 q 678 126 736 147 q 549 104 621 104 q 363 153 446 104 q 230 288 279 201 q 181 486 181 374 q 230 685 181 600 q 363 819 279 771 q 549 868 446 868 q 742 824 660 868 q 869 703 824 781 l 953 779 q 851 893 911 847 q 715 963 790 939 q 549 986 639 986 q 353 949 443 986 q 196 845 263 913 q 92 686 129 778 q 56 486 56 594 q 92 286 56 378 q 196 127 129 194 q 353 23 263 60 q 549 -14 443 -14 q 747 27 660 -14 q 893 139 833 68 q 983 301 953 210 q 1014 493 1014 392 l 563 493 l 563 382 m 472 1146 q 495 1092 472 1115 q 549 1069 518 1069 q 603 1092 581 1069 q 625 1146 625 1115 q 603 1200 625 1178 q 549 1222 581 1222 q 495 1200 518 1222 q 472 1146 472 1178 z "},"Ģ":{"ha":1076,"x_min":56,"x_max":1014,"o":"m 563 382 l 886 382 q 847 275 874 325 q 778 186 819 225 q 678 126 736 147 q 549 104 621 104 q 363 153 446 104 q 230 288 279 201 q 181 486 181 374 q 230 685 181 600 q 363 819 279 771 q 549 868 446 868 q 742 824 660 868 q 869 703 824 781 l 953 779 q 851 893 911 847 q 715 963 790 939 q 549 986 639 986 q 353 949 443 986 q 196 845 263 913 q 92 686 129 778 q 56 486 56 594 q 92 286 56 378 q 196 127 129 194 q 353 23 263 60 q 549 -14 443 -14 q 747 27 660 -14 q 893 139 833 68 q 983 301 953 210 q 1014 493 1014 392 l 563 493 l 563 382 m 554 -97 l 432 -457 l 513 -486 l 665 -139 l 554 -97 z "},"H":{"ha":993,"x_min":111,"x_max":882,"o":"m 176 472 l 843 472 l 843 583 l 176 583 l 176 472 m 764 972 l 764 0 l 882 0 l 882 972 l 764 972 m 111 972 l 111 0 l 229 0 l 229 972 l 111 972 z "},"Ĥ":{"ha":993,"x_min":111,"x_max":882,"o":"m 176 472 l 843 472 l 843 583 l 176 583 l 176 472 m 764 972 l 764 0 l 882 0 l 882 972 l 764 972 m 111 972 l 111 0 l 229 0 l 229 972 l 111 972 m 497 1201 l 650 1069 l 719 1125 l 497 1319 l 275 1125 l 344 1069 l 497 1201 z "},"I":{"ha":340,"x_min":111,"x_max":229,"o":"m 111 972 l 111 0 l 229 0 l 229 972 l 111 972 z "},"Ì":{"ha":340,"x_min":-11,"x_max":303,"o":"m 111 972 l 111 0 l 229 0 l 229 972 l 111 972 m -11 1278 l 239 1069 l 303 1111 l 94 1333 l -11 1278 z "},"Í":{"ha":340,"x_min":39,"x_max":350,"o":"m 111 972 l 111 0 l 229 0 l 229 972 l 111 972 m 350 1278 l 247 1333 l 39 1111 l 100 1069 l 350 1278 z "},"Î":{"ha":340,"x_min":-53,"x_max":392,"o":"m 111 972 l 111 0 l 229 0 l 229 972 l 111 972 m 169 1201 l 322 1069 l 392 1125 l 169 1319 l -53 1125 l 17 1069 l 169 1201 z "},"Ï":{"ha":340,"x_min":-44,"x_max":386,"o":"m 111 972 l 111 0 l 229 0 l 229 972 l 111 972 m 233 1146 q 256 1092 233 1115 q 308 1069 278 1069 q 363 1092 340 1069 q 386 1146 386 1115 q 363 1200 386 1178 q 308 1222 340 1222 q 256 1200 278 1222 q 233 1146 233 1178 m -44 1146 q -22 1092 -44 1115 q 31 1069 0 1069 q 85 1092 63 1069 q 108 1146 108 1115 q 85 1200 108 1178 q 31 1222 63 1222 q -22 1200 0 1222 q -44 1146 -44 1178 z "},"Ĩ":{"ha":340,"x_min":-58,"x_max":400,"o":"m 111 972 l 111 0 l 229 0 l 229 972 l 111 972 m -58 1121 l 15 1069 q 21 1097 15 1081 q 42 1127 26 1114 q 85 1140 57 1140 q 140 1124 117 1140 q 189 1092 163 1108 q 253 1075 215 1075 q 317 1090 288 1075 q 367 1128 346 1104 q 400 1176 389 1151 l 336 1236 q 297 1186 315 1203 q 258 1169 278 1169 q 213 1179 231 1169 q 178 1202 194 1189 q 141 1225 163 1215 q 86 1235 119 1235 q 24 1220 56 1235 q -29 1181 -7 1206 q -58 1121 -51 1156 z "},"Ī":{"ha":340,"x_min":-72,"x_max":414,"o":"m 111 972 l 111 0 l 229 0 l 229 972 l 111 972 m -72 1069 l 414 1069 l 414 1174 l -72 1174 l -72 1069 z "},"Ĭ":{"ha":340,"x_min":-49,"x_max":390,"o":"m 111 972 l 111 0 l 229 0 l 229 972 l 111 972 m -49 1264 q -24 1172 -49 1217 q 49 1098 0 1126 q 171 1069 99 1069 q 293 1098 244 1069 q 366 1172 342 1126 q 390 1264 390 1217 l 292 1264 q 282 1222 292 1246 q 246 1178 272 1197 q 171 1160 219 1160 q 96 1178 122 1160 q 60 1222 69 1197 q 50 1264 50 1246 l -49 1264 z "},"Į":{"ha":340,"x_min":-11,"x_max":282,"o":"m 111 972 l 111 0 l 229 0 l 229 972 l 111 972 m 236 -181 q 208 -201 222 -194 q 167 -208 194 -208 q 118 -192 136 -208 q 100 -139 100 -176 q 117 -87 100 -112 q 164 -38 135 -61 q 229 0 193 -15 l 172 35 q 82 -22 124 10 q 15 -89 40 -53 q -11 -167 -11 -125 q 8 -239 -11 -207 q 64 -288 26 -271 q 160 -306 101 -306 q 235 -288 204 -306 q 282 -250 267 -271 l 236 -181 z "},"İ":{"ha":340,"x_min":93,"x_max":246,"o":"m 111 972 l 111 0 l 229 0 l 229 972 l 111 972 m 93 1146 q 116 1092 93 1115 q 169 1069 139 1069 q 224 1092 201 1069 q 246 1146 246 1115 q 224 1200 246 1178 q 169 1222 201 1222 q 116 1200 139 1222 q 93 1146 93 1178 z "},"J":{"ha":333,"x_min":-154,"x_max":222,"o":"m -93 -144 l -154 -236 q -119 -266 -143 -250 q -60 -294 -94 -282 q 10 -306 -26 -306 q 98 -292 58 -306 q 165 -251 138 -279 q 208 -182 193 -224 q 222 -83 222 -140 l 222 972 l 111 972 l 111 -69 q 80 -166 111 -137 q 17 -194 49 -194 q -49 -181 -21 -194 q -93 -144 -78 -168 z "},"Ĵ":{"ha":333,"x_min":-154,"x_max":389,"o":"m -93 -144 l -154 -236 q -119 -266 -143 -250 q -60 -294 -94 -282 q 10 -306 -26 -306 q 98 -292 58 -306 q 165 -251 138 -279 q 208 -182 193 -224 q 222 -83 222 -140 l 222 972 l 111 972 l 111 -69 q 80 -166 111 -137 q 17 -194 49 -194 q -49 -181 -21 -194 q -93 -144 -78 -168 m 167 1201 l 319 1069 l 389 1125 l 167 1319 l -56 1125 l 14 1069 l 167 1201 z "},"K":{"ha":785,"x_min":111,"x_max":778,"o":"m 111 972 l 111 0 l 229 0 l 229 972 l 111 972 m 611 972 l 193 514 l 632 0 l 778 0 l 336 517 l 757 972 l 611 972 z "},"Ķ":{"ha":785,"x_min":111,"x_max":778,"o":"m 111 972 l 111 0 l 229 0 l 229 972 l 111 972 m 611 972 l 193 514 l 632 0 l 778 0 l 336 517 l 757 972 l 611 972 m 450 -83 l 328 -443 l 408 -472 l 561 -125 l 450 -83 z "},"L":{"ha":625,"x_min":111,"x_max":611,"o":"m 111 972 l 111 0 l 611 0 l 611 111 l 229 111 l 229 972 l 111 972 z "},"Ĺ":{"ha":625,"x_min":111,"x_max":611,"o":"m 111 972 l 111 0 l 611 0 l 611 111 l 229 111 l 229 972 l 111 972 m 542 1278 l 438 1333 l 229 1111 l 292 1069 l 542 1278 z "},"Ļ":{"ha":625,"x_min":111,"x_max":611,"o":"m 111 972 l 111 0 l 611 0 l 611 111 l 229 111 l 229 972 l 111 972 m 367 -83 l 244 -443 l 325 -472 l 478 -125 l 367 -83 z "},"Ľ":{"ha":625,"x_min":111,"x_max":611,"o":"m 111 972 l 111 0 l 611 0 l 611 111 l 229 111 l 229 972 l 111 972 m 456 986 l 333 626 l 414 597 l 567 944 l 456 986 z "},"M":{"ha":1125,"x_min":56,"x_max":1069,"o":"m 246 657 l 563 90 l 879 657 l 951 0 l 1069 0 l 951 1021 l 563 317 l 174 1021 l 56 0 l 174 0 l 246 657 z "},"N":{"ha":1076,"x_min":111,"x_max":965,"o":"m 847 972 l 847 249 l 111 1021 l 111 0 l 229 0 l 229 724 l 965 -49 l 965 972 l 847 972 z "},"Ñ":{"ha":1076,"x_min":111,"x_max":965,"o":"m 847 972 l 847 249 l 111 1021 l 111 0 l 229 0 l 229 724 l 965 -49 l 965 972 l 847 972 m 299 1100 l 372 1049 q 378 1076 372 1060 q 399 1106 383 1093 q 442 1119 414 1119 q 497 1103 474 1119 q 546 1071 519 1088 q 610 1054 572 1054 q 674 1069 644 1054 q 724 1107 703 1083 q 757 1156 746 1131 l 693 1215 q 653 1165 672 1182 q 615 1149 635 1149 q 569 1158 588 1149 q 535 1181 551 1168 q 498 1204 519 1194 q 443 1214 476 1214 q 381 1199 413 1214 q 328 1160 350 1185 q 299 1100 306 1135 z "},"Ń":{"ha":1076,"x_min":111,"x_max":965,"o":"m 847 972 l 847 249 l 111 1021 l 111 0 l 229 0 l 229 724 l 965 -49 l 965 972 l 847 972 m 778 1257 l 674 1313 l 465 1090 l 528 1049 l 778 1257 z "},"Ņ":{"ha":1076,"x_min":111,"x_max":965,"o":"m 554 -49 l 432 -408 l 513 -437 l 665 -90 l 554 -49 m 847 972 l 847 249 l 111 1021 l 111 0 l 229 0 l 229 724 l 965 -49 l 965 972 l 847 972 z "},"Ň":{"ha":1076,"x_min":111,"x_max":965,"o":"m 556 1222 l 403 1354 l 333 1299 l 556 1104 l 778 1299 l 708 1354 l 556 1222 m 847 972 l 847 249 l 111 1021 l 111 0 l 229 0 l 229 724 l 965 -49 l 965 972 l 847 972 z "},"O":{"ha":1097,"x_min":56,"x_max":1042,"o":"m 181 486 q 228 682 181 596 q 360 818 276 768 q 549 868 443 868 q 738 818 656 868 q 869 682 821 768 q 917 486 917 596 q 869 290 917 376 q 738 154 821 204 q 549 104 656 104 q 360 154 443 104 q 228 290 276 204 q 181 486 181 376 m 56 486 q 92 289 56 381 q 196 130 129 197 q 353 24 263 63 q 549 -14 443 -14 q 745 24 656 -14 q 901 130 835 63 q 1005 289 968 197 q 1042 486 1042 381 q 1005 684 1042 593 q 901 842 968 775 q 745 948 835 910 q 549 986 656 986 q 353 948 443 986 q 196 842 263 910 q 92 684 129 775 q 56 486 56 593 z "},"Ò":{"ha":1097,"x_min":56,"x_max":1042,"o":"m 181 486 q 228 682 181 596 q 360 818 276 768 q 549 868 443 868 q 738 818 656 868 q 869 682 821 768 q 917 486 917 596 q 869 290 917 376 q 738 154 821 204 q 549 104 656 104 q 360 154 443 104 q 228 290 276 204 q 181 486 181 376 m 56 486 q 92 289 56 381 q 196 130 129 197 q 353 24 263 63 q 549 -14 443 -14 q 745 24 656 -14 q 901 130 835 63 q 1005 289 968 197 q 1042 486 1042 381 q 1005 684 1042 593 q 901 842 968 775 q 745 948 835 910 q 549 986 656 986 q 353 948 443 986 q 196 842 263 910 q 92 684 129 775 q 56 486 56 593 m 382 1278 l 632 1069 l 694 1111 l 486 1333 l 382 1278 z "},"Ó":{"ha":1097,"x_min":56,"x_max":1042,"o":"m 181 486 q 228 682 181 596 q 360 818 276 768 q 549 868 443 868 q 738 818 656 868 q 869 682 821 768 q 917 486 917 596 q 869 290 917 376 q 738 154 821 204 q 549 104 656 104 q 360 154 443 104 q 228 290 276 204 q 181 486 181 376 m 56 486 q 92 289 56 381 q 196 130 129 197 q 353 24 263 63 q 549 -14 443 -14 q 745 24 656 -14 q 901 130 835 63 q 1005 289 968 197 q 1042 486 1042 381 q 1005 684 1042 593 q 901 842 968 775 q 745 948 835 910 q 549 986 656 986 q 353 948 443 986 q 196 842 263 910 q 92 684 129 775 q 56 486 56 593 m 715 1278 l 611 1333 l 403 1111 l 465 1069 l 715 1278 z "},"Ô":{"ha":1097,"x_min":56,"x_max":1042,"o":"m 181 486 q 228 682 181 596 q 360 818 276 768 q 549 868 443 868 q 738 818 656 868 q 869 682 821 768 q 917 486 917 596 q 869 290 917 376 q 738 154 821 204 q 549 104 656 104 q 360 154 443 104 q 228 290 276 204 q 181 486 181 376 m 56 486 q 92 289 56 381 q 196 130 129 197 q 353 24 263 63 q 549 -14 443 -14 q 745 24 656 -14 q 901 130 835 63 q 1005 289 968 197 q 1042 486 1042 381 q 1005 684 1042 593 q 901 842 968 775 q 745 948 835 910 q 549 986 656 986 q 353 948 443 986 q 196 842 263 910 q 92 684 129 775 q 56 486 56 593 m 549 1201 l 701 1069 l 771 1125 l 549 1319 l 326 1125 l 396 1069 l 549 1201 z "},"Õ":{"ha":1097,"x_min":56,"x_max":1042,"o":"m 181 486 q 228 682 181 596 q 360 818 276 768 q 549 868 443 868 q 738 818 656 868 q 869 682 821 768 q 917 486 917 596 q 869 290 917 376 q 738 154 821 204 q 549 104 656 104 q 360 154 443 104 q 228 290 276 204 q 181 486 181 376 m 56 486 q 92 289 56 381 q 196 130 129 197 q 353 24 263 63 q 549 -14 443 -14 q 745 24 656 -14 q 901 130 835 63 q 1005 289 968 197 q 1042 486 1042 381 q 1005 684 1042 593 q 901 842 968 775 q 745 948 835 910 q 549 986 656 986 q 353 948 443 986 q 196 842 263 910 q 92 684 129 775 q 56 486 56 593 m 319 1121 l 393 1069 q 399 1097 393 1081 q 419 1127 404 1114 q 463 1140 435 1140 q 517 1124 494 1140 q 567 1092 540 1108 q 631 1075 593 1075 q 694 1090 665 1075 q 745 1128 724 1104 q 778 1176 767 1151 l 714 1236 q 674 1186 693 1203 q 636 1169 656 1169 q 590 1179 608 1169 q 556 1202 572 1189 q 519 1225 540 1215 q 464 1235 497 1235 q 402 1220 433 1235 q 349 1181 371 1206 q 319 1121 326 1156 z "},"Ö":{"ha":1097,"x_min":56,"x_max":1042,"o":"m 181 486 q 228 682 181 596 q 360 818 276 768 q 549 868 443 868 q 738 818 656 868 q 869 682 821 768 q 917 486 917 596 q 869 290 917 376 q 738 154 821 204 q 549 104 656 104 q 360 154 443 104 q 228 290 276 204 q 181 486 181 376 m 56 486 q 92 289 56 381 q 196 130 129 197 q 353 24 263 63 q 549 -14 443 -14 q 745 24 656 -14 q 901 130 835 63 q 1005 289 968 197 q 1042 486 1042 381 q 1005 684 1042 593 q 901 842 968 775 q 745 948 835 910 q 549 986 656 986 q 353 948 443 986 q 196 842 263 910 q 92 684 129 775 q 56 486 56 593 m 611 1146 q 634 1092 611 1115 q 688 1069 657 1069 q 742 1092 719 1069 q 764 1146 764 1115 q 742 1200 764 1178 q 688 1222 719 1222 q 634 1200 657 1222 q 611 1146 611 1178 m 333 1146 q 356 1092 333 1115 q 410 1069 379 1069 q 464 1092 442 1069 q 486 1146 486 1115 q 464 1200 486 1178 q 410 1222 442 1222 q 356 1200 379 1222 q 333 1146 333 1178 z "},"Ō":{"ha":1097,"x_min":56,"x_max":1042,"o":"m 181 486 q 228 682 181 596 q 360 818 276 768 q 549 868 443 868 q 738 818 656 868 q 869 682 821 768 q 917 486 917 596 q 869 290 917 376 q 738 154 821 204 q 549 104 656 104 q 360 154 443 104 q 228 290 276 204 q 181 486 181 376 m 56 486 q 92 289 56 381 q 196 130 129 197 q 353 24 263 63 q 549 -14 443 -14 q 745 24 656 -14 q 901 130 835 63 q 1005 289 968 197 q 1042 486 1042 381 q 1005 684 1042 593 q 901 842 968 775 q 745 948 835 910 q 549 986 656 986 q 353 948 443 986 q 196 842 263 910 q 92 684 129 775 q 56 486 56 593 m 306 1069 l 792 1069 l 792 1174 l 306 1174 l 306 1069 z "},"Ŏ":{"ha":1097,"x_min":56,"x_max":1042,"o":"m 181 486 q 228 682 181 596 q 360 818 276 768 q 549 868 443 868 q 738 818 656 868 q 869 682 821 768 q 917 486 917 596 q 869 290 917 376 q 738 154 821 204 q 549 104 656 104 q 360 154 443 104 q 228 290 276 204 q 181 486 181 376 m 56 486 q 92 289 56 381 q 196 130 129 197 q 353 24 263 63 q 549 -14 443 -14 q 745 24 656 -14 q 901 130 835 63 q 1005 289 968 197 q 1042 486 1042 381 q 1005 684 1042 593 q 901 842 968 775 q 745 948 835 910 q 549 986 656 986 q 353 948 443 986 q 196 842 263 910 q 92 684 129 775 q 56 486 56 593 m 329 1264 q 353 1172 329 1217 q 427 1098 378 1126 q 549 1069 476 1069 q 671 1098 622 1069 q 744 1172 719 1126 q 768 1264 768 1217 l 669 1264 q 660 1222 669 1246 q 624 1178 650 1197 q 549 1160 597 1160 q 474 1178 500 1160 q 438 1222 447 1197 q 428 1264 428 1246 l 329 1264 z "},"Ő":{"ha":1097,"x_min":56,"x_max":1042,"o":"m 435 1069 l 621 1335 l 507 1363 l 363 1093 l 435 1069 m 663 1069 l 851 1335 l 735 1363 l 592 1093 l 663 1069 m 181 486 q 228 682 181 596 q 360 818 276 768 q 549 868 443 868 q 738 818 656 868 q 869 682 821 768 q 917 486 917 596 q 869 290 917 376 q 738 154 821 204 q 549 104 656 104 q 360 154 443 104 q 228 290 276 204 q 181 486 181 376 m 56 486 q 92 289 56 381 q 196 130 129 197 q 353 24 263 63 q 549 -14 443 -14 q 745 24 656 -14 q 901 130 835 63 q 1005 289 968 197 q 1042 486 1042 381 q 1005 684 1042 593 q 901 842 968 775 q 745 948 835 910 q 549 986 656 986 q 353 948 443 986 q 196 842 263 910 q 92 684 129 775 q 56 486 56 593 z "},"P":{"ha":761,"x_min":111,"x_max":706,"o":"m 111 972 l 111 0 l 229 0 l 229 972 l 111 972 m 176 861 l 375 861 q 528 816 469 861 q 588 681 588 771 q 528 546 588 592 q 375 500 469 500 l 176 500 l 176 389 l 375 389 q 544 424 469 389 q 662 526 618 460 q 706 681 706 592 q 662 836 706 771 q 544 937 618 901 q 375 972 469 972 l 176 972 l 176 861 z "},"Q":{"ha":1097,"x_min":56,"x_max":1096,"o":"m 181 486 q 228 682 181 596 q 360 818 276 768 q 549 868 443 868 q 738 818 656 868 q 869 682 821 768 q 917 486 917 596 q 869 290 917 376 q 738 154 821 204 q 549 104 656 104 q 360 154 443 104 q 228 290 276 204 q 181 486 181 376 m 56 486 q 92 289 56 381 q 196 130 129 197 q 353 24 263 63 q 549 -14 443 -14 q 745 24 656 -14 q 901 130 835 63 q 1005 289 968 197 q 1042 486 1042 381 q 1005 684 1042 593 q 901 842 968 775 q 745 948 835 910 q 549 986 656 986 q 353 948 443 986 q 196 842 263 910 q 92 684 129 775 q 56 486 56 593 m 526 417 l 943 0 l 1096 0 l 679 417 l 526 417 z "},"R":{"ha":778,"x_min":111,"x_max":764,"o":"m 285 479 l 618 0 l 764 0 l 417 479 l 285 479 m 111 972 l 111 0 l 229 0 l 229 972 l 111 972 m 176 868 l 375 868 q 485 846 438 868 q 560 782 533 824 q 588 681 588 740 q 560 579 588 621 q 485 515 533 538 q 375 493 438 493 l 176 493 l 176 389 l 375 389 q 544 424 469 389 q 662 526 618 460 q 706 681 706 592 q 662 836 706 771 q 544 937 618 901 q 375 972 469 972 l 176 972 l 176 868 z "},"Ŕ":{"ha":778,"x_min":111,"x_max":764,"o":"m 285 479 l 618 0 l 764 0 l 417 479 l 285 479 m 111 972 l 111 0 l 229 0 l 229 972 l 111 972 m 176 868 l 375 868 q 485 846 438 868 q 560 782 533 824 q 588 681 588 740 q 560 579 588 621 q 485 515 533 538 q 375 493 438 493 l 176 493 l 176 389 l 375 389 q 544 424 469 389 q 662 526 618 460 q 706 681 706 592 q 662 836 706 771 q 544 937 618 901 q 375 972 469 972 l 176 972 l 176 868 m 563 1278 l 458 1333 l 250 1111 l 313 1069 l 563 1278 z "},"Ŗ":{"ha":778,"x_min":111,"x_max":764,"o":"m 285 479 l 618 0 l 764 0 l 417 479 l 285 479 m 111 972 l 111 0 l 229 0 l 229 972 l 111 972 m 176 868 l 375 868 q 485 846 438 868 q 560 782 533 824 q 588 681 588 740 q 560 579 588 621 q 485 515 533 538 q 375 493 438 493 l 176 493 l 176 389 l 375 389 q 544 424 469 389 q 662 526 618 460 q 706 681 706 592 q 662 836 706 771 q 544 937 618 901 q 375 972 469 972 l 176 972 l 176 868 m 443 -83 l 321 -443 l 401 -472 l 554 -125 l 443 -83 z "},"Ř":{"ha":778,"x_min":111,"x_max":764,"o":"m 285 479 l 618 0 l 764 0 l 417 479 l 285 479 m 111 972 l 111 0 l 229 0 l 229 972 l 111 972 m 176 868 l 375 868 q 485 846 438 868 q 560 782 533 824 q 588 681 588 740 q 560 579 588 621 q 485 515 533 538 q 375 493 438 493 l 176 493 l 176 389 l 375 389 q 544 424 469 389 q 662 526 618 460 q 706 681 706 592 q 662 836 706 771 q 544 937 618 901 q 375 972 469 972 l 176 972 l 176 868 m 354 1188 l 201 1319 l 132 1264 l 354 1069 l 576 1264 l 507 1319 l 354 1188 z "},"Ȓ":{"ha":778,"x_min":111,"x_max":764,"o":"m 285 479 l 618 0 l 764 0 l 417 479 l 285 479 m 111 972 l 111 0 l 229 0 l 229 972 l 111 972 m 176 868 l 375 868 q 485 846 438 868 q 560 782 533 824 q 588 681 588 740 q 560 579 588 621 q 485 515 533 538 q 375 493 438 493 l 176 493 l 176 389 l 375 389 q 544 424 469 389 q 662 526 618 460 q 706 681 706 592 q 662 836 706 771 q 544 937 618 901 q 375 972 469 972 l 176 972 l 176 868 m 163 1069 q 187 1163 163 1118 q 260 1235 211 1207 q 382 1264 310 1264 q 504 1235 456 1264 q 577 1163 553 1207 q 601 1069 601 1118 l 503 1069 q 493 1112 503 1088 q 457 1155 483 1136 q 382 1174 431 1174 q 307 1155 333 1174 q 271 1112 281 1136 q 261 1069 261 1088 l 163 1069 z "},"S":{"ha":761,"x_min":53,"x_max":699,"o":"m 147 294 l 53 231 q 135 110 85 167 q 253 20 186 54 q 400 -14 321 -14 q 512 6 458 -14 q 608 61 565 25 q 674 149 650 97 q 699 264 699 200 q 675 378 699 331 q 615 460 651 426 q 535 517 578 494 q 453 553 492 539 q 319 612 368 582 q 249 676 269 642 q 228 750 228 710 q 264 835 228 797 q 379 874 300 874 q 476 851 436 874 q 543 794 515 829 q 589 724 571 760 l 690 782 q 625 880 667 833 q 524 956 583 926 q 386 986 465 986 q 240 953 304 986 q 140 864 176 921 q 104 735 104 807 q 130 622 104 668 q 196 545 156 576 q 281 494 236 514 q 361 461 325 474 q 466 417 417 442 q 546 354 515 393 q 576 250 576 315 q 529 140 576 183 q 404 97 482 97 q 300 122 346 97 q 217 192 254 147 q 147 294 181 236 z "},"Ś":{"ha":761,"x_min":56,"x_max":699,"o":"m 156 314 l 56 254 q 137 114 86 174 q 256 20 188 54 q 403 -14 324 -14 q 565 21 500 -14 q 665 119 631 56 q 699 264 699 182 q 675 378 699 331 q 614 459 651 426 q 533 514 576 492 q 453 550 490 536 q 343 597 394 572 q 260 655 292 622 q 228 735 228 688 q 247 808 228 778 q 303 856 267 839 q 388 874 339 874 q 479 851 442 874 q 543 791 517 828 q 590 714 569 754 l 686 778 q 626 876 667 828 q 525 955 585 924 q 386 986 465 986 q 243 956 307 986 q 142 872 179 926 q 104 743 104 817 q 128 635 104 681 q 190 557 153 589 q 270 503 228 525 q 349 469 313 482 q 456 424 404 450 q 542 357 508 397 q 576 254 576 317 q 558 170 576 206 q 502 116 539 135 q 410 97 465 97 q 327 113 364 97 q 260 156 290 128 q 203 224 229 183 q 156 314 178 264 m 636 1278 l 532 1333 l 324 1111 l 386 1069 l 636 1278 z "},"Ŝ":{"ha":761,"x_min":56,"x_max":699,"o":"m 156 314 l 56 254 q 137 114 86 174 q 256 20 188 54 q 403 -14 324 -14 q 565 21 500 -14 q 665 119 631 56 q 699 264 699 182 q 675 378 699 331 q 614 459 651 426 q 533 514 576 492 q 453 550 490 536 q 343 597 394 572 q 260 655 292 622 q 228 735 228 688 q 247 808 228 778 q 303 856 267 839 q 388 874 339 874 q 479 851 442 874 q 543 791 517 828 q 590 714 569 754 l 686 778 q 626 876 667 828 q 525 955 585 924 q 386 986 465 986 q 243 956 307 986 q 142 872 179 926 q 104 743 104 817 q 128 635 104 681 q 190 557 153 589 q 270 503 228 525 q 349 469 313 482 q 456 424 404 450 q 542 357 508 397 q 576 254 576 317 q 558 170 576 206 q 502 116 539 135 q 410 97 465 97 q 327 113 364 97 q 260 156 290 128 q 203 224 229 183 q 156 314 178 264 m 386 1201 l 539 1069 l 608 1125 l 386 1319 l 164 1125 l 233 1069 l 386 1201 z "},"Ş":{"ha":761,"x_min":56,"x_max":699,"o":"m 156 314 l 56 254 q 137 114 86 174 q 256 20 188 54 q 403 -14 324 -14 q 559 21 493 -14 q 662 119 625 56 q 699 264 699 182 q 675 378 699 331 q 614 459 651 426 q 533 514 576 492 q 453 550 490 536 q 343 597 394 572 q 260 655 292 622 q 228 735 228 688 q 244 808 228 778 q 292 856 260 839 q 374 874 325 874 q 469 851 428 874 q 540 791 510 828 q 590 714 569 754 l 686 778 q 621 882 661 835 q 523 958 581 929 q 386 986 465 986 q 237 954 300 986 q 139 866 174 922 q 104 736 104 810 q 128 624 104 669 q 190 549 153 578 q 270 501 228 519 q 349 469 313 482 q 456 424 404 450 q 542 357 508 397 q 576 254 576 317 q 558 170 576 206 q 502 116 539 135 q 410 97 465 97 q 327 113 364 97 q 260 156 290 128 q 203 224 229 183 q 156 314 178 264 m 417 82 l 297 -151 q 344 -131 319 -136 q 378 -126 368 -126 q 431 -139 414 -126 q 447 -176 447 -151 q 431 -217 447 -201 q 378 -232 414 -232 q 335 -224 351 -232 q 300 -199 319 -215 l 253 -254 q 310 -295 282 -283 q 378 -307 339 -307 q 450 -292 417 -307 q 504 -247 483 -276 q 525 -176 525 -218 q 510 -119 525 -142 q 472 -85 494 -97 q 425 -74 449 -74 q 419 -74 422 -74 q 413 -74 415 -74 l 500 82 l 417 82 z "},"Š":{"ha":761,"x_min":56,"x_max":699,"o":"m 156 314 l 56 254 q 137 114 86 174 q 256 20 188 54 q 403 -14 324 -14 q 565 21 500 -14 q 665 119 631 56 q 699 264 699 182 q 675 378 699 331 q 614 459 651 426 q 533 514 576 492 q 453 550 490 536 q 343 597 394 572 q 260 655 292 622 q 228 735 228 688 q 247 808 228 778 q 303 856 267 839 q 388 874 339 874 q 479 851 442 874 q 543 791 517 828 q 590 714 569 754 l 686 778 q 626 876 667 828 q 525 955 585 924 q 386 986 465 986 q 243 956 307 986 q 142 872 179 926 q 104 743 104 817 q 128 635 104 681 q 190 557 153 589 q 270 503 228 525 q 349 469 313 482 q 456 424 404 450 q 542 357 508 397 q 576 254 576 317 q 558 170 576 206 q 502 116 539 135 q 410 97 465 97 q 327 113 364 97 q 260 156 290 128 q 203 224 229 183 q 156 314 178 264 m 386 1188 l 233 1319 l 164 1264 l 386 1069 l 608 1264 l 539 1319 l 386 1188 z "},"Ș":{"ha":761,"x_min":56,"x_max":699,"o":"m 156 314 l 56 254 q 137 114 86 174 q 256 20 188 54 q 403 -14 324 -14 q 565 21 500 -14 q 665 119 631 56 q 699 264 699 182 q 675 378 699 331 q 614 459 651 426 q 533 514 576 492 q 453 550 490 536 q 343 597 394 572 q 260 655 292 622 q 228 735 228 688 q 247 808 228 778 q 303 856 267 839 q 388 874 339 874 q 479 851 442 874 q 543 791 517 828 q 590 714 569 754 l 686 778 q 626 876 667 828 q 525 955 585 924 q 386 986 465 986 q 243 956 307 986 q 142 872 179 926 q 104 743 104 817 q 128 635 104 681 q 190 557 153 589 q 270 503 228 525 q 349 469 313 482 q 456 424 404 450 q 542 357 508 397 q 576 254 576 317 q 558 170 576 206 q 502 116 539 135 q 410 97 465 97 q 327 113 364 97 q 260 156 290 128 q 203 224 229 183 q 156 314 178 264 m 408 -97 l 286 -457 l 367 -486 l 519 -139 l 408 -97 z "},"T":{"ha":646,"x_min":14,"x_max":632,"o":"m 14 861 l 264 861 l 264 0 l 382 0 l 382 861 l 632 861 l 632 972 l 14 972 l 14 861 z "},"Ţ":{"ha":646,"x_min":14,"x_max":632,"o":"m 281 13 l 163 -221 q 208 -201 185 -206 q 242 -196 232 -196 q 294 -208 278 -196 q 311 -246 311 -221 q 294 -286 311 -271 q 242 -301 278 -301 q 199 -293 215 -301 q 164 -268 183 -285 l 118 -324 q 175 -365 147 -353 q 242 -376 203 -376 q 314 -361 281 -376 q 369 -317 347 -346 q 390 -246 390 -287 q 374 -189 390 -211 q 335 -155 358 -167 q 289 -143 313 -143 q 283 -143 286 -143 q 276 -143 279 -143 l 365 13 l 281 13 m 14 861 l 264 861 l 264 0 l 382 0 l 382 861 l 632 861 l 632 972 l 14 972 l 14 861 z "},"Ť":{"ha":646,"x_min":14,"x_max":632,"o":"m 14 861 l 264 861 l 264 0 l 382 0 l 382 861 l 632 861 l 632 972 l 14 972 l 14 861 m 324 1188 l 171 1319 l 101 1264 l 324 1069 l 546 1264 l 476 1319 l 324 1188 z "},"Ț":{"ha":646,"x_min":14,"x_max":632,"o":"m 14 861 l 264 861 l 264 0 l 382 0 l 382 861 l 632 861 l 632 972 l 14 972 l 14 861 m 329 -83 l 207 -443 l 288 -472 l 440 -125 l 329 -83 z "},"U":{"ha":869,"x_min":104,"x_max":765,"o":"m 104 972 l 104 319 q 127 186 104 247 q 194 81 150 125 q 299 11 238 36 q 435 -14 360 -14 q 571 11 510 -14 q 676 81 632 36 q 742 186 719 125 q 765 319 765 247 l 765 972 l 647 972 l 647 319 q 593 158 647 219 q 435 97 539 97 q 276 158 331 97 q 222 319 222 219 l 222 972 l 104 972 z "},"Ù":{"ha":869,"x_min":104,"x_max":765,"o":"m 104 972 l 104 319 q 127 186 104 247 q 194 81 150 125 q 299 11 238 36 q 435 -14 360 -14 q 571 11 510 -14 q 676 81 632 36 q 742 186 719 125 q 765 319 765 247 l 765 972 l 647 972 l 647 319 q 593 158 647 219 q 435 97 539 97 q 276 158 331 97 q 222 319 222 219 l 222 972 l 104 972 m 254 1278 l 504 1069 l 567 1111 l 358 1333 l 254 1278 z "},"Ú":{"ha":869,"x_min":104,"x_max":765,"o":"m 104 972 l 104 319 q 127 186 104 247 q 194 81 150 125 q 299 11 238 36 q 435 -14 360 -14 q 571 11 510 -14 q 676 81 632 36 q 742 186 719 125 q 765 319 765 247 l 765 972 l 647 972 l 647 319 q 593 158 647 219 q 435 97 539 97 q 276 158 331 97 q 222 319 222 219 l 222 972 l 104 972 m 615 1278 l 511 1333 l 303 1111 l 365 1069 l 615 1278 z "},"Û":{"ha":869,"x_min":104,"x_max":765,"o":"m 104 972 l 104 319 q 127 186 104 247 q 194 81 150 125 q 299 11 238 36 q 435 -14 360 -14 q 571 11 510 -14 q 676 81 632 36 q 742 186 719 125 q 765 319 765 247 l 765 972 l 647 972 l 647 319 q 593 158 647 219 q 435 97 539 97 q 276 158 331 97 q 222 319 222 219 l 222 972 l 104 972 m 435 1201 l 588 1069 l 657 1125 l 435 1319 l 213 1125 l 282 1069 l 435 1201 z "},"Ü":{"ha":869,"x_min":104,"x_max":765,"o":"m 104 972 l 104 319 q 127 186 104 247 q 194 81 150 125 q 299 11 238 36 q 435 -14 360 -14 q 571 11 510 -14 q 676 81 632 36 q 742 186 719 125 q 765 319 765 247 l 765 972 l 647 972 l 647 319 q 593 158 647 219 q 435 97 539 97 q 276 158 331 97 q 222 319 222 219 l 222 972 l 104 972 m 497 1146 q 520 1092 497 1115 q 574 1069 543 1069 q 628 1092 606 1069 q 650 1146 650 1115 q 628 1200 650 1178 q 574 1222 606 1222 q 520 1200 543 1222 q 497 1146 497 1178 m 219 1146 q 242 1092 219 1115 q 296 1069 265 1069 q 350 1092 328 1069 q 372 1146 372 1115 q 350 1200 372 1178 q 296 1222 328 1222 q 242 1200 265 1222 q 219 1146 219 1178 z "},"Ũ":{"ha":869,"x_min":104,"x_max":765,"o":"m 104 972 l 104 319 q 127 186 104 247 q 194 81 150 125 q 299 11 238 36 q 435 -14 360 -14 q 571 11 510 -14 q 676 81 632 36 q 742 186 719 125 q 765 319 765 247 l 765 972 l 647 972 l 647 319 q 593 158 647 219 q 435 97 539 97 q 276 158 331 97 q 222 319 222 219 l 222 972 l 104 972 m 206 1121 l 279 1069 q 285 1097 279 1081 q 306 1127 290 1114 q 349 1140 321 1140 q 403 1124 381 1140 q 453 1092 426 1108 q 517 1075 479 1075 q 581 1090 551 1075 q 631 1128 610 1104 q 664 1176 653 1151 l 600 1236 q 560 1186 579 1203 q 522 1169 542 1169 q 476 1179 494 1169 q 442 1202 458 1189 q 405 1225 426 1215 q 350 1235 383 1235 q 288 1220 319 1235 q 235 1181 257 1206 q 206 1121 213 1156 z "},"Ū":{"ha":869,"x_min":104,"x_max":765,"o":"m 104 972 l 104 319 q 127 186 104 247 q 194 81 150 125 q 299 11 238 36 q 435 -14 360 -14 q 571 11 510 -14 q 676 81 632 36 q 742 186 719 125 q 765 319 765 247 l 765 972 l 647 972 l 647 319 q 593 158 647 219 q 435 97 539 97 q 276 158 331 97 q 222 319 222 219 l 222 972 l 104 972 m 192 1069 l 678 1069 l 678 1174 l 192 1174 l 192 1069 z "},"Ŭ":{"ha":869,"x_min":104,"x_max":765,"o":"m 104 972 l 104 319 q 127 186 104 247 q 194 81 150 125 q 299 11 238 36 q 435 -14 360 -14 q 571 11 510 -14 q 676 81 632 36 q 742 186 719 125 q 765 319 765 247 l 765 972 l 647 972 l 647 319 q 593 158 647 219 q 435 97 539 97 q 276 158 331 97 q 222 319 222 219 l 222 972 l 104 972 m 215 1264 q 240 1172 215 1217 q 313 1098 264 1126 q 435 1069 363 1069 q 557 1098 508 1069 q 630 1172 606 1126 q 654 1264 654 1217 l 556 1264 q 546 1222 556 1246 q 510 1178 536 1197 q 435 1160 483 1160 q 360 1178 386 1160 q 324 1222 333 1197 q 314 1264 314 1246 l 215 1264 z "},"Ů":{"ha":869,"x_min":104,"x_max":765,"o":"m 104 972 l 104 319 q 127 186 104 247 q 194 81 150 125 q 299 11 238 36 q 435 -14 360 -14 q 571 11 510 -14 q 676 81 632 36 q 742 186 719 125 q 765 319 765 247 l 765 972 l 647 972 l 647 319 q 593 158 647 219 q 435 97 539 97 q 276 158 331 97 q 222 319 222 219 l 222 972 l 104 972 m 293 1208 q 337 1108 293 1146 q 435 1069 381 1069 q 533 1108 489 1069 q 576 1208 576 1146 q 533 1309 576 1271 q 435 1347 489 1347 q 337 1309 381 1347 q 293 1208 293 1271 m 364 1208 q 386 1263 364 1243 q 435 1282 408 1282 q 483 1263 461 1282 q 506 1208 506 1243 q 483 1154 506 1174 q 435 1135 461 1135 q 386 1154 408 1135 q 364 1208 364 1174 z "},"Ű":{"ha":869,"x_min":104,"x_max":765,"o":"m 321 1069 l 507 1335 l 393 1363 l 249 1093 l 321 1069 m 549 1069 l 738 1335 l 621 1363 l 478 1093 l 549 1069 m 104 972 l 104 319 q 127 186 104 247 q 194 81 150 125 q 299 11 238 36 q 435 -14 360 -14 q 571 11 510 -14 q 676 81 632 36 q 742 186 719 125 q 765 319 765 247 l 765 972 l 647 972 l 647 319 q 593 158 647 219 q 435 97 539 97 q 276 158 331 97 q 222 319 222 219 l 222 972 l 104 972 z "},"Ų":{"ha":869,"x_min":104,"x_max":765,"o":"m 496 -186 q 468 -207 482 -200 q 426 -214 454 -214 q 378 -198 396 -214 q 360 -144 360 -182 q 377 -92 360 -118 q 424 -44 394 -67 q 489 -6 453 -21 l 432 29 q 342 -27 383 4 q 274 -94 300 -58 q 249 -172 249 -131 q 267 -244 249 -212 q 324 -294 286 -276 q 419 -311 361 -311 q 495 -294 464 -311 q 542 -256 526 -276 l 496 -186 m 104 972 l 104 319 q 127 186 104 247 q 194 81 150 125 q 299 11 238 36 q 435 -14 360 -14 q 571 11 510 -14 q 676 81 632 36 q 742 186 719 125 q 765 319 765 247 l 765 972 l 647 972 l 647 319 q 593 158 647 219 q 435 97 539 97 q 276 158 331 97 q 222 319 222 219 l 222 972 l 104 972 z "},"V":{"ha":917,"x_min":7,"x_max":910,"o":"m 458 219 l 139 972 l 7 972 l 458 -49 l 910 972 l 778 972 l 458 219 z "},"W":{"ha":1375,"x_min":14,"x_max":1361,"o":"m 976 257 l 688 1021 l 404 257 l 146 972 l 14 972 l 396 -49 l 688 707 l 979 -49 l 1361 972 l 1229 972 l 976 257 z "},"Ŵ":{"ha":1375,"x_min":14,"x_max":1361,"o":"m 972 243 l 688 1021 l 403 243 l 146 972 l 14 972 l 396 -49 l 688 707 l 979 -49 l 1361 972 l 1229 972 l 972 243 m 688 1236 l 840 1104 l 910 1160 l 688 1354 l 465 1160 l 535 1104 l 688 1236 z "},"Ẁ":{"ha":1375,"x_min":14,"x_max":1361,"o":"m 688 1104 l 750 1146 l 542 1368 l 438 1313 l 688 1104 m 976 257 l 688 1021 l 404 257 l 146 972 l 14 972 l 396 -49 l 688 707 l 979 -49 l 1361 972 l 1229 972 l 976 257 z "},"Ẃ":{"ha":1375,"x_min":14,"x_max":1361,"o":"m 688 1104 l 938 1313 l 833 1368 l 625 1146 l 688 1104 m 976 257 l 688 1021 l 404 257 l 146 972 l 14 972 l 396 -49 l 688 707 l 979 -49 l 1361 972 l 1229 972 l 976 257 z "},"Ẅ":{"ha":1375,"x_min":14,"x_max":1361,"o":"m 750 1181 q 773 1127 750 1150 q 826 1104 796 1104 q 881 1127 858 1104 q 903 1181 903 1150 q 881 1235 903 1213 q 826 1257 858 1257 q 773 1235 796 1257 q 750 1181 750 1213 m 472 1181 q 495 1127 472 1150 q 549 1104 518 1104 q 603 1127 581 1104 q 625 1181 625 1150 q 603 1235 625 1213 q 549 1257 581 1257 q 495 1235 518 1257 q 472 1181 472 1213 m 976 257 l 688 1021 l 404 257 l 146 972 l 14 972 l 396 -49 l 688 707 l 979 -49 l 1361 972 l 1229 972 l 976 257 z "},"Ẇ":{"ha":1375,"x_min":14,"x_max":1361,"o":"m 611 1181 q 634 1127 611 1150 q 688 1104 657 1104 q 742 1127 719 1104 q 764 1181 764 1150 q 742 1235 764 1213 q 688 1257 719 1257 q 634 1235 657 1257 q 611 1181 611 1213 m 976 257 l 688 1021 l 404 257 l 146 972 l 14 972 l 396 -49 l 688 707 l 979 -49 l 1361 972 l 1229 972 l 976 257 z "},"Ẉ":{"ha":1375,"x_min":14,"x_max":1361,"o":"m 611 -208 q 634 -262 611 -239 q 688 -285 657 -285 q 742 -262 719 -285 q 764 -208 764 -239 q 742 -154 764 -176 q 688 -132 719 -132 q 634 -154 657 -132 q 611 -208 611 -176 m 976 257 l 688 1021 l 404 257 l 146 972 l 14 972 l 396 -49 l 688 707 l 979 -49 l 1361 972 l 1229 972 l 976 257 z "},"X":{"ha":771,"x_min":14,"x_max":757,"o":"m 597 972 l 390 613 l 188 972 l 49 972 l 331 510 l 14 0 l 153 0 l 389 407 l 618 0 l 757 0 l 449 510 l 736 972 l 597 972 z "},"Y":{"ha":779,"x_min":7,"x_max":772,"o":"m 640 972 l 389 522 l 139 972 l 7 972 l 331 418 l 331 0 l 449 0 l 449 419 l 772 972 l 640 972 z "},"Ý":{"ha":779,"x_min":7,"x_max":772,"o":"m 569 1278 l 467 1333 l 258 1111 l 319 1069 l 569 1278 m 640 972 l 389 522 l 139 972 l 7 972 l 331 418 l 331 0 l 449 0 l 449 419 l 772 972 l 640 972 z "},"Ŷ":{"ha":779,"x_min":7,"x_max":772,"o":"m 640 972 l 389 522 l 139 972 l 7 972 l 331 418 l 331 0 l 449 0 l 449 419 l 772 972 l 640 972 m 390 1201 l 543 1069 l 613 1125 l 390 1319 l 168 1125 l 238 1069 l 390 1201 z "},"Ÿ":{"ha":779,"x_min":7,"x_max":772,"o":"m 175 1146 q 197 1092 175 1115 q 250 1069 219 1069 q 305 1092 282 1069 q 328 1146 328 1115 q 305 1200 328 1178 q 250 1222 282 1222 q 197 1200 219 1222 q 175 1146 175 1178 m 453 1146 q 475 1092 453 1115 q 528 1069 497 1069 q 583 1092 560 1069 q 606 1146 606 1115 q 583 1200 606 1178 q 528 1222 560 1222 q 475 1200 497 1222 q 453 1146 453 1178 m 640 972 l 389 522 l 139 972 l 7 972 l 331 418 l 331 0 l 449 0 l 449 419 l 772 972 l 640 972 z "},"Ỳ":{"ha":779,"x_min":7,"x_max":772,"o":"m 390 1069 l 453 1111 l 244 1333 l 140 1278 l 390 1069 m 640 972 l 389 522 l 139 972 l 7 972 l 331 418 l 331 0 l 449 0 l 449 419 l 772 972 l 640 972 z "},"Z":{"ha":757,"x_min":21,"x_max":729,"o":"m 49 861 l 532 861 l 21 0 l 701 0 l 701 111 l 218 111 l 729 972 l 49 972 l 49 861 z "},"Ź":{"ha":757,"x_min":21,"x_max":729,"o":"m 49 861 l 532 861 l 21 0 l 701 0 l 701 111 l 218 111 l 729 972 l 49 972 l 49 861 m 611 1278 l 507 1333 l 299 1111 l 361 1069 l 611 1278 z "},"Ż":{"ha":757,"x_min":21,"x_max":729,"o":"m 49 861 l 532 861 l 21 0 l 701 0 l 701 111 l 218 111 l 729 972 l 49 972 l 49 861 m 313 1146 q 335 1092 313 1115 q 389 1069 358 1069 q 443 1092 421 1069 q 465 1146 465 1115 q 443 1200 465 1178 q 389 1222 421 1222 q 335 1200 358 1222 q 313 1146 313 1178 z "},"Ž":{"ha":757,"x_min":21,"x_max":729,"o":"m 49 861 l 532 861 l 21 0 l 701 0 l 701 111 l 218 111 l 729 972 l 49 972 l 49 861 m 389 1188 l 236 1319 l 167 1264 l 389 1069 l 611 1264 l 542 1319 l 389 1188 z "},"Æ":{"ha":1333,"x_min":7,"x_max":1236,"o":"m 301 292 l 718 292 l 718 403 l 301 403 l 301 292 m 604 972 l 7 0 l 139 0 l 700 917 l 604 972 m 746 0 l 1236 0 l 1236 111 l 746 111 l 746 0 m 757 861 l 1236 861 l 1236 972 l 604 972 l 757 861 m 746 472 l 1208 472 l 1208 583 l 746 583 l 746 472 m 681 972 l 681 0 l 799 0 l 799 972 l 681 972 z "},"Ð":{"ha":944,"x_min":7,"x_max":889,"o":"m 7 431 l 424 431 l 424 535 l 7 535 l 7 431 m 111 972 l 111 0 l 229 0 l 229 972 l 111 972 m 403 0 q 654 61 544 0 q 826 231 764 122 q 889 486 889 340 q 826 741 889 632 q 654 911 764 850 q 403 972 544 972 l 176 972 l 176 854 l 403 854 q 553 828 485 854 q 669 755 621 803 q 744 639 718 707 q 771 486 771 571 q 744 333 771 401 q 669 217 718 265 q 553 144 621 169 q 403 118 485 118 l 176 118 l 176 0 l 403 0 z "},"Ø":{"ha":1097,"x_min":56,"x_max":1042,"o":"m 181 486 q 228 682 181 596 q 360 818 276 768 q 549 868 443 868 q 738 818 656 868 q 869 682 821 768 q 917 486 917 596 q 869 290 917 376 q 738 154 821 204 q 549 104 656 104 q 360 154 443 104 q 228 290 276 204 q 181 486 181 376 m 56 486 q 92 289 56 381 q 196 130 129 197 q 353 24 263 63 q 549 -14 443 -14 q 745 24 656 -14 q 901 130 835 63 q 1005 289 968 197 q 1042 486 1042 381 q 1005 684 1042 593 q 901 842 968 775 q 745 948 835 910 q 549 986 656 986 q 353 948 443 986 q 196 842 263 910 q 92 684 129 775 q 56 486 56 593 m 956 1042 l 56 -14 l 136 -69 l 1038 986 l 956 1042 z "},"Þ":{"ha":764,"x_min":111,"x_max":706,"o":"m 111 972 l 111 0 l 229 0 l 229 972 l 111 972 m 176 667 l 375 667 q 485 647 438 667 q 560 586 533 626 q 588 486 588 546 q 560 386 588 426 q 485 326 533 346 q 375 306 438 306 l 176 306 l 176 194 l 375 194 q 544 230 469 194 q 662 331 618 265 q 706 486 706 397 q 662 642 706 576 q 544 742 618 707 q 375 778 469 778 l 176 778 l 176 667 z "},"Đ":{"ha":944,"x_min":7,"x_max":889,"o":"m 7 431 l 424 431 l 424 535 l 7 535 l 7 431 m 111 972 l 111 0 l 229 0 l 229 972 l 111 972 m 403 0 q 654 61 544 0 q 826 231 764 122 q 889 486 889 340 q 826 741 889 632 q 654 911 764 850 q 403 972 544 972 l 176 972 l 176 854 l 403 854 q 553 828 485 854 q 669 755 621 803 q 744 639 718 707 q 771 486 771 571 q 744 333 771 401 q 669 217 718 265 q 553 144 621 169 q 403 118 485 118 l 176 118 l 176 0 l 403 0 z "},"Ħ":{"ha":993,"x_min":7,"x_max":986,"o":"m 176 472 l 843 472 l 843 583 l 176 583 l 176 472 m 764 972 l 764 0 l 882 0 l 882 972 l 764 972 m 111 972 l 111 0 l 229 0 l 229 972 l 111 972 m 7 750 l 986 750 l 986 854 l 7 854 l 7 750 z "},"Ĳ":{"ha":681,"x_min":111,"x_max":569,"o":"m 254 -144 l 193 -236 q 228 -266 204 -250 q 287 -294 253 -282 q 357 -306 321 -306 q 445 -292 406 -306 q 513 -251 485 -279 q 555 -182 540 -224 q 569 -83 569 -140 l 569 972 l 458 972 l 458 -69 q 427 -166 458 -137 q 364 -194 396 -194 q 298 -181 326 -194 q 254 -144 269 -168 m 111 972 l 111 0 l 229 0 l 229 972 l 111 972 z "},"Ŀ":{"ha":625,"x_min":111,"x_max":611,"o":"m 111 972 l 111 0 l 611 0 l 611 111 l 229 111 l 229 972 l 111 972 m 354 576 q 377 523 354 546 q 431 500 400 500 q 485 523 463 500 q 507 576 507 546 q 485 631 507 608 q 431 653 463 653 q 377 631 400 653 q 354 576 354 608 z "},"Ł":{"ha":625,"x_min":-21,"x_max":611,"o":"m 7 472 l 382 708 l 354 785 l -21 549 l 7 472 m 111 972 l 111 0 l 611 0 l 611 111 l 229 111 l 229 972 l 111 972 z "},"Ŋ":{"ha":1076,"x_min":111,"x_max":965,"o":"m 781 -306 q 881 -279 839 -306 q 944 -203 922 -253 q 965 -83 965 -153 l 965 972 l 847 972 l 847 249 l 111 1021 l 111 0 l 229 0 l 229 724 l 854 68 l 854 -69 q 847 -142 854 -114 q 826 -182 840 -169 q 788 -194 811 -194 q 748 -185 765 -194 q 719 -158 731 -175 l 658 -250 q 709 -292 679 -278 q 781 -306 739 -306 z "},"Œ":{"ha":1368,"x_min":56,"x_max":1272,"o":"m 781 472 l 1243 472 l 1243 583 l 781 583 l 781 472 m 715 931 l 715 42 l 833 42 l 833 931 l 715 931 m 1272 111 l 794 111 l 761 111 l 542 111 q 392 138 460 111 q 276 213 325 164 q 200 332 226 263 q 174 486 174 401 q 200 640 174 571 q 275 759 226 710 q 392 835 324 808 q 542 861 460 861 l 765 861 l 789 861 l 1271 861 l 1271 972 l 542 972 q 347 938 436 972 q 192 838 257 903 q 92 684 128 774 q 56 486 56 594 q 92 288 56 378 q 193 134 128 199 q 347 35 258 69 q 542 0 436 0 l 1272 0 l 1272 111 z "},"Ŧ":{"ha":646,"x_min":14,"x_max":632,"o":"m 104 528 l 542 528 l 542 632 l 104 632 l 104 528 m 14 861 l 264 861 l 264 0 l 382 0 l 382 861 l 632 861 l 632 972 l 14 972 l 14 861 z "},"ẞ":{"ha":994,"x_min":111,"x_max":942,"o":"m 586 -17 q 434 9 497 -17 q 319 75 371 35 l 375 175 q 473 123 424 143 q 594 103 522 103 q 702 117 651 103 q 785 162 753 131 q 817 244 817 193 q 790 319 817 293 q 724 359 764 344 q 645 388 685 374 q 579 428 606 403 q 553 500 553 453 q 572 566 553 540 q 618 610 590 592 q 674 645 646 628 q 720 685 701 663 q 739 742 739 707 q 721 800 739 771 q 660 848 703 829 q 546 867 618 867 q 387 833 460 867 q 271 724 314 799 q 228 531 228 650 l 231 -3 l 111 -3 l 111 540 q 149 741 111 657 q 250 879 186 825 q 395 959 314 933 q 564 985 476 985 q 723 958 656 985 q 827 882 790 931 q 864 767 864 833 q 847 678 864 714 q 803 619 829 643 q 750 576 776 594 q 706 543 724 558 q 689 508 689 528 q 715 472 689 485 q 778 445 740 458 q 853 411 815 432 q 916 353 890 390 q 942 253 942 315 q 897 113 942 174 q 771 18 851 53 q 586 -17 690 -17 z "},"Δ":{"ha":833,"x_min":25,"x_max":807,"o":"m 25 0 l 417 1111 l 807 0 l 25 0 m 192 106 l 642 106 l 417 806 l 192 106 z "},"Ω":{"ha":833,"x_min":92,"x_max":740,"o":"m 92 0 l 92 94 l 213 94 q 150 203 176 144 q 110 322 124 261 q 96 440 96 383 q 138 612 96 536 q 253 732 181 688 q 417 776 325 776 q 581 732 508 776 q 694 612 653 688 q 736 440 736 536 q 722 322 736 383 q 682 203 708 261 q 619 94 656 144 l 740 94 l 740 0 l 472 0 l 472 108 q 544 193 513 140 q 593 308 575 246 q 611 432 611 371 q 589 551 611 503 q 524 623 567 599 q 417 647 481 647 q 309 623 353 647 q 242 551 265 599 q 219 432 219 503 q 238 309 219 372 q 289 193 257 246 q 360 108 321 140 l 360 0 l 92 0 z "},"А":{"ha":917,"x_min":7,"x_max":910,"o":"m 204 292 l 718 292 l 676 403 l 246 403 l 204 292 m 458 753 l 625 361 l 636 333 l 778 0 l 910 0 l 458 1021 l 7 0 l 139 0 l 283 342 l 294 367 l 458 753 z "},"Б":{"ha":761,"x_min":111,"x_max":706,"o":"m 176 472 l 375 472 q 485 452 438 472 q 560 392 533 432 q 588 292 588 351 q 560 192 588 232 q 485 131 533 151 q 375 111 438 111 l 176 111 l 176 0 l 375 0 q 544 35 469 0 q 662 137 618 71 q 706 292 706 203 q 662 447 706 382 q 544 548 618 513 q 375 583 469 583 l 176 583 l 176 472 m 111 972 l 111 0 l 229 0 l 229 861 l 632 861 l 632 972 l 111 972 z "},"В":{"ha":775,"x_min":111,"x_max":706,"o":"m 204 514 l 361 514 q 513 539 449 514 q 614 613 578 564 q 650 729 650 661 q 614 866 650 813 q 513 946 578 919 q 361 972 449 972 l 111 972 l 111 0 l 375 0 q 544 31 469 0 q 662 126 618 63 q 706 285 706 189 q 681 400 706 351 q 610 480 656 449 q 506 526 565 511 q 375 542 446 542 l 204 542 l 204 476 l 375 476 q 461 465 422 476 q 528 429 500 453 q 572 371 557 406 q 588 292 588 336 q 560 190 588 232 q 485 126 533 149 q 375 104 438 104 l 229 104 l 229 868 l 361 868 q 483 830 435 868 q 532 722 532 792 q 510 644 532 676 q 449 596 488 613 q 361 579 410 579 l 204 579 l 204 514 z "},"Г":{"ha":604,"x_min":111,"x_max":590,"o":"m 111 972 l 111 0 l 229 0 l 229 861 l 590 861 l 590 972 l 111 972 z "},"Ѓ":{"ha":604,"x_min":111,"x_max":601,"o":"m 111 972 l 111 0 l 229 0 l 229 861 l 590 861 l 590 972 l 111 972 m 601 1278 l 497 1333 l 289 1111 l 351 1069 l 601 1278 z "},"Д":{"ha":1104,"x_min":56,"x_max":1042,"o":"m 549 753 l 819 42 l 944 42 l 549 1021 l 153 42 l 278 42 l 549 753 m 938 0 l 938 -153 l 1042 -153 l 1042 111 l 56 111 l 56 -153 l 160 -153 l 160 0 l 938 0 z "},"Е":{"ha":764,"x_min":111,"x_max":667,"o":"m 176 0 l 667 0 l 667 111 l 176 111 l 176 0 m 176 861 l 667 861 l 667 972 l 176 972 l 176 861 m 176 472 l 639 472 l 639 583 l 176 583 l 176 472 m 111 972 l 111 0 l 229 0 l 229 972 l 111 972 z "},"Ѐ":{"ha":764,"x_min":111,"x_max":667,"o":"m 176 0 l 667 0 l 667 111 l 176 111 l 176 0 m 176 861 l 667 861 l 667 972 l 176 972 l 176 861 m 176 472 l 639 472 l 639 583 l 176 583 l 176 472 m 111 972 l 111 0 l 229 0 l 229 972 l 111 972 m 139 1278 l 389 1069 l 451 1111 l 243 1333 l 139 1278 z "},"Ё":{"ha":764,"x_min":111,"x_max":667,"o":"m 176 0 l 667 0 l 667 111 l 176 111 l 176 0 m 176 861 l 667 861 l 667 972 l 176 972 l 176 861 m 176 472 l 639 472 l 639 583 l 176 583 l 176 472 m 111 972 l 111 0 l 229 0 l 229 972 l 111 972 m 451 1146 q 474 1092 451 1115 q 528 1069 497 1069 q 582 1092 560 1069 q 604 1146 604 1115 q 582 1200 604 1178 q 528 1222 560 1222 q 474 1200 497 1222 q 451 1146 451 1178 m 174 1146 q 197 1092 174 1115 q 250 1069 219 1069 q 304 1092 282 1069 q 326 1146 326 1115 q 304 1200 326 1178 q 250 1222 282 1222 q 197 1200 219 1222 q 174 1146 174 1178 z "},"Ж":{"ha":1243,"x_min":7,"x_max":1236,"o":"m 174 972 l 28 972 l 449 517 l 7 0 l 153 0 l 592 514 l 174 972 m 569 972 l 569 0 l 688 0 l 688 972 l 569 972 m 1069 972 l 665 514 l 1090 0 l 1236 0 l 794 517 l 1215 972 l 1069 972 z "},"З":{"ha":842,"x_min":83,"x_max":779,"o":"m 393 479 q 540 499 474 479 q 653 552 606 518 q 726 631 700 586 q 751 728 751 676 q 714 856 751 797 q 607 950 676 914 q 440 986 538 986 q 276 953 347 986 q 165 864 204 921 q 125 731 125 807 l 238 731 q 264 807 238 774 q 337 860 290 840 q 442 879 383 879 q 547 860 504 879 q 610 805 589 840 q 631 724 631 769 q 603 640 631 678 q 522 578 575 601 q 393 556 469 556 l 393 479 m 435 -14 q 620 19 543 -14 q 738 114 697 53 q 779 257 779 175 q 728 413 779 354 q 589 500 676 472 q 393 528 501 528 l 393 451 q 529 431 469 451 q 624 371 589 411 q 658 271 658 331 q 604 144 658 192 q 435 97 550 97 q 309 118 358 97 q 234 175 260 139 q 203 257 208 211 l 83 257 q 106 151 83 200 q 174 65 129 101 q 283 7 218 28 q 435 -14 349 -14 z "},"И":{"ha":1076,"x_min":111,"x_max":965,"o":"m 958 840 l 965 1021 l 118 132 l 111 -49 l 958 840 m 229 972 l 111 972 l 111 -49 l 229 104 l 229 972 m 965 1021 l 847 868 l 847 0 l 965 0 l 965 1021 z "},"Ѝ":{"ha":1076,"x_min":111,"x_max":965,"o":"m 958 840 l 965 1021 l 118 132 l 111 -49 l 958 840 m 229 972 l 111 972 l 111 -49 l 229 104 l 229 972 m 965 1021 l 847 868 l 847 0 l 965 0 l 965 1021 m 354 1243 l 604 1035 l 667 1076 l 458 1299 l 354 1243 z "},"Й":{"ha":1076,"x_min":111,"x_max":965,"o":"m 958 840 l 965 1021 l 118 132 l 111 -49 l 958 840 m 229 972 l 111 972 l 111 -49 l 229 104 l 229 972 m 965 1021 l 847 868 l 847 0 l 965 0 l 965 1021 m 357 1257 q 381 1165 357 1210 q 455 1091 406 1119 q 576 1063 504 1063 q 699 1091 650 1063 q 772 1165 747 1119 q 796 1257 796 1210 l 697 1257 q 688 1215 697 1239 q 651 1172 678 1190 q 576 1153 625 1153 q 501 1172 528 1153 q 465 1215 475 1190 q 456 1257 456 1239 l 357 1257 z "},"К":{"ha":785,"x_min":111,"x_max":778,"o":"m 111 972 l 111 0 l 229 0 l 229 972 l 111 972 m 611 972 l 193 514 l 632 0 l 778 0 l 336 517 l 757 972 l 611 972 z "},"Ќ":{"ha":785,"x_min":111,"x_max":778,"o":"m 111 972 l 111 0 l 229 0 l 229 972 l 111 972 m 611 972 l 193 514 l 632 0 l 778 0 l 336 517 l 757 972 l 611 972 m 685 1278 l 581 1333 l 372 1111 l 435 1069 l 685 1278 z "},"Л":{"ha":914,"x_min":14,"x_max":803,"o":"m 803 972 l 143 972 l 143 361 q 135 258 143 306 q 110 176 126 211 q 69 121 93 140 q 14 101 46 101 l 14 0 q 147 46 93 0 q 227 168 200 92 q 254 333 254 244 l 254 861 l 685 861 l 685 0 l 803 0 l 803 972 z "},"М":{"ha":1125,"x_min":56,"x_max":1069,"o":"m 246 657 l 563 90 l 879 657 l 951 0 l 1069 0 l 951 1021 l 563 317 l 174 1021 l 56 0 l 174 0 l 246 657 z "},"Н":{"ha":993,"x_min":111,"x_max":882,"o":"m 176 472 l 843 472 l 843 583 l 176 583 l 176 472 m 764 972 l 764 0 l 882 0 l 882 972 l 764 972 m 111 972 l 111 0 l 229 0 l 229 972 l 111 972 z "},"О":{"ha":1097,"x_min":56,"x_max":1042,"o":"m 181 486 q 228 682 181 596 q 360 818 276 768 q 549 868 443 868 q 738 818 656 868 q 869 682 821 768 q 917 486 917 596 q 869 290 917 376 q 738 154 821 204 q 549 104 656 104 q 360 154 443 104 q 228 290 276 204 q 181 486 181 376 m 56 486 q 92 289 56 381 q 196 130 129 197 q 353 24 263 63 q 549 -14 443 -14 q 745 24 656 -14 q 901 130 835 63 q 1005 289 968 197 q 1042 486 1042 381 q 1005 684 1042 593 q 901 842 968 775 q 745 948 835 910 q 549 986 656 986 q 353 948 443 986 q 196 842 263 910 q 92 684 129 775 q 56 486 56 593 z "},"П":{"ha":993,"x_min":111,"x_max":882,"o":"m 764 861 l 764 0 l 882 0 l 882 972 l 111 972 l 111 0 l 229 0 l 229 861 l 764 861 z "},"Р":{"ha":761,"x_min":111,"x_max":706,"o":"m 111 972 l 111 0 l 229 0 l 229 972 l 111 972 m 176 861 l 375 861 q 528 816 469 861 q 588 681 588 771 q 528 546 588 592 q 375 500 469 500 l 176 500 l 176 389 l 375 389 q 544 424 469 389 q 662 526 618 460 q 706 681 706 592 q 662 836 706 771 q 544 937 618 901 q 375 972 469 972 l 176 972 l 176 861 z "},"С":{"ha":951,"x_min":56,"x_max":854,"o":"m 181 486 q 231 685 181 600 q 364 819 282 771 q 542 868 446 868 q 669 850 611 868 q 774 799 726 832 q 854 724 821 767 l 854 879 q 721 960 793 933 q 542 986 649 986 q 352 949 440 986 q 197 845 264 913 q 93 686 131 778 q 56 486 56 594 q 93 286 56 378 q 197 127 131 194 q 352 23 264 60 q 542 -14 440 -14 q 721 13 649 -14 q 854 93 793 39 l 854 249 q 774 173 821 206 q 669 122 726 140 q 542 104 611 104 q 364 153 446 104 q 231 288 282 201 q 181 486 181 374 z "},"Т":{"ha":646,"x_min":14,"x_max":632,"o":"m 14 861 l 264 861 l 264 0 l 382 0 l 382 861 l 632 861 l 632 972 l 14 972 l 14 861 z "},"У":{"ha":785,"x_min":0,"x_max":785,"o":"m 785 972 l 653 972 l 358 325 l 432 319 l 146 972 l 0 972 l 321 288 l 196 0 l 328 0 l 785 972 z "},"Ў":{"ha":785,"x_min":0,"x_max":785,"o":"m 785 972 l 653 972 l 358 325 l 432 319 l 146 972 l 0 972 l 321 288 l 196 0 l 328 0 l 785 972 m 176 1264 q 201 1172 176 1217 q 274 1098 225 1126 q 396 1069 324 1069 q 518 1098 469 1069 q 591 1172 567 1126 q 615 1264 615 1217 l 517 1264 q 507 1222 517 1246 q 471 1178 497 1197 q 396 1160 444 1160 q 321 1178 347 1160 q 285 1222 294 1197 q 275 1264 275 1246 l 176 1264 z "},"Ф":{"ha":1088,"x_min":56,"x_max":1032,"o":"m 485 972 l 485 0 l 603 0 l 603 972 l 485 972 m 914 486 q 872 344 914 401 q 757 258 831 286 q 588 229 683 229 l 500 229 q 331 258 404 229 q 215 344 257 286 q 174 486 174 401 q 215 629 174 572 q 331 715 257 686 q 500 743 404 743 l 588 743 q 757 715 683 743 q 872 629 831 686 q 914 486 914 572 m 1032 486 q 974 688 1032 604 q 816 816 917 771 q 588 861 715 861 l 500 861 q 272 816 372 861 q 113 688 171 771 q 56 486 56 604 q 113 285 56 369 q 272 156 171 201 q 500 111 372 111 l 588 111 q 816 156 715 111 q 974 285 917 201 q 1032 486 1032 369 z "},"Х":{"ha":771,"x_min":14,"x_max":757,"o":"m 597 972 l 390 613 l 188 972 l 49 972 l 331 510 l 14 0 l 153 0 l 389 407 l 618 0 l 757 0 l 449 510 l 736 972 l 597 972 z "},"Ц":{"ha":1056,"x_min":111,"x_max":1000,"o":"m 229 111 l 229 972 l 111 972 l 111 0 l 896 0 l 896 -153 l 1000 -153 l 1000 111 l 882 111 l 882 972 l 764 972 l 764 111 l 229 111 z "},"Ч":{"ha":854,"x_min":111,"x_max":743,"o":"m 403 389 l 704 389 l 704 493 l 403 493 l 403 389 m 625 972 l 625 0 l 743 0 l 743 972 l 625 972 m 222 972 l 111 972 l 111 719 q 144 551 111 626 q 242 433 176 476 q 403 389 307 389 l 403 493 q 303 524 343 493 q 242 606 263 554 q 222 719 222 657 l 222 972 z "},"Ш":{"ha":1368,"x_min":111,"x_max":1257,"o":"m 1139 111 l 743 111 l 743 972 l 625 972 l 625 111 l 229 111 l 229 972 l 111 972 l 111 0 l 1257 0 l 1257 972 l 1139 972 l 1139 111 z "},"Щ":{"ha":1431,"x_min":111,"x_max":1375,"o":"m 1139 111 l 743 111 l 743 972 l 625 972 l 625 111 l 229 111 l 229 972 l 111 972 l 111 0 l 1271 0 l 1271 -153 l 1375 -153 l 1375 111 l 1257 111 l 1257 972 l 1139 972 l 1139 111 z "},"Ъ":{"ha":914,"x_min":14,"x_max":858,"o":"m 329 472 l 528 472 q 638 452 590 472 q 713 392 686 432 q 740 292 740 351 q 713 192 740 232 q 638 131 686 151 q 528 111 590 111 l 329 111 l 329 0 l 528 0 q 697 35 622 0 q 815 137 771 71 q 858 292 858 203 q 815 447 858 382 q 697 548 771 513 q 528 583 622 583 l 329 583 l 329 472 m 264 861 l 264 0 l 382 0 l 382 972 l 14 972 l 14 861 l 264 861 z "},"Ы":{"ha":1063,"x_min":111,"x_max":951,"o":"m 833 972 l 833 0 l 951 0 l 951 972 l 833 972 m 111 972 l 111 0 l 229 0 l 229 972 l 111 972 m 176 472 l 375 472 q 485 452 438 472 q 560 392 533 432 q 588 292 588 351 q 560 192 588 232 q 485 131 533 151 q 375 111 438 111 l 176 111 l 176 0 l 375 0 q 544 35 469 0 q 662 137 618 71 q 706 292 706 203 q 662 447 706 382 q 544 548 618 513 q 375 583 469 583 l 176 583 l 176 472 z "},"Ь":{"ha":761,"x_min":111,"x_max":706,"o":"m 111 972 l 111 0 l 229 0 l 229 972 l 111 972 m 176 472 l 375 472 q 485 452 438 472 q 560 392 533 432 q 588 292 588 351 q 560 192 588 232 q 485 131 533 151 q 375 111 438 111 l 176 111 l 176 0 l 375 0 q 544 35 469 0 q 662 137 618 71 q 706 292 706 203 q 662 447 706 382 q 544 548 618 513 q 375 583 469 583 l 176 583 l 176 472 z "},"Э":{"ha":951,"x_min":97,"x_max":896,"o":"m 183 431 l 771 431 l 771 542 l 183 542 l 183 431 m 771 486 q 721 288 771 374 q 588 153 671 201 q 410 104 506 104 q 283 122 342 104 q 178 173 225 140 q 97 249 132 206 l 97 93 q 231 13 158 39 q 410 -14 304 -14 q 599 23 511 -14 q 754 127 688 60 q 858 286 821 194 q 896 486 896 378 q 858 686 896 594 q 754 845 821 778 q 599 949 688 913 q 410 986 511 986 q 231 960 304 986 q 97 879 158 933 l 97 724 q 178 799 132 767 q 283 850 225 832 q 410 868 342 868 q 588 819 506 868 q 721 685 671 771 q 771 486 771 600 z "},"Ю":{"ha":1431,"x_min":111,"x_max":1375,"o":"m 176 472 l 482 472 l 482 583 l 176 583 l 176 472 m 111 972 l 111 0 l 229 0 l 229 972 l 111 972 m 514 486 q 562 682 514 596 q 693 818 610 768 q 882 868 776 868 q 1072 818 989 868 q 1202 682 1154 768 q 1250 486 1250 596 q 1202 290 1250 376 q 1072 154 1154 204 q 882 104 989 104 q 693 154 776 104 q 562 290 610 204 q 514 486 514 376 m 389 486 q 426 289 389 381 q 529 130 463 197 q 686 24 596 63 q 882 -14 776 -14 q 1078 24 989 -14 q 1235 130 1168 63 q 1338 289 1301 197 q 1375 486 1375 381 q 1338 684 1375 593 q 1235 842 1301 775 q 1078 948 1168 910 q 882 986 989 986 q 686 948 776 986 q 529 842 596 910 q 426 684 463 775 q 389 486 389 593 z "},"Я":{"ha":778,"x_min":14,"x_max":667,"o":"m 493 479 l 361 479 l 14 0 l 160 0 l 493 479 m 667 972 l 549 972 l 549 0 l 667 0 l 667 972 m 601 868 l 601 972 l 403 972 q 235 937 310 972 q 116 836 160 901 q 72 681 72 771 q 116 526 72 592 q 235 424 160 460 q 403 389 310 389 l 601 389 l 601 493 l 403 493 q 292 515 340 493 q 217 579 244 538 q 190 681 190 621 q 217 782 190 740 q 292 846 244 824 q 403 868 340 868 l 601 868 z "},"a":{"ha":668,"x_min":42,"x_max":585,"o":"m 154 197 q 171 257 154 232 q 222 296 188 282 q 310 310 256 310 q 419 295 368 310 q 519 247 471 281 l 519 313 q 482 345 510 325 q 408 381 454 365 q 292 397 361 397 q 108 341 174 397 q 42 192 42 285 q 72 81 42 126 q 153 10 103 35 q 263 -14 204 -14 q 369 6 315 -14 q 459 65 422 25 q 496 167 496 106 l 474 250 q 449 162 474 200 q 384 103 425 124 q 292 82 343 82 q 220 95 251 82 q 172 135 189 108 q 154 197 154 161 m 138 492 q 179 518 153 503 q 244 544 206 533 q 329 556 282 556 q 385 550 358 556 q 431 532 411 544 q 463 498 451 519 q 474 443 474 476 l 474 0 l 585 0 l 585 458 q 553 564 585 521 q 466 630 522 607 q 335 653 410 653 q 183 626 246 653 q 83 574 119 600 l 138 492 z "},"à":{"ha":674,"x_min":42,"x_max":590,"o":"m 154 188 q 172 254 154 226 q 227 297 190 282 q 319 313 264 313 q 429 297 381 313 q 525 247 478 281 l 525 313 q 489 345 515 325 q 419 381 463 365 q 314 397 375 397 q 176 372 238 397 q 78 298 114 347 q 42 174 42 249 q 69 74 42 115 q 146 9 96 32 q 261 -14 196 -14 q 382 9 328 -14 q 469 76 436 32 q 501 181 501 119 l 479 250 q 455 154 479 190 q 388 101 431 118 q 289 85 344 85 q 215 97 244 85 q 169 131 185 108 q 154 188 154 154 m 154 489 q 197 516 169 500 q 261 544 224 532 q 344 556 299 556 q 438 531 397 556 q 479 458 479 507 l 479 0 l 590 0 l 590 458 q 559 564 590 521 q 473 630 528 607 q 344 653 418 653 q 197 626 258 653 q 100 574 136 600 l 154 489 m 122 944 l 372 736 l 435 778 l 226 1000 l 122 944 z "},"á":{"ha":674,"x_min":42,"x_max":590,"o":"m 154 188 q 172 254 154 226 q 227 297 190 282 q 319 313 264 313 q 429 297 381 313 q 525 247 478 281 l 525 313 q 489 345 515 325 q 419 381 463 365 q 314 397 375 397 q 176 372 238 397 q 78 298 114 347 q 42 174 42 249 q 69 74 42 115 q 146 9 96 32 q 261 -14 196 -14 q 382 9 328 -14 q 469 76 436 32 q 501 181 501 119 l 479 250 q 455 154 479 190 q 388 101 431 118 q 289 85 344 85 q 215 97 244 85 q 169 131 185 108 q 154 188 154 154 m 154 489 q 197 516 169 500 q 261 544 224 532 q 344 556 299 556 q 438 531 397 556 q 479 458 479 507 l 479 0 l 590 0 l 590 458 q 559 564 590 521 q 473 630 528 607 q 344 653 418 653 q 197 626 258 653 q 100 574 136 600 l 154 489 m 567 944 l 463 1000 l 254 778 l 317 736 l 567 944 z "},"â":{"ha":674,"x_min":42,"x_max":590,"o":"m 154 188 q 172 254 154 226 q 227 297 190 282 q 319 313 264 313 q 429 297 381 313 q 525 247 478 281 l 525 313 q 489 345 515 325 q 419 381 463 365 q 314 397 375 397 q 176 372 238 397 q 78 298 114 347 q 42 174 42 249 q 69 74 42 115 q 146 9 96 32 q 261 -14 196 -14 q 382 9 328 -14 q 469 76 436 32 q 501 181 501 119 l 479 250 q 455 154 479 190 q 388 101 431 118 q 289 85 344 85 q 215 97 244 85 q 169 131 185 108 q 154 188 154 154 m 154 489 q 197 516 169 500 q 261 544 224 532 q 344 556 299 556 q 438 531 397 556 q 479 458 479 507 l 479 0 l 590 0 l 590 458 q 559 564 590 521 q 473 630 528 607 q 344 653 418 653 q 197 626 258 653 q 100 574 136 600 l 154 489 m 344 868 l 497 736 l 567 792 l 344 986 l 122 792 l 192 736 l 344 868 z "},"ã":{"ha":674,"x_min":42,"x_max":590,"o":"m 154 188 q 172 254 154 226 q 227 297 190 282 q 319 313 264 313 q 429 297 381 313 q 525 247 478 281 l 525 313 q 489 345 515 325 q 419 381 463 365 q 314 397 375 397 q 176 372 238 397 q 78 298 114 347 q 42 174 42 249 q 69 74 42 115 q 146 9 96 32 q 261 -14 196 -14 q 382 9 328 -14 q 469 76 436 32 q 501 181 501 119 l 479 250 q 455 154 479 190 q 388 101 431 118 q 289 85 344 85 q 215 97 244 85 q 169 131 185 108 q 154 188 154 154 m 154 489 q 197 516 169 500 q 261 544 224 532 q 344 556 299 556 q 438 531 397 556 q 479 458 479 507 l 479 0 l 590 0 l 590 458 q 559 564 590 521 q 473 630 528 607 q 344 653 418 653 q 197 626 258 653 q 100 574 136 600 l 154 489 m 115 788 l 189 736 q 194 764 189 747 q 215 794 200 781 q 258 807 231 807 q 313 791 290 807 q 363 758 336 775 q 426 742 389 742 q 490 756 461 742 q 541 794 519 771 q 574 843 563 818 l 510 903 q 470 853 489 869 q 432 836 451 836 q 386 846 404 836 q 352 869 368 856 q 315 892 336 882 q 260 901 293 901 q 198 887 229 901 q 144 847 167 872 q 115 788 122 822 z "},"ä":{"ha":674,"x_min":42,"x_max":590,"o":"m 154 188 q 172 254 154 226 q 227 297 190 282 q 319 313 264 313 q 429 297 381 313 q 525 247 478 281 l 525 313 q 489 345 515 325 q 419 381 463 365 q 314 397 375 397 q 176 372 238 397 q 78 298 114 347 q 42 174 42 249 q 69 74 42 115 q 146 9 96 32 q 261 -14 196 -14 q 382 9 328 -14 q 469 76 436 32 q 501 181 501 119 l 479 250 q 455 154 479 190 q 388 101 431 118 q 289 85 344 85 q 215 97 244 85 q 169 131 185 108 q 154 188 154 154 m 154 489 q 197 516 169 500 q 261 544 224 532 q 344 556 299 556 q 438 531 397 556 q 479 458 479 507 l 479 0 l 590 0 l 590 458 q 559 564 590 521 q 473 630 528 607 q 344 653 418 653 q 197 626 258 653 q 100 574 136 600 l 154 489 m 407 813 q 430 759 407 782 q 483 736 453 736 q 538 759 515 736 q 560 813 560 782 q 538 867 560 844 q 483 889 515 889 q 430 867 453 889 q 407 813 407 844 m 129 813 q 152 759 129 782 q 206 736 175 736 q 260 759 238 736 q 282 813 282 782 q 260 867 282 844 q 206 889 238 889 q 152 867 175 889 q 129 813 129 844 z "},"å":{"ha":674,"x_min":42,"x_max":590,"o":"m 154 188 q 172 254 154 226 q 227 297 190 282 q 319 313 264 313 q 429 297 381 313 q 525 247 478 281 l 525 313 q 489 345 515 325 q 419 381 463 365 q 314 397 375 397 q 176 372 238 397 q 78 298 114 347 q 42 174 42 249 q 69 74 42 115 q 146 9 96 32 q 261 -14 196 -14 q 382 9 328 -14 q 469 76 436 32 q 501 181 501 119 l 479 250 q 455 154 479 190 q 388 101 431 118 q 289 85 344 85 q 215 97 244 85 q 169 131 185 108 q 154 188 154 154 m 154 489 q 197 516 169 500 q 261 544 224 532 q 344 556 299 556 q 438 531 397 556 q 479 458 479 507 l 479 0 l 590 0 l 590 458 q 559 564 590 521 q 473 630 528 607 q 344 653 418 653 q 197 626 258 653 q 100 574 136 600 l 154 489 m 203 875 q 247 774 203 813 q 344 736 290 736 q 442 774 399 736 q 486 875 486 813 q 442 976 486 938 q 344 1014 399 1014 q 247 976 290 1014 q 203 875 203 938 m 274 875 q 296 929 274 910 q 344 949 318 949 q 393 929 371 949 q 415 875 415 910 q 393 821 415 840 q 344 801 371 801 q 296 821 318 801 q 274 875 274 840 z "},"ā":{"ha":674,"x_min":42,"x_max":590,"o":"m 154 188 q 172 254 154 226 q 227 297 190 282 q 319 313 264 313 q 429 297 381 313 q 525 247 478 281 l 525 313 q 489 345 515 325 q 419 381 463 365 q 314 397 375 397 q 176 372 238 397 q 78 298 114 347 q 42 174 42 249 q 69 74 42 115 q 146 9 96 32 q 261 -14 196 -14 q 382 9 328 -14 q 469 76 436 32 q 501 181 501 119 l 479 250 q 455 154 479 190 q 388 101 431 118 q 289 85 344 85 q 215 97 244 85 q 169 131 185 108 q 154 188 154 154 m 154 489 q 197 516 169 500 q 261 544 224 532 q 344 556 299 556 q 438 531 397 556 q 479 458 479 507 l 479 0 l 590 0 l 590 458 q 559 564 590 521 q 473 630 528 607 q 344 653 418 653 q 197 626 258 653 q 100 574 136 600 l 154 489 m 101 764 l 588 764 l 588 868 l 101 868 l 101 764 z "},"ă":{"ha":674,"x_min":42,"x_max":590,"o":"m 154 188 q 172 254 154 226 q 227 297 190 282 q 319 313 264 313 q 429 297 381 313 q 525 247 478 281 l 525 313 q 489 345 515 325 q 419 381 463 365 q 314 397 375 397 q 176 372 238 397 q 78 298 114 347 q 42 174 42 249 q 69 74 42 115 q 146 9 96 32 q 261 -14 196 -14 q 382 9 328 -14 q 469 76 436 32 q 501 181 501 119 l 479 250 q 455 154 479 190 q 388 101 431 118 q 289 85 344 85 q 215 97 244 85 q 169 131 185 108 q 154 188 154 154 m 154 489 q 197 516 169 500 q 261 544 224 532 q 344 556 299 556 q 438 531 397 556 q 479 458 479 507 l 479 0 l 590 0 l 590 458 q 559 564 590 521 q 473 630 528 607 q 344 653 418 653 q 197 626 258 653 q 100 574 136 600 l 154 489 m 125 931 q 149 838 125 883 q 223 765 174 793 q 344 736 272 736 q 467 765 418 736 q 540 838 515 793 q 564 931 564 883 l 465 931 q 456 888 465 913 q 419 845 446 864 q 344 826 393 826 q 269 845 296 826 q 233 888 243 864 q 224 931 224 913 l 125 931 z "},"ą":{"ha":674,"x_min":42,"x_max":643,"o":"m 154 188 q 172 254 154 226 q 227 297 190 282 q 319 313 264 313 q 429 297 381 313 q 525 247 478 281 l 525 313 q 489 345 515 325 q 419 381 463 365 q 314 397 375 397 q 169 372 231 397 q 75 299 108 346 q 42 183 42 251 q 72 74 42 118 q 151 8 101 31 q 261 -14 201 -14 q 382 9 328 -14 q 469 76 436 32 q 501 181 501 119 l 479 250 q 455 154 479 190 q 388 101 431 118 q 289 85 344 85 q 221 97 251 85 q 172 131 190 108 q 154 188 154 154 m 154 489 q 197 516 169 500 q 261 544 224 532 q 344 556 299 556 q 438 531 397 556 q 479 458 479 507 l 479 0 l 590 0 l 590 458 q 559 564 590 521 q 473 630 528 607 q 344 653 418 653 q 197 626 258 653 q 100 574 136 600 l 154 489 m 597 -181 q 569 -201 583 -194 q 528 -208 556 -208 q 479 -192 497 -208 q 461 -139 461 -176 q 478 -87 461 -112 q 525 -38 496 -61 q 590 0 554 -15 l 533 35 q 443 -22 485 10 q 376 -89 401 -53 q 350 -167 350 -125 q 369 -239 350 -207 q 425 -288 388 -271 q 521 -306 463 -306 q 597 -288 565 -306 q 643 -250 628 -271 l 597 -181 z "},"b":{"ha":792,"x_min":97,"x_max":743,"o":"m 208 1083 l 97 1083 l 97 0 l 208 0 l 208 1083 m 743 319 q 700 498 743 424 q 585 613 657 572 q 426 653 514 653 q 287 613 347 653 q 192 498 226 572 q 158 319 158 424 q 192 142 158 217 q 287 26 226 67 q 426 -14 347 -14 q 585 26 514 -14 q 700 142 657 67 q 743 319 743 217 m 631 319 q 601 194 631 246 q 522 117 571 143 q 413 90 472 90 q 317 117 364 90 q 239 194 269 143 q 208 319 208 246 q 239 444 208 393 q 317 522 269 496 q 413 549 364 549 q 522 522 472 549 q 601 444 571 496 q 631 319 631 393 z "},"c":{"ha":664,"x_min":42,"x_max":594,"o":"m 154 319 q 183 438 154 386 q 260 519 211 490 q 372 549 310 549 q 469 533 424 549 q 547 490 514 517 q 594 432 581 464 l 594 571 q 499 631 561 610 q 372 653 438 653 q 204 610 279 653 q 85 492 129 567 q 42 319 42 417 q 85 148 42 224 q 204 29 129 72 q 372 -14 279 -14 q 499 8 438 -14 q 594 68 561 29 l 594 207 q 547 149 581 176 q 469 106 514 122 q 372 90 424 90 q 260 120 310 90 q 183 201 211 150 q 154 319 154 253 z "},"ç":{"ha":664,"x_min":42,"x_max":594,"o":"m 154 319 q 183 438 154 386 q 260 519 211 490 q 372 549 310 549 q 469 533 424 549 q 547 490 514 517 q 594 432 581 464 l 594 571 q 499 631 561 610 q 372 653 438 653 q 204 610 279 653 q 85 492 129 567 q 42 319 42 417 q 85 148 42 224 q 204 29 129 72 q 372 -14 279 -14 q 499 8 438 -14 q 594 68 561 29 l 594 207 q 547 149 581 176 q 469 106 514 122 q 372 90 424 90 q 260 120 310 90 q 183 201 211 150 q 154 319 154 253 m 358 82 l 239 -151 q 285 -131 261 -136 q 319 -126 310 -126 q 372 -139 356 -126 q 389 -176 389 -151 q 372 -217 389 -201 q 319 -232 356 -232 q 277 -224 293 -232 q 242 -199 261 -215 l 194 -254 q 252 -295 224 -283 q 319 -307 281 -307 q 392 -292 358 -307 q 446 -247 425 -276 q 467 -176 467 -218 q 451 -119 467 -142 q 413 -85 436 -97 q 367 -74 390 -74 q 360 -74 364 -74 q 354 -74 357 -74 l 442 82 l 358 82 z "},"ć":{"ha":664,"x_min":42,"x_max":594,"o":"m 154 319 q 183 438 154 386 q 260 519 211 490 q 372 549 310 549 q 469 533 424 549 q 547 490 514 517 q 594 432 581 464 l 594 571 q 499 631 561 610 q 372 653 438 653 q 204 610 279 653 q 85 492 129 567 q 42 319 42 417 q 85 148 42 224 q 204 29 129 72 q 372 -14 279 -14 q 499 8 438 -14 q 594 68 561 29 l 594 207 q 547 149 581 176 q 469 106 514 122 q 372 90 424 90 q 260 120 310 90 q 183 201 211 150 q 154 319 154 253 m 553 944 l 449 1000 l 240 778 l 303 736 l 553 944 z "},"ĉ":{"ha":664,"x_min":42,"x_max":594,"o":"m 154 319 q 183 438 154 386 q 260 519 211 490 q 372 549 310 549 q 469 533 424 549 q 547 490 514 517 q 594 432 581 464 l 594 571 q 499 631 561 610 q 372 653 438 653 q 204 610 279 653 q 85 492 129 567 q 42 319 42 417 q 85 148 42 224 q 204 29 129 72 q 372 -14 279 -14 q 499 8 438 -14 q 594 68 561 29 l 594 207 q 547 149 581 176 q 469 106 514 122 q 372 90 424 90 q 260 120 310 90 q 183 201 211 150 q 154 319 154 253 m 372 868 l 525 736 l 594 792 l 372 986 l 150 792 l 219 736 l 372 868 z "},"ċ":{"ha":664,"x_min":42,"x_max":594,"o":"m 154 319 q 183 438 154 386 q 260 519 211 490 q 372 549 310 549 q 469 533 424 549 q 547 490 514 517 q 594 432 581 464 l 594 571 q 499 631 561 610 q 372 653 438 653 q 204 610 279 653 q 85 492 129 567 q 42 319 42 417 q 85 148 42 224 q 204 29 129 72 q 372 -14 279 -14 q 499 8 438 -14 q 594 68 561 29 l 594 207 q 547 149 581 176 q 469 106 514 122 q 372 90 424 90 q 260 120 310 90 q 183 201 211 150 q 154 319 154 253 m 296 813 q 319 759 296 782 q 372 736 342 736 q 426 759 404 736 q 449 813 449 782 q 426 867 449 844 q 372 889 404 889 q 319 867 342 889 q 296 813 296 844 z "},"č":{"ha":664,"x_min":42,"x_max":594,"o":"m 154 319 q 183 438 154 386 q 260 519 211 490 q 372 549 310 549 q 469 533 424 549 q 547 490 514 517 q 594 432 581 464 l 594 571 q 499 631 561 610 q 372 653 438 653 q 204 610 279 653 q 85 492 129 567 q 42 319 42 417 q 85 148 42 224 q 204 29 129 72 q 372 -14 279 -14 q 499 8 438 -14 q 594 68 561 29 l 594 207 q 547 149 581 176 q 469 106 514 122 q 372 90 424 90 q 260 120 310 90 q 183 201 211 150 q 154 319 154 253 m 372 854 l 219 986 l 150 931 l 372 736 l 594 931 l 525 986 l 372 854 z "},"d":{"ha":792,"x_min":49,"x_max":694,"o":"m 583 1083 l 583 0 l 694 0 l 694 1083 l 583 1083 m 49 319 q 92 142 49 217 q 207 26 135 67 q 365 -14 279 -14 q 506 26 446 -14 q 599 142 565 67 q 633 319 633 217 q 599 498 633 424 q 506 613 565 572 q 365 653 446 653 q 207 613 279 653 q 92 498 135 572 q 49 319 49 424 m 161 319 q 191 444 161 393 q 271 522 221 496 q 379 549 321 549 q 475 522 428 549 q 553 444 522 496 q 583 319 583 393 q 553 194 583 246 q 475 117 522 143 q 379 90 428 90 q 271 117 321 90 q 191 194 221 143 q 161 319 161 246 z "},"ď":{"ha":792,"x_min":49,"x_max":969,"o":"m 583 1083 l 583 0 l 694 0 l 694 1083 l 583 1083 m 49 319 q 92 142 49 217 q 207 26 135 67 q 365 -14 279 -14 q 506 26 446 -14 q 599 142 565 67 q 633 319 633 217 q 599 498 633 424 q 506 613 565 572 q 365 653 446 653 q 207 613 279 653 q 92 498 135 572 q 49 319 49 424 m 161 319 q 191 444 161 393 q 271 522 221 496 q 379 549 321 549 q 475 522 428 549 q 553 444 522 496 q 583 319 583 393 q 553 194 583 246 q 475 117 522 143 q 379 90 428 90 q 271 117 321 90 q 191 194 221 143 q 161 319 161 246 m 858 1083 l 736 724 l 817 694 l 969 1042 l 858 1083 z "},"e":{"ha":715,"x_min":49,"x_max":667,"o":"m 351 -14 q 530 27 454 -14 q 656 149 606 68 l 565 206 q 481 119 531 147 q 365 90 431 90 q 254 118 300 90 q 185 199 208 146 q 161 326 161 251 q 187 451 163 400 q 256 528 211 501 q 365 556 301 556 q 460 532 419 556 q 523 467 500 508 q 546 368 546 425 q 542 344 546 358 q 533 322 538 329 l 578 386 l 119 386 l 119 292 l 665 292 q 666 305 665 294 q 667 325 667 315 q 631 500 667 426 q 527 613 594 574 q 365 653 460 653 q 199 611 271 653 q 88 494 128 569 q 49 319 49 419 q 87 146 49 221 q 194 28 125 71 q 351 -14 263 -14 z "},"è":{"ha":715,"x_min":49,"x_max":667,"o":"m 119 292 l 665 292 q 667 308 667 300 q 667 325 667 317 q 629 499 667 426 q 524 613 592 572 q 365 653 456 653 q 217 619 283 653 q 110 526 151 586 q 54 388 68 467 q 50 354 51 371 q 49 319 49 338 q 88 148 49 224 q 197 29 128 72 q 351 -14 265 -14 q 490 6 435 -14 q 585 63 546 26 q 656 149 624 100 l 565 206 q 515 145 544 171 q 449 105 486 119 q 365 90 413 90 q 257 117 303 90 q 186 194 211 143 q 161 319 161 246 l 164 361 q 191 465 164 421 q 264 532 218 508 q 365 556 310 556 q 459 534 421 556 q 519 474 497 513 q 546 386 540 436 l 119 386 l 119 292 m 171 958 l 421 750 l 483 792 l 275 1014 l 171 958 z "},"é":{"ha":715,"x_min":49,"x_max":667,"o":"m 119 292 l 665 292 q 667 308 667 300 q 667 325 667 317 q 629 499 667 426 q 524 613 592 572 q 365 653 456 653 q 217 619 283 653 q 110 526 151 586 q 54 388 68 467 q 50 354 51 371 q 49 319 49 338 q 88 148 49 224 q 197 29 128 72 q 351 -14 265 -14 q 490 6 435 -14 q 585 63 546 26 q 656 149 624 100 l 565 206 q 515 145 544 171 q 449 105 486 119 q 365 90 413 90 q 257 117 303 90 q 186 194 211 143 q 161 319 161 246 l 164 361 q 191 465 164 421 q 264 532 218 508 q 365 556 310 556 q 459 534 421 556 q 519 474 497 513 q 546 386 540 436 l 119 386 l 119 292 m 588 958 l 483 1014 l 275 792 l 338 750 l 588 958 z "},"ê":{"ha":715,"x_min":49,"x_max":667,"o":"m 119 292 l 665 292 q 667 308 667 300 q 667 325 667 317 q 629 499 667 426 q 524 613 592 572 q 365 653 456 653 q 217 619 283 653 q 110 526 151 586 q 54 388 68 467 q 50 354 51 371 q 49 319 49 338 q 88 148 49 224 q 197 29 128 72 q 351 -14 265 -14 q 490 6 435 -14 q 585 63 546 26 q 656 149 624 100 l 565 206 q 515 145 544 171 q 449 105 486 119 q 365 90 413 90 q 257 117 303 90 q 186 194 211 143 q 161 319 161 246 l 164 361 q 191 465 164 421 q 264 532 218 508 q 365 556 310 556 q 459 534 421 556 q 519 474 497 513 q 546 386 540 436 l 119 386 l 119 292 m 365 868 l 518 736 l 588 792 l 365 986 l 143 792 l 213 736 l 365 868 z "},"ë":{"ha":715,"x_min":49,"x_max":667,"o":"m 119 292 l 665 292 q 667 308 667 300 q 667 325 667 317 q 629 499 667 426 q 524 613 592 572 q 365 653 456 653 q 217 619 283 653 q 110 526 151 586 q 54 388 68 467 q 50 354 51 371 q 49 319 49 338 q 88 148 49 224 q 197 29 128 72 q 351 -14 265 -14 q 490 6 435 -14 q 585 63 546 26 q 656 149 624 100 l 565 206 q 515 145 544 171 q 449 105 486 119 q 365 90 413 90 q 257 117 303 90 q 186 194 211 143 q 161 319 161 246 l 164 361 q 191 465 164 421 q 264 532 218 508 q 365 556 310 556 q 459 534 421 556 q 519 474 497 513 q 546 386 540 436 l 119 386 l 119 292 m 428 813 q 451 759 428 782 q 504 736 474 736 q 558 759 536 736 q 581 813 581 782 q 558 867 581 844 q 504 889 536 889 q 451 867 474 889 q 428 813 428 844 m 150 813 q 173 759 150 782 q 226 736 196 736 q 281 759 258 736 q 303 813 303 782 q 281 867 303 844 q 226 889 258 889 q 173 867 196 889 q 150 813 150 844 z "},"ē":{"ha":715,"x_min":49,"x_max":667,"o":"m 119 292 l 665 292 q 667 308 667 300 q 667 325 667 317 q 629 499 667 426 q 524 613 592 572 q 365 653 456 653 q 217 619 283 653 q 110 526 151 586 q 54 388 68 467 q 50 354 51 371 q 49 319 49 338 q 88 148 49 224 q 197 29 128 72 q 351 -14 265 -14 q 490 6 435 -14 q 585 63 546 26 q 656 149 624 100 l 565 206 q 515 145 544 171 q 449 105 486 119 q 365 90 413 90 q 257 117 303 90 q 186 194 211 143 q 161 319 161 246 l 164 361 q 191 465 164 421 q 264 532 218 508 q 365 556 310 556 q 459 534 421 556 q 519 474 497 513 q 546 386 540 436 l 119 386 l 119 292 m 122 736 l 608 736 l 608 840 l 122 840 l 122 736 z "},"ĕ":{"ha":715,"x_min":49,"x_max":667,"o":"m 119 292 l 665 292 q 667 308 667 300 q 667 325 667 317 q 629 499 667 426 q 524 613 592 572 q 365 653 456 653 q 217 619 283 653 q 110 526 151 586 q 54 388 68 467 q 50 354 51 371 q 49 319 49 338 q 88 148 49 224 q 197 29 128 72 q 351 -14 265 -14 q 490 6 435 -14 q 585 63 546 26 q 656 149 624 100 l 565 206 q 515 145 544 171 q 449 105 486 119 q 365 90 413 90 q 257 117 303 90 q 186 194 211 143 q 161 319 161 246 l 164 361 q 191 465 164 421 q 264 532 218 508 q 365 556 310 556 q 459 534 421 556 q 519 474 497 513 q 546 386 540 436 l 119 386 l 119 292 m 146 931 q 170 838 146 883 q 244 765 194 793 q 365 736 293 736 q 488 765 439 736 q 560 838 536 793 q 585 931 585 883 l 486 931 q 476 888 486 913 q 440 845 467 864 q 365 826 414 826 q 290 845 317 826 q 254 888 264 864 q 244 931 244 913 l 146 931 z "},"ė":{"ha":715,"x_min":49,"x_max":667,"o":"m 119 292 l 665 292 q 667 308 667 300 q 667 325 667 317 q 629 499 667 426 q 524 613 592 572 q 365 653 456 653 q 217 619 283 653 q 110 526 151 586 q 54 388 68 467 q 50 354 51 371 q 49 319 49 338 q 88 148 49 224 q 197 29 128 72 q 351 -14 265 -14 q 490 6 435 -14 q 585 63 546 26 q 656 149 624 100 l 565 206 q 515 145 544 171 q 449 105 486 119 q 365 90 413 90 q 257 117 303 90 q 186 194 211 143 q 161 319 161 246 l 164 361 q 191 465 164 421 q 264 532 218 508 q 365 556 310 556 q 459 534 421 556 q 519 474 497 513 q 546 386 540 436 l 119 386 l 119 292 m 289 813 q 312 759 289 782 q 365 736 335 736 q 419 759 397 736 q 442 813 442 782 q 419 867 442 844 q 365 889 397 889 q 312 867 335 889 q 289 813 289 844 z "},"ę":{"ha":715,"x_min":49,"x_max":667,"o":"m 119 292 l 665 292 q 667 308 667 300 q 667 325 667 317 q 629 499 667 426 q 524 613 592 572 q 365 653 456 653 q 217 619 283 653 q 110 526 151 586 q 54 388 68 467 q 50 354 51 371 q 49 319 49 338 q 88 148 49 224 q 197 29 128 72 q 351 -14 265 -14 q 456 0 414 -14 q 531 37 499 14 q 592 89 563 60 q 656 149 621 118 l 565 206 q 515 145 544 171 q 449 105 486 119 q 365 90 413 90 q 257 117 303 90 q 186 194 211 143 q 161 319 161 246 l 164 361 q 191 465 164 421 q 264 532 218 508 q 365 556 310 556 q 459 534 421 556 q 519 474 497 513 q 546 386 540 436 l 119 386 l 119 292 m 617 -90 q 589 -111 603 -104 q 547 -118 575 -118 q 499 -103 517 -118 q 481 -62 481 -89 q 497 -14 481 -36 q 551 45 513 8 q 656 149 590 82 l 553 125 q 490 68 522 96 q 430 13 457 40 q 386 -42 403 -14 q 369 -101 369 -71 q 392 -167 369 -142 q 450 -204 414 -193 q 526 -215 486 -215 q 609 -198 571 -215 q 663 -160 647 -181 l 617 -90 z "},"ě":{"ha":715,"x_min":49,"x_max":667,"o":"m 119 292 l 665 292 q 667 308 667 300 q 667 325 667 317 q 629 499 667 426 q 524 613 592 572 q 365 653 456 653 q 217 619 283 653 q 110 526 151 586 q 54 388 68 467 q 50 354 51 371 q 49 319 49 338 q 88 148 49 224 q 197 29 128 72 q 351 -14 265 -14 q 490 6 435 -14 q 585 63 546 26 q 656 149 624 100 l 565 206 q 515 145 544 171 q 449 105 486 119 q 365 90 413 90 q 257 117 303 90 q 186 194 211 143 q 161 319 161 246 l 164 361 q 191 465 164 421 q 264 532 218 508 q 365 556 310 556 q 459 534 421 556 q 519 474 497 513 q 546 386 540 436 l 119 386 l 119 292 m 365 854 l 213 986 l 143 931 l 365 736 l 588 931 l 518 986 l 365 854 z "},"f":{"ha":397,"x_min":56,"x_max":425,"o":"m 56 639 l 56 535 l 375 535 l 375 639 l 56 639 m 364 950 l 425 1042 q 398 1068 415 1056 q 357 1089 381 1081 q 303 1097 333 1097 q 203 1073 244 1097 q 140 1000 163 1049 q 118 875 118 951 l 118 0 l 229 0 l 229 861 q 238 935 229 907 q 260 974 246 963 q 296 986 275 986 q 331 980 313 986 q 364 950 350 974 z "},"g":{"ha":792,"x_min":49,"x_max":694,"o":"m 61 -42 q 101 -187 61 -124 q 213 -285 142 -250 q 378 -319 285 -319 q 531 -282 458 -319 q 649 -170 603 -244 q 694 14 694 -96 l 694 639 l 583 639 l 583 14 q 552 -117 583 -67 q 474 -192 521 -168 q 378 -215 426 -215 q 269 -191 315 -215 q 199 -127 224 -167 q 174 -42 174 -87 l 61 -42 m 49 319 q 92 142 49 217 q 207 26 135 67 q 365 -14 279 -14 q 506 26 446 -14 q 599 142 565 67 q 633 319 633 217 q 599 498 633 424 q 506 613 565 572 q 365 653 446 653 q 207 613 279 653 q 92 498 135 572 q 49 319 49 424 m 161 319 q 191 444 161 393 q 271 522 221 496 q 379 549 321 549 q 451 533 415 549 q 517 489 488 518 q 565 417 547 460 q 583 319 583 375 q 553 194 583 246 q 475 117 522 143 q 379 90 428 90 q 271 117 321 90 q 191 194 221 143 q 161 319 161 246 z "},"ĝ":{"ha":792,"x_min":49,"x_max":694,"o":"m 61 -42 q 101 -187 61 -124 q 213 -285 142 -250 q 378 -319 285 -319 q 531 -282 458 -319 q 649 -170 603 -244 q 694 14 694 -96 l 694 639 l 583 639 l 583 14 q 552 -117 583 -67 q 474 -192 521 -168 q 378 -215 426 -215 q 269 -191 315 -215 q 199 -127 224 -167 q 174 -42 174 -87 l 61 -42 m 49 319 q 92 142 49 217 q 207 26 135 67 q 365 -14 279 -14 q 506 26 446 -14 q 599 142 565 67 q 633 319 633 217 q 599 498 633 424 q 506 613 565 572 q 365 653 446 653 q 207 613 279 653 q 92 498 135 572 q 49 319 49 424 m 161 319 q 191 444 161 393 q 271 522 221 496 q 379 549 321 549 q 451 533 415 549 q 517 489 488 518 q 565 417 547 460 q 583 319 583 375 q 553 194 583 246 q 475 117 522 143 q 379 90 428 90 q 271 117 321 90 q 191 194 221 143 q 161 319 161 246 m 365 868 l 518 736 l 588 792 l 365 986 l 143 792 l 213 736 l 365 868 z "},"ğ":{"ha":792,"x_min":49,"x_max":694,"o":"m 61 -42 q 101 -187 61 -124 q 213 -285 142 -250 q 378 -319 285 -319 q 531 -282 458 -319 q 649 -170 603 -244 q 694 14 694 -96 l 694 639 l 583 639 l 583 14 q 552 -117 583 -67 q 474 -192 521 -168 q 378 -215 426 -215 q 269 -191 315 -215 q 199 -127 224 -167 q 174 -42 174 -87 l 61 -42 m 49 319 q 92 142 49 217 q 207 26 135 67 q 365 -14 279 -14 q 506 26 446 -14 q 599 142 565 67 q 633 319 633 217 q 599 498 633 424 q 506 613 565 572 q 365 653 446 653 q 207 613 279 653 q 92 498 135 572 q 49 319 49 424 m 161 319 q 191 444 161 393 q 271 522 221 496 q 379 549 321 549 q 451 533 415 549 q 517 489 488 518 q 565 417 547 460 q 583 319 583 375 q 553 194 583 246 q 475 117 522 143 q 379 90 428 90 q 271 117 321 90 q 191 194 221 143 q 161 319 161 246 m 146 931 q 170 838 146 883 q 244 765 194 793 q 365 736 293 736 q 488 765 439 736 q 560 838 536 793 q 585 931 585 883 l 486 931 q 476 888 486 913 q 440 845 467 864 q 365 826 414 826 q 290 845 317 826 q 254 888 264 864 q 244 931 244 913 l 146 931 z "},"ġ":{"ha":792,"x_min":49,"x_max":694,"o":"m 61 -42 q 101 -187 61 -124 q 213 -285 142 -250 q 378 -319 285 -319 q 531 -282 458 -319 q 649 -170 603 -244 q 694 14 694 -96 l 694 639 l 583 639 l 583 14 q 552 -117 583 -67 q 474 -192 521 -168 q 378 -215 426 -215 q 269 -191 315 -215 q 199 -127 224 -167 q 174 -42 174 -87 l 61 -42 m 49 319 q 92 142 49 217 q 207 26 135 67 q 365 -14 279 -14 q 506 26 446 -14 q 599 142 565 67 q 633 319 633 217 q 599 498 633 424 q 506 613 565 572 q 365 653 446 653 q 207 613 279 653 q 92 498 135 572 q 49 319 49 424 m 161 319 q 191 444 161 393 q 271 522 221 496 q 379 549 321 549 q 451 533 415 549 q 517 489 488 518 q 565 417 547 460 q 583 319 583 375 q 553 194 583 246 q 475 117 522 143 q 379 90 428 90 q 271 117 321 90 q 191 194 221 143 q 161 319 161 246 m 317 868 q 340 815 317 838 q 393 792 363 792 q 447 815 425 792 q 469 868 469 838 q 447 922 469 900 q 393 944 425 944 q 340 922 363 944 q 317 868 317 900 z "},"ģ":{"ha":792,"x_min":49,"x_max":694,"o":"m 61 -42 q 101 -187 61 -124 q 213 -285 142 -250 q 378 -319 285 -319 q 531 -282 458 -319 q 649 -170 603 -244 q 694 14 694 -96 l 694 639 l 583 639 l 583 14 q 552 -117 583 -67 q 474 -192 521 -168 q 378 -215 426 -215 q 269 -191 315 -215 q 199 -127 224 -167 q 174 -42 174 -87 l 61 -42 m 49 319 q 92 142 49 217 q 207 26 135 67 q 365 -14 279 -14 q 506 26 446 -14 q 599 142 565 67 q 633 319 633 217 q 599 498 633 424 q 506 613 565 572 q 365 653 446 653 q 207 613 279 653 q 92 498 135 572 q 49 319 49 424 m 161 319 q 191 444 161 393 q 271 522 221 496 q 379 549 321 549 q 451 533 415 549 q 517 489 488 518 q 565 417 547 460 q 583 319 583 375 q 553 194 583 246 q 475 117 522 143 q 379 90 428 90 q 271 117 321 90 q 191 194 221 143 q 161 319 161 246 m 392 758 l 568 1094 l 493 1136 l 289 817 l 392 758 z "},"h":{"ha":729,"x_min":104,"x_max":625,"o":"m 215 1083 l 104 1083 l 104 0 l 215 0 l 215 1083 m 514 389 l 514 0 l 625 0 l 625 403 q 598 542 625 486 q 522 625 571 597 q 406 653 472 653 q 288 618 339 653 q 208 524 238 583 q 179 389 179 465 l 215 389 q 235 471 215 435 q 292 528 256 507 q 378 549 329 549 q 480 508 446 549 q 514 389 514 468 z "},"ĥ":{"ha":729,"x_min":-53,"x_max":625,"o":"m 215 1083 l 104 1083 l 104 0 l 215 0 l 215 1083 m 514 389 l 514 0 l 625 0 l 625 403 q 598 542 625 486 q 522 625 571 597 q 406 653 472 653 q 285 618 339 653 q 198 524 231 583 q 165 389 165 465 l 215 389 q 235 471 215 435 q 292 528 256 507 q 378 549 329 549 q 480 508 446 549 q 514 389 514 468 m 169 1299 l 322 1167 l 392 1222 l 169 1417 l -53 1222 l 17 1167 l 169 1299 z "},"i":{"ha":361,"x_min":104,"x_max":257,"o":"m 104 903 q 127 849 104 872 q 181 826 150 826 q 235 849 213 826 q 257 903 257 872 q 235 957 257 935 q 181 979 213 979 q 127 957 150 979 q 104 903 104 935 m 125 639 l 125 0 l 236 0 l 236 639 l 125 639 z "},"ì":{"ha":361,"x_min":-42,"x_max":271,"o":"m 125 639 l 125 0 l 236 0 l 236 639 l 125 639 m -42 972 l 208 764 l 271 806 l 63 1028 l -42 972 z "},"í":{"ha":361,"x_min":90,"x_max":403,"o":"m 125 639 l 125 0 l 236 0 l 236 639 l 125 639 m 403 972 l 299 1028 l 90 806 l 153 764 l 403 972 z "},"î":{"ha":361,"x_min":-42,"x_max":403,"o":"m 125 639 l 125 0 l 236 0 l 236 639 l 125 639 m 181 882 l 333 750 l 403 806 l 181 1000 l -42 806 l 28 750 l 181 882 z "},"ï":{"ha":361,"x_min":-35,"x_max":396,"o":"m 125 639 l 125 0 l 236 0 l 236 639 l 125 639 m 243 854 q 266 801 243 824 q 319 778 289 778 q 374 801 351 778 q 396 854 396 824 q 374 908 396 886 q 319 931 351 931 q 266 908 289 931 q 243 854 243 886 m -35 854 q -12 801 -35 824 q 42 778 11 778 q 96 801 74 778 q 118 854 118 824 q 96 908 118 886 q 42 931 74 931 q -12 908 11 931 q -35 854 -35 886 z "},"ĩ":{"ha":361,"x_min":-49,"x_max":410,"o":"m 125 639 l 125 0 l 236 0 l 236 639 l 125 639 m -49 788 l 25 736 q 31 764 25 747 q 51 794 36 781 q 94 807 67 807 q 149 791 126 807 q 199 758 172 775 q 263 742 225 742 q 326 756 297 742 q 377 794 356 771 q 410 843 399 818 l 346 903 q 306 853 325 869 q 268 836 288 836 q 222 846 240 836 q 188 869 204 856 q 151 892 172 882 q 96 901 129 901 q 34 887 65 901 q -19 847 3 872 q -49 788 -42 822 z "},"ī":{"ha":361,"x_min":-62,"x_max":424,"o":"m 125 639 l 125 0 l 236 0 l 236 639 l 125 639 m -62 736 l 424 736 l 424 840 l -62 840 l -62 736 z "},"ĭ":{"ha":361,"x_min":-39,"x_max":400,"o":"m 125 639 l 125 0 l 236 0 l 236 639 l 125 639 m -39 931 q -15 838 -39 883 q 59 765 10 793 q 181 736 108 736 q 303 765 254 736 q 376 838 351 793 q 400 931 400 883 l 301 931 q 292 888 301 913 q 256 845 282 864 q 181 826 229 826 q 106 845 132 826 q 69 888 79 864 q 60 931 60 913 l -39 931 z "},"į":{"ha":361,"x_min":-4,"x_max":289,"o":"m 104 903 q 127 849 104 872 q 181 826 150 826 q 235 849 213 826 q 257 903 257 872 q 235 957 257 935 q 181 979 213 979 q 127 957 150 979 q 104 903 104 935 m 125 639 l 125 0 l 236 0 l 236 639 l 125 639 m 243 -181 q 215 -201 229 -194 q 174 -208 201 -208 q 125 -192 143 -208 q 107 -139 107 -176 q 124 -87 107 -112 q 171 -38 142 -61 q 236 0 200 -15 l 179 35 q 89 -22 131 10 q 22 -89 47 -53 q -4 -167 -4 -125 q 15 -239 -4 -207 q 71 -288 33 -271 q 167 -306 108 -306 q 242 -288 211 -306 q 289 -250 274 -271 l 243 -181 z "},"j":{"ha":347,"x_min":-85,"x_max":236,"o":"m 86 903 q 108 850 86 872 q 161 828 131 828 q 215 850 193 828 q 236 903 236 872 q 215 956 236 935 q 161 978 193 978 q 108 956 131 978 q 86 903 86 935 m -24 -158 l -85 -250 q -53 -281 -71 -268 q -12 -299 -35 -293 q 38 -306 10 -306 q 138 -279 96 -306 q 201 -203 179 -253 q 222 -83 222 -153 l 222 639 l 111 639 l 111 -69 q 104 -142 111 -114 q 83 -182 97 -169 q 44 -194 68 -194 q 5 -185 22 -194 q -24 -158 -12 -175 z "},"ĵ":{"ha":347,"x_min":-85,"x_max":389,"o":"m -24 -158 l -85 -250 q -57 -276 -74 -264 q -16 -297 -40 -289 q 38 -306 8 -306 q 138 -281 96 -306 q 201 -208 179 -257 q 222 -83 222 -158 l 222 639 l 111 639 l 111 -69 q 103 -142 111 -115 q 81 -182 96 -169 q 44 -194 65 -194 q 10 -188 28 -194 q -24 -158 -8 -182 m 167 868 l 319 736 l 389 792 l 167 986 l -56 792 l 14 736 l 167 868 z "},"k":{"ha":611,"x_min":97,"x_max":611,"o":"m 97 1083 l 97 0 l 208 0 l 208 1083 l 97 1083 m 444 639 l 167 375 l 472 0 l 611 0 l 306 375 l 583 639 l 444 639 z "},"ķ":{"ha":611,"x_min":97,"x_max":611,"o":"m 97 1083 l 97 0 l 208 0 l 208 1083 l 97 1083 m 444 639 l 167 375 l 472 0 l 611 0 l 306 375 l 583 639 l 444 639 m 360 -83 l 238 -443 l 318 -472 l 471 -125 l 360 -83 z "},"l":{"ha":319,"x_min":104,"x_max":215,"o":"m 104 1083 l 104 0 l 215 0 l 215 1083 l 104 1083 z "},"ĺ":{"ha":319,"x_min":28,"x_max":340,"o":"m 104 1083 l 104 0 l 215 0 l 215 1083 l 104 1083 m 340 1375 l 236 1431 l 28 1208 l 90 1167 l 340 1375 z "},"ļ":{"ha":319,"x_min":43,"x_max":276,"o":"m 104 1083 l 104 0 l 215 0 l 215 1083 l 104 1083 m 165 -83 l 43 -443 l 124 -472 l 276 -125 l 165 -83 z "},"ľ":{"ha":319,"x_min":104,"x_max":518,"o":"m 104 1083 l 104 0 l 215 0 l 215 1083 l 104 1083 m 407 1083 l 285 724 l 365 694 l 518 1042 l 407 1083 z "},"m":{"ha":1083,"x_min":104,"x_max":979,"o":"m 979 403 q 955 538 979 482 q 885 624 931 594 q 774 653 839 653 q 660 623 710 653 q 576 533 610 593 q 506 622 554 590 q 392 653 458 653 q 288 626 332 653 q 215 546 244 600 l 215 639 l 104 639 l 104 0 l 215 0 l 215 389 q 233 475 215 439 q 285 530 251 511 q 364 549 318 549 q 456 510 426 549 q 486 389 486 471 l 486 0 l 597 0 l 597 389 q 615 475 597 439 q 667 530 633 511 q 746 549 700 549 q 838 510 808 549 q 868 389 868 471 l 868 0 l 979 0 l 979 403 z "},"n":{"ha":729,"x_min":104,"x_max":625,"o":"m 514 389 l 514 0 l 625 0 l 625 403 q 566 585 625 518 q 406 653 507 653 q 295 625 343 653 q 215 539 247 597 l 215 639 l 104 639 l 104 0 l 215 0 l 215 389 q 235 472 215 436 q 292 528 256 508 q 378 549 329 549 q 479 508 444 549 q 514 389 514 468 z "},"ñ":{"ha":729,"x_min":104,"x_max":625,"o":"m 215 639 l 104 639 l 104 0 l 215 0 l 215 639 m 514 389 l 514 0 l 625 0 l 625 403 q 565 590 625 526 q 406 653 504 653 q 285 618 339 653 q 198 524 231 583 q 165 389 165 465 l 215 389 q 235 471 215 435 q 292 528 256 507 q 378 549 329 549 q 480 508 446 549 q 514 389 514 468 m 136 788 l 210 736 q 215 764 210 747 q 236 794 221 781 q 279 807 251 807 q 334 791 311 807 q 383 758 357 775 q 447 742 410 742 q 511 756 482 742 q 562 794 540 771 q 594 843 583 818 l 531 903 q 491 853 510 869 q 453 836 472 836 q 407 846 425 836 q 373 869 389 856 q 335 892 357 882 q 281 901 314 901 q 219 887 250 901 q 165 847 188 872 q 136 788 143 822 z "},"ń":{"ha":729,"x_min":104,"x_max":625,"o":"m 215 639 l 104 639 l 104 0 l 215 0 l 215 639 m 514 389 l 514 0 l 625 0 l 625 403 q 565 590 625 526 q 406 653 504 653 q 288 618 339 653 q 208 524 238 583 q 179 389 179 465 l 215 389 q 235 471 215 435 q 292 528 256 507 q 378 549 329 549 q 480 508 446 549 q 514 389 514 468 m 558 944 l 456 1000 l 247 778 l 308 736 l 558 944 z "},"ņ":{"ha":729,"x_min":104,"x_max":625,"o":"m 215 639 l 104 639 l 104 0 l 215 0 l 215 639 m 514 389 l 514 0 l 625 0 l 625 403 q 565 590 625 526 q 406 653 504 653 q 285 618 339 653 q 198 524 231 583 q 165 389 165 465 l 215 389 q 235 471 215 435 q 292 528 256 507 q 378 549 329 549 q 480 508 446 549 q 514 389 514 468 m 369 -83 l 247 -443 l 328 -472 l 481 -125 l 369 -83 z "},"ň":{"ha":729,"x_min":104,"x_max":625,"o":"m 215 639 l 104 639 l 104 0 l 215 0 l 215 639 m 514 389 l 514 0 l 625 0 l 625 403 q 565 590 625 526 q 406 653 504 653 q 285 618 339 653 q 198 524 231 583 q 165 389 165 465 l 215 389 q 235 471 215 435 q 292 528 256 507 q 378 549 329 549 q 480 508 446 549 q 514 389 514 468 m 364 854 l 211 986 l 142 931 l 364 736 l 586 931 l 517 986 l 364 854 z "},"o":{"ha":758,"x_min":49,"x_max":710,"o":"m 49 319 q 92 148 49 224 q 211 29 136 72 q 379 -14 286 -14 q 548 29 474 -14 q 666 148 622 72 q 710 319 710 224 q 666 492 710 417 q 548 610 622 567 q 379 653 474 653 q 211 610 286 653 q 92 492 136 567 q 49 319 49 417 m 161 319 q 190 438 161 386 q 267 519 218 490 q 379 549 317 549 q 491 519 442 549 q 569 438 540 490 q 597 319 597 386 q 569 201 597 253 q 491 120 540 150 q 379 90 442 90 q 267 120 317 90 q 190 201 218 150 q 161 319 161 253 z "},"ò":{"ha":758,"x_min":49,"x_max":710,"o":"m 49 319 q 92 148 49 224 q 211 29 136 72 q 379 -14 286 -14 q 548 29 474 -14 q 666 148 622 72 q 710 319 710 224 q 666 492 710 417 q 548 610 622 567 q 379 653 474 653 q 211 610 286 653 q 92 492 136 567 q 49 319 49 417 m 161 319 q 190 438 161 386 q 267 519 218 490 q 379 549 317 549 q 491 519 442 549 q 569 438 540 490 q 597 319 597 386 q 569 201 597 253 q 491 120 540 150 q 379 90 442 90 q 267 120 317 90 q 190 201 218 150 q 161 319 161 253 m 157 972 l 407 764 l 469 806 l 261 1028 l 157 972 z "},"ó":{"ha":758,"x_min":49,"x_max":710,"o":"m 49 319 q 92 148 49 224 q 211 29 136 72 q 379 -14 286 -14 q 548 29 474 -14 q 666 148 622 72 q 710 319 710 224 q 666 492 710 417 q 548 610 622 567 q 379 653 474 653 q 211 610 286 653 q 92 492 136 567 q 49 319 49 417 m 161 319 q 190 438 161 386 q 267 519 218 490 q 379 549 317 549 q 491 519 442 549 q 569 438 540 490 q 597 319 597 386 q 569 201 597 253 q 491 120 540 150 q 379 90 442 90 q 267 120 317 90 q 190 201 218 150 q 161 319 161 253 m 601 972 l 497 1028 l 289 806 l 351 764 l 601 972 z "},"ô":{"ha":758,"x_min":49,"x_max":710,"o":"m 49 319 q 92 148 49 224 q 211 29 136 72 q 379 -14 286 -14 q 548 29 474 -14 q 666 148 622 72 q 710 319 710 224 q 666 492 710 417 q 548 610 622 567 q 379 653 474 653 q 211 610 286 653 q 92 492 136 567 q 49 319 49 417 m 161 319 q 190 438 161 386 q 267 519 218 490 q 379 549 317 549 q 491 519 442 549 q 569 438 540 490 q 597 319 597 386 q 569 201 597 253 q 491 120 540 150 q 379 90 442 90 q 267 120 317 90 q 190 201 218 150 q 161 319 161 253 m 379 896 l 532 764 l 601 819 l 379 1014 l 157 819 l 226 764 l 379 896 z "},"õ":{"ha":758,"x_min":49,"x_max":710,"o":"m 49 319 q 92 148 49 224 q 211 29 136 72 q 379 -14 286 -14 q 548 29 474 -14 q 666 148 622 72 q 710 319 710 224 q 666 492 710 417 q 548 610 622 567 q 379 653 474 653 q 211 610 286 653 q 92 492 136 567 q 49 319 49 417 m 161 319 q 190 438 161 386 q 267 519 218 490 q 379 549 317 549 q 491 519 442 549 q 569 438 540 490 q 597 319 597 386 q 569 201 597 253 q 491 120 540 150 q 379 90 442 90 q 267 120 317 90 q 190 201 218 150 q 161 319 161 253 m 150 788 l 224 736 q 229 764 224 747 q 250 794 235 781 q 293 807 265 807 q 348 791 325 807 q 397 758 371 775 q 461 742 424 742 q 525 756 496 742 q 576 794 554 771 q 608 843 597 818 l 544 903 q 505 853 524 869 q 467 836 486 836 q 421 846 439 836 q 387 869 403 856 q 349 892 371 882 q 294 901 328 901 q 233 887 264 901 q 179 847 201 872 q 150 788 157 822 z "},"ö":{"ha":758,"x_min":49,"x_max":710,"o":"m 49 319 q 92 148 49 224 q 211 29 136 72 q 379 -14 286 -14 q 548 29 474 -14 q 666 148 622 72 q 710 319 710 224 q 666 492 710 417 q 548 610 622 567 q 379 653 474 653 q 211 610 286 653 q 92 492 136 567 q 49 319 49 417 m 161 319 q 190 438 161 386 q 267 519 218 490 q 379 549 317 549 q 491 519 442 549 q 569 438 540 490 q 597 319 597 386 q 569 201 597 253 q 491 120 540 150 q 379 90 442 90 q 267 120 317 90 q 190 201 218 150 q 161 319 161 253 m 442 854 q 465 801 442 824 q 518 778 488 778 q 572 801 550 778 q 594 854 594 824 q 572 908 594 886 q 518 931 550 931 q 465 908 488 931 q 442 854 442 886 m 164 854 q 187 801 164 824 q 240 778 210 778 q 294 801 272 778 q 317 854 317 824 q 294 908 317 886 q 240 931 272 931 q 187 908 210 931 q 164 854 164 886 z "},"ō":{"ha":758,"x_min":49,"x_max":710,"o":"m 49 319 q 92 148 49 224 q 211 29 136 72 q 379 -14 286 -14 q 548 29 474 -14 q 666 148 622 72 q 710 319 710 224 q 666 492 710 417 q 548 610 622 567 q 379 653 474 653 q 211 610 286 653 q 92 492 136 567 q 49 319 49 417 m 161 319 q 190 438 161 386 q 267 519 218 490 q 379 549 317 549 q 491 519 442 549 q 569 438 540 490 q 597 319 597 386 q 569 201 597 253 q 491 120 540 150 q 379 90 442 90 q 267 120 317 90 q 190 201 218 150 q 161 319 161 253 m 136 736 l 622 736 l 622 840 l 136 840 l 136 736 z "},"ŏ":{"ha":758,"x_min":49,"x_max":710,"o":"m 49 319 q 92 148 49 224 q 211 29 136 72 q 379 -14 286 -14 q 548 29 474 -14 q 666 148 622 72 q 710 319 710 224 q 666 492 710 417 q 548 610 622 567 q 379 653 474 653 q 211 610 286 653 q 92 492 136 567 q 49 319 49 417 m 161 319 q 190 438 161 386 q 267 519 218 490 q 379 549 317 549 q 491 519 442 549 q 569 438 540 490 q 597 319 597 386 q 569 201 597 253 q 491 120 540 150 q 379 90 442 90 q 267 120 317 90 q 190 201 218 150 q 161 319 161 253 m 160 931 q 184 838 160 883 q 258 765 208 793 q 379 736 307 736 q 501 765 453 736 q 574 838 550 793 q 599 931 599 883 l 500 931 q 490 888 500 913 q 454 845 481 864 q 379 826 428 826 q 304 845 331 826 q 268 888 278 864 q 258 931 258 913 l 160 931 z "},"ő":{"ha":758,"x_min":49,"x_max":710,"o":"m 265 736 l 451 1001 l 338 1029 l 193 760 l 265 736 m 493 736 l 682 1001 l 565 1029 l 422 760 l 493 736 m 49 319 q 92 148 49 224 q 211 29 136 72 q 379 -14 286 -14 q 548 29 474 -14 q 666 148 622 72 q 710 319 710 224 q 666 492 710 417 q 548 610 622 567 q 379 653 474 653 q 211 610 286 653 q 92 492 136 567 q 49 319 49 417 m 161 319 q 190 438 161 386 q 267 519 218 490 q 379 549 317 549 q 491 519 442 549 q 569 438 540 490 q 597 319 597 386 q 569 201 597 253 q 491 120 540 150 q 379 90 442 90 q 267 120 317 90 q 190 201 218 150 q 161 319 161 253 z "},"p":{"ha":792,"x_min":97,"x_max":743,"o":"m 208 -306 l 208 639 l 97 639 l 97 -306 l 208 -306 m 743 319 q 700 498 743 424 q 585 613 657 572 q 426 653 514 653 q 287 613 347 653 q 192 498 226 572 q 158 319 158 424 q 192 142 158 217 q 287 26 226 67 q 426 -14 347 -14 q 585 26 514 -14 q 700 142 657 67 q 743 319 743 217 m 631 319 q 601 194 631 246 q 522 117 571 143 q 413 90 472 90 q 317 117 364 90 q 239 194 269 143 q 208 319 208 246 q 239 444 208 393 q 317 522 269 496 q 413 549 364 549 q 522 522 472 549 q 601 444 571 496 q 631 319 631 393 z "},"q":{"ha":792,"x_min":49,"x_max":694,"o":"m 583 -306 l 694 -306 l 694 639 l 583 639 l 583 -306 m 49 319 q 92 142 49 217 q 207 26 135 67 q 365 -14 279 -14 q 506 26 446 -14 q 599 142 565 67 q 633 319 633 217 q 599 498 633 424 q 506 613 565 572 q 365 653 446 653 q 207 613 279 653 q 92 498 135 572 q 49 319 49 424 m 161 319 q 191 444 161 393 q 271 522 221 496 q 379 549 321 549 q 475 522 428 549 q 553 444 522 496 q 583 319 583 393 q 553 194 583 246 q 475 117 522 143 q 379 90 428 90 q 271 117 321 90 q 191 194 221 143 q 161 319 161 246 z "},"r":{"ha":476,"x_min":104,"x_max":469,"o":"m 215 639 l 104 639 l 104 0 l 215 0 l 215 639 m 408 517 l 469 608 q 415 644 444 635 q 350 653 385 653 q 263 618 306 653 q 192 524 219 583 q 165 389 165 465 l 215 389 q 224 471 215 435 q 257 528 233 507 q 322 549 281 549 q 368 541 350 549 q 408 517 386 533 z "},"ŕ":{"ha":476,"x_min":104,"x_max":469,"o":"m 215 639 l 104 639 l 104 0 l 215 0 l 215 639 m 408 517 l 469 608 q 415 644 444 635 q 350 653 385 653 q 263 618 306 653 q 192 524 219 583 q 165 389 165 465 l 215 389 q 224 471 215 435 q 257 528 233 507 q 322 549 281 549 q 368 541 350 549 q 408 517 386 533 m 467 944 l 364 1000 l 156 778 l 217 736 l 467 944 z "},"ŗ":{"ha":476,"x_min":43,"x_max":469,"o":"m 215 639 l 104 639 l 104 0 l 215 0 l 215 639 m 408 517 l 469 608 q 415 644 444 635 q 350 653 385 653 q 263 618 306 653 q 192 524 219 583 q 165 389 165 465 l 215 389 q 224 471 215 435 q 257 528 233 507 q 322 549 281 549 q 368 541 350 549 q 408 517 386 533 m 165 -83 l 43 -443 l 124 -472 l 276 -125 l 165 -83 z "},"ř":{"ha":476,"x_min":64,"x_max":508,"o":"m 215 639 l 104 639 l 104 0 l 215 0 l 215 639 m 408 517 l 469 608 q 415 644 444 635 q 350 653 385 653 q 263 618 306 653 q 192 524 219 583 q 165 389 165 465 l 215 389 q 224 471 215 435 q 257 528 233 507 q 322 549 281 549 q 368 541 350 549 q 408 517 386 533 m 286 854 l 133 986 l 64 931 l 286 736 l 508 931 l 439 986 l 286 854 z "},"ȓ":{"ha":476,"x_min":68,"x_max":507,"o":"m 215 639 l 104 639 l 104 0 l 215 0 l 215 639 m 408 517 l 469 608 q 415 644 444 635 q 350 653 385 653 q 263 618 306 653 q 192 524 219 583 q 165 389 165 465 l 215 389 q 224 471 215 435 q 257 528 233 507 q 322 549 281 549 q 368 541 350 549 q 408 517 386 533 m 68 736 q 92 829 68 785 q 166 902 117 874 q 288 931 215 931 q 410 902 361 931 q 483 829 458 874 q 507 736 507 785 l 408 736 q 399 778 408 754 q 363 822 389 803 q 288 840 336 840 q 213 822 239 840 q 176 778 186 803 q 167 736 167 754 l 68 736 z "},"s":{"ha":560,"x_min":43,"x_max":518,"o":"m 131 196 l 43 142 q 97 68 61 104 q 183 9 132 32 q 299 -14 235 -14 q 458 42 397 -14 q 518 181 518 97 q 491 274 518 238 q 418 335 464 310 q 317 383 372 361 q 253 413 283 397 q 203 447 222 428 q 183 492 183 467 q 208 539 183 524 q 268 554 233 554 q 358 531 318 554 q 424 471 397 507 l 513 528 q 458 592 493 564 q 378 636 424 619 q 282 653 333 653 q 183 635 231 653 q 105 579 135 617 q 75 485 75 542 q 103 392 75 429 q 174 333 132 356 q 258 293 217 310 q 329 263 296 279 q 384 224 363 247 q 406 168 406 201 q 378 109 406 131 q 304 88 351 88 q 233 102 265 88 q 175 142 200 117 q 131 196 150 167 z "},"ś":{"ha":560,"x_min":35,"x_max":532,"o":"m 126 224 l 35 171 q 81 77 44 119 q 172 10 118 35 q 285 -14 226 -14 q 453 32 388 -14 q 518 181 518 78 q 493 263 518 228 q 428 325 468 299 q 342 369 388 351 q 271 400 307 385 q 210 434 235 415 q 186 478 186 453 q 214 531 186 515 q 283 547 242 547 q 336 537 310 547 q 385 510 363 526 q 424 471 408 493 l 513 528 q 465 592 500 564 q 381 636 429 619 q 282 653 333 653 q 183 633 231 653 q 106 575 136 613 q 75 485 75 538 q 103 397 75 432 q 173 339 131 361 q 258 299 215 317 q 328 268 296 285 q 382 228 361 251 q 403 171 403 206 q 374 110 403 129 q 292 90 344 90 q 218 108 253 90 q 159 155 183 125 q 126 224 135 185 m 532 944 l 428 1000 l 219 778 l 282 736 l 532 944 z "},"ŝ":{"ha":560,"x_min":35,"x_max":518,"o":"m 126 224 l 35 171 q 81 77 44 119 q 172 10 118 35 q 285 -14 226 -14 q 453 32 388 -14 q 518 181 518 78 q 493 263 518 228 q 428 325 468 299 q 342 369 388 351 q 271 400 307 385 q 210 434 235 415 q 186 478 186 453 q 214 531 186 515 q 283 547 242 547 q 336 537 310 547 q 385 510 363 526 q 424 471 408 493 l 513 528 q 465 592 500 564 q 381 636 429 619 q 282 653 333 653 q 183 633 231 653 q 106 575 136 613 q 75 485 75 538 q 103 397 75 432 q 173 339 131 361 q 258 299 215 317 q 328 268 296 285 q 382 228 361 251 q 403 171 403 206 q 374 110 403 129 q 292 90 344 90 q 218 108 253 90 q 159 155 183 125 q 126 224 135 185 m 282 868 l 435 736 l 504 792 l 282 986 l 60 792 l 129 736 l 282 868 z "},"ş":{"ha":560,"x_min":35,"x_max":518,"o":"m 122 226 l 35 172 q 98 78 58 121 q 189 12 138 36 q 299 -12 240 -12 q 455 33 392 -12 q 518 182 518 79 q 493 272 518 236 q 428 333 468 308 q 342 376 388 358 q 270 405 307 392 q 208 437 233 418 q 183 486 183 456 q 213 538 183 524 q 283 553 242 553 q 362 528 322 553 q 424 472 401 504 l 513 529 q 421 618 483 582 q 282 654 358 654 q 183 636 231 654 q 106 580 136 618 q 75 482 75 542 q 103 388 75 422 q 173 333 131 353 q 258 294 215 313 q 328 264 296 281 q 382 225 361 247 q 403 169 403 203 q 373 110 403 129 q 299 92 343 92 q 236 109 268 92 q 174 157 204 126 q 122 226 144 188 m 311 83 l 194 -150 q 240 -130 217 -135 q 272 -125 263 -125 q 325 -137 308 -125 q 342 -175 342 -150 q 325 -215 342 -200 q 272 -231 308 -231 q 230 -222 246 -231 q 194 -197 214 -214 l 150 -253 q 206 -294 179 -282 q 272 -306 233 -306 q 345 -290 311 -306 q 401 -246 379 -275 q 422 -175 422 -217 q 406 -118 422 -140 q 367 -84 390 -96 q 319 -72 343 -72 q 314 -72 317 -72 q 308 -72 311 -72 l 397 83 l 311 83 z "},"š":{"ha":560,"x_min":35,"x_max":518,"o":"m 126 224 l 35 171 q 81 77 44 119 q 172 10 118 35 q 285 -14 226 -14 q 453 32 388 -14 q 518 181 518 78 q 493 263 518 228 q 428 325 468 299 q 342 369 388 351 q 271 400 307 385 q 210 434 235 415 q 186 478 186 453 q 214 531 186 515 q 283 547 242 547 q 336 537 310 547 q 385 510 363 526 q 424 471 408 493 l 513 528 q 465 592 500 564 q 381 636 429 619 q 282 653 333 653 q 183 633 231 653 q 106 575 136 613 q 75 485 75 538 q 103 397 75 432 q 173 339 131 361 q 258 299 215 317 q 328 268 296 285 q 382 228 361 251 q 403 171 403 206 q 374 110 403 129 q 292 90 344 90 q 218 108 253 90 q 159 155 183 125 q 126 224 135 185 m 282 854 l 129 986 l 60 931 l 282 736 l 504 931 l 435 986 l 282 854 z "},"ș":{"ha":560,"x_min":35,"x_max":518,"o":"m 126 224 l 35 171 q 81 77 44 119 q 172 10 118 35 q 285 -14 226 -14 q 453 32 388 -14 q 518 181 518 78 q 493 263 518 228 q 428 325 468 299 q 342 369 388 351 q 271 400 307 385 q 210 434 235 415 q 186 478 186 453 q 214 531 186 515 q 283 547 242 547 q 336 537 310 547 q 385 510 363 526 q 424 471 408 493 l 513 528 q 465 592 500 564 q 381 636 429 619 q 282 653 333 653 q 183 633 231 653 q 106 575 136 613 q 75 485 75 538 q 103 397 75 432 q 173 339 131 361 q 258 299 215 317 q 328 268 296 285 q 382 228 361 251 q 403 171 403 206 q 374 110 403 129 q 292 90 344 90 q 218 108 253 90 q 159 155 183 125 q 126 224 135 185 m 290 -97 l 168 -457 l 249 -486 l 401 -139 l 290 -97 z "},"t":{"ha":333,"x_min":7,"x_max":326,"o":"m 7 639 l 7 535 l 326 535 l 326 639 l 7 639 m 111 861 l 111 0 l 222 0 l 222 861 l 111 861 z "},"ţ":{"ha":333,"x_min":-37,"x_max":326,"o":"m 125 13 l 7 -221 q 53 -201 29 -206 q 86 -196 76 -196 q 139 -208 122 -196 q 156 -246 156 -221 q 139 -286 156 -271 q 86 -301 122 -301 q 44 -293 60 -301 q 8 -268 28 -285 l -37 -324 q 19 -365 -8 -353 q 86 -376 47 -376 q 158 -361 125 -376 q 213 -317 192 -346 q 235 -246 235 -287 q 219 -189 235 -211 q 180 -155 203 -167 q 133 -143 157 -143 q 127 -143 131 -143 q 121 -143 124 -143 l 210 13 l 125 13 m 7 639 l 7 535 l 326 535 l 326 639 l 7 639 m 111 861 l 111 0 l 222 0 l 222 861 l 111 861 z "},"ť":{"ha":486,"x_min":7,"x_max":521,"o":"m 7 639 l 7 535 l 326 535 l 326 639 l 7 639 m 111 861 l 111 0 l 222 0 l 222 861 l 111 861 m 410 1125 l 288 765 l 368 736 l 521 1083 l 410 1125 z "},"ț":{"ha":333,"x_min":7,"x_max":326,"o":"m 7 639 l 7 535 l 326 535 l 326 639 l 7 639 m 111 861 l 111 0 l 222 0 l 222 861 l 111 861 m 172 -83 l 50 -443 l 131 -472 l 283 -125 l 172 -83 z "},"u":{"ha":729,"x_min":104,"x_max":625,"o":"m 215 250 l 215 639 l 104 639 l 104 236 q 164 54 104 122 q 324 -14 224 -14 q 435 15 388 -14 q 514 100 482 43 l 514 0 l 625 0 l 625 639 l 514 639 l 514 250 q 494 167 514 203 q 437 110 474 131 q 351 90 400 90 q 250 132 285 90 q 215 250 215 174 z "},"ù":{"ha":729,"x_min":104,"x_max":625,"o":"m 514 0 l 625 0 l 625 639 l 514 639 l 514 0 m 215 250 l 215 639 l 104 639 l 104 236 q 165 49 104 113 q 324 -14 225 -14 q 444 21 390 -14 q 531 115 499 56 q 564 250 564 174 l 514 250 q 494 168 514 204 q 437 111 474 132 q 351 90 400 90 q 249 131 283 90 q 215 250 215 171 m 197 972 l 447 764 l 511 806 l 303 1028 l 197 972 z "},"ú":{"ha":729,"x_min":104,"x_max":625,"o":"m 514 0 l 625 0 l 625 639 l 514 639 l 514 0 m 215 250 l 215 639 l 104 639 l 104 236 q 165 49 104 113 q 324 -14 225 -14 q 444 21 390 -14 q 531 115 499 56 q 564 250 564 174 l 514 250 q 494 168 514 204 q 437 111 474 132 q 351 90 400 90 q 249 131 283 90 q 215 250 215 171 m 531 972 l 428 1028 l 219 806 l 281 764 l 531 972 z "},"û":{"ha":729,"x_min":104,"x_max":625,"o":"m 514 0 l 625 0 l 625 639 l 514 639 l 514 0 m 215 250 l 215 639 l 104 639 l 104 236 q 165 49 104 113 q 324 -14 225 -14 q 444 21 390 -14 q 531 115 499 56 q 564 250 564 174 l 514 250 q 494 168 514 204 q 437 111 474 132 q 351 90 400 90 q 249 131 283 90 q 215 250 215 171 m 364 896 l 517 764 l 586 819 l 364 1014 l 142 819 l 211 764 l 364 896 z "},"ü":{"ha":729,"x_min":104,"x_max":625,"o":"m 514 0 l 625 0 l 625 639 l 514 639 l 514 0 m 215 250 l 215 639 l 104 639 l 104 236 q 165 49 104 113 q 324 -14 225 -14 q 444 21 390 -14 q 531 115 499 56 q 564 250 564 174 l 514 250 q 494 168 514 204 q 437 111 474 132 q 351 90 400 90 q 249 131 283 90 q 215 250 215 171 m 428 840 q 450 787 428 810 q 503 764 472 764 q 558 787 535 764 q 581 840 581 810 q 558 894 581 872 q 503 917 535 917 q 450 894 472 917 q 428 840 428 872 m 150 840 q 172 787 150 810 q 225 764 194 764 q 280 787 257 764 q 303 840 303 810 q 280 894 303 872 q 225 917 257 917 q 172 894 194 917 q 150 840 150 872 z "},"ũ":{"ha":729,"x_min":104,"x_max":625,"o":"m 514 0 l 625 0 l 625 639 l 514 639 l 514 0 m 215 250 l 215 639 l 104 639 l 104 236 q 165 49 104 113 q 324 -14 225 -14 q 441 21 390 -14 q 521 115 492 56 q 550 250 550 174 l 514 250 q 494 168 514 204 q 437 111 474 132 q 351 90 400 90 q 249 131 283 90 q 215 250 215 171 m 136 788 l 210 736 q 215 764 210 747 q 236 794 221 781 q 279 807 251 807 q 334 791 311 807 q 383 758 357 775 q 447 742 410 742 q 511 756 482 742 q 562 794 540 771 q 594 843 583 818 l 531 903 q 491 853 510 869 q 453 836 472 836 q 407 846 425 836 q 373 869 389 856 q 335 892 357 882 q 281 901 314 901 q 219 887 250 901 q 165 847 188 872 q 136 788 143 822 z "},"ū":{"ha":729,"x_min":104,"x_max":625,"o":"m 514 0 l 625 0 l 625 639 l 514 639 l 514 0 m 215 250 l 215 639 l 104 639 l 104 236 q 165 49 104 113 q 324 -14 225 -14 q 441 21 390 -14 q 521 115 492 56 q 550 250 550 174 l 514 250 q 494 168 514 204 q 437 111 474 132 q 351 90 400 90 q 249 131 283 90 q 215 250 215 171 m 122 736 l 608 736 l 608 840 l 122 840 l 122 736 z "},"ŭ":{"ha":729,"x_min":104,"x_max":625,"o":"m 514 0 l 625 0 l 625 639 l 514 639 l 514 0 m 215 250 l 215 639 l 104 639 l 104 236 q 165 49 104 113 q 324 -14 225 -14 q 441 21 390 -14 q 521 115 492 56 q 550 250 550 174 l 514 250 q 494 168 514 204 q 437 111 474 132 q 351 90 400 90 q 249 131 283 90 q 215 250 215 171 m 146 931 q 170 838 146 883 q 244 765 194 793 q 365 736 293 736 q 488 765 439 736 q 560 838 536 793 q 585 931 585 883 l 486 931 q 476 888 486 913 q 440 845 467 864 q 365 826 414 826 q 290 845 317 826 q 254 888 264 864 q 244 931 244 913 l 146 931 z "},"ů":{"ha":729,"x_min":104,"x_max":625,"o":"m 514 0 l 625 0 l 625 639 l 514 639 l 514 0 m 215 250 l 215 639 l 104 639 l 104 236 q 165 49 104 113 q 324 -14 225 -14 q 441 21 390 -14 q 521 115 492 56 q 550 250 550 174 l 514 250 q 494 168 514 204 q 437 111 474 132 q 351 90 400 90 q 249 131 283 90 q 215 250 215 171 m 224 875 q 267 774 224 813 q 365 736 311 736 q 463 774 419 736 q 507 875 507 813 q 463 976 507 938 q 365 1014 419 1014 q 267 976 311 1014 q 224 875 224 938 m 294 875 q 317 929 294 910 q 365 949 339 949 q 414 929 392 949 q 436 875 436 910 q 414 821 436 840 q 365 801 392 801 q 317 821 339 801 q 294 875 294 840 z "},"ű":{"ha":729,"x_min":104,"x_max":668,"o":"m 251 736 l 438 1001 l 324 1029 l 179 760 l 251 736 m 479 736 l 668 1001 l 551 1029 l 408 760 l 479 736 m 215 250 l 215 639 l 104 639 l 104 236 q 164 54 104 122 q 324 -14 224 -14 q 435 15 388 -14 q 514 100 482 43 l 514 0 l 625 0 l 625 639 l 514 639 l 514 250 q 494 167 514 203 q 437 110 474 131 q 351 90 400 90 q 250 132 285 90 q 215 250 215 174 z "},"ų":{"ha":729,"x_min":104,"x_max":678,"o":"m 632 -181 q 604 -201 618 -194 q 563 -208 590 -208 q 514 -192 532 -208 q 496 -139 496 -176 q 513 -87 496 -112 q 560 -38 531 -61 q 625 0 589 -15 l 568 35 q 478 -22 519 10 q 410 -89 436 -53 q 385 -167 385 -125 q 403 -239 385 -207 q 460 -288 422 -271 q 556 -306 497 -306 q 631 -288 600 -306 q 678 -250 663 -271 l 632 -181 m 215 250 l 215 639 l 104 639 l 104 236 q 164 54 104 122 q 324 -14 224 -14 q 435 15 388 -14 q 514 100 482 43 l 514 0 l 625 0 l 625 639 l 514 639 l 514 250 q 494 167 514 203 q 437 110 474 131 q 351 90 400 90 q 250 132 285 90 q 215 250 215 174 z "},"v":{"ha":611,"x_min":0,"x_max":611,"o":"m 0 639 l 306 -49 l 611 639 l 486 639 l 306 188 l 125 639 l 0 639 z "},"w":{"ha":944,"x_min":7,"x_max":938,"o":"m 7 639 l 285 -49 l 467 417 l 660 -49 l 938 639 l 813 639 l 651 221 l 465 688 l 292 224 l 132 639 l 7 639 z "},"ŵ":{"ha":944,"x_min":7,"x_max":938,"o":"m 7 639 l 285 -49 l 467 417 l 660 -49 l 938 639 l 813 639 l 651 221 l 465 688 l 292 224 l 132 639 l 7 639 m 465 903 l 618 771 l 688 826 l 465 1021 l 243 826 l 313 771 l 465 903 z "},"ẁ":{"ha":944,"x_min":7,"x_max":938,"o":"m 465 771 l 528 813 l 319 1035 l 215 979 l 465 771 m 7 639 l 285 -49 l 467 417 l 660 -49 l 938 639 l 813 639 l 651 221 l 465 688 l 292 224 l 132 639 l 7 639 z "},"ẃ":{"ha":944,"x_min":7,"x_max":938,"o":"m 465 771 l 715 979 l 611 1035 l 403 813 l 465 771 m 7 639 l 285 -49 l 467 417 l 660 -49 l 938 639 l 813 639 l 651 221 l 465 688 l 292 224 l 132 639 l 7 639 z "},"ẅ":{"ha":944,"x_min":7,"x_max":938,"o":"m 528 847 q 551 794 528 817 q 604 771 574 771 q 658 794 636 771 q 681 847 681 817 q 658 901 681 879 q 604 924 636 924 q 551 901 574 924 q 528 847 528 879 m 250 847 q 273 794 250 817 q 326 771 296 771 q 381 794 358 771 q 403 847 403 817 q 381 901 403 879 q 326 924 358 924 q 273 901 296 924 q 250 847 250 879 m 7 639 l 285 -49 l 467 417 l 660 -49 l 938 639 l 813 639 l 651 221 l 465 688 l 292 224 l 132 639 l 7 639 z "},"ẇ":{"ha":944,"x_min":7,"x_max":938,"o":"m 389 847 q 412 794 389 817 q 465 771 435 771 q 519 794 497 771 q 542 847 542 817 q 519 901 542 879 q 465 924 497 924 q 412 901 435 924 q 389 847 389 879 m 7 639 l 285 -49 l 467 417 l 660 -49 l 938 639 l 813 639 l 651 221 l 465 688 l 292 224 l 132 639 l 7 639 z "},"ẉ":{"ha":944,"x_min":7,"x_max":938,"o":"m 396 -208 q 419 -262 396 -239 q 472 -285 442 -285 q 526 -262 504 -285 q 549 -208 549 -239 q 526 -154 549 -176 q 472 -132 504 -132 q 419 -154 442 -132 q 396 -208 396 -176 m 7 639 l 285 -49 l 467 417 l 660 -49 l 938 639 l 813 639 l 651 221 l 465 688 l 292 224 l 132 639 l 7 639 z "},"x":{"ha":583,"x_min":0,"x_max":583,"o":"m 444 639 l 292 417 l 139 639 l 14 639 l 232 329 l 0 0 l 125 0 l 292 242 l 458 0 l 583 0 l 351 329 l 569 639 l 444 639 z "},"y":{"ha":611,"x_min":0,"x_max":611,"o":"m 611 639 l 486 639 l 289 144 l 335 139 l 132 639 l 0 639 l 244 90 l 69 -306 l 194 -306 l 611 639 z "},"ý":{"ha":611,"x_min":0,"x_max":611,"o":"m 611 639 l 486 639 l 289 144 l 335 139 l 132 639 l 0 639 l 244 90 l 69 -306 l 194 -306 l 611 639 m 486 972 l 382 1028 l 174 806 l 236 764 l 486 972 z "},"ÿ":{"ha":611,"x_min":0,"x_max":611,"o":"m 611 639 l 486 639 l 289 144 l 335 139 l 132 639 l 0 639 l 244 90 l 69 -306 l 194 -306 l 611 639 m 368 813 q 391 759 368 782 q 444 736 414 736 q 499 759 476 736 q 521 813 521 782 q 499 867 521 844 q 444 889 476 889 q 391 867 414 889 q 368 813 368 844 m 90 813 q 113 759 90 782 q 167 736 136 736 q 221 759 199 736 q 243 813 243 782 q 221 867 243 844 q 167 889 199 889 q 113 867 136 889 q 90 813 90 844 z "},"ŷ":{"ha":611,"x_min":0,"x_max":611,"o":"m 611 639 l 486 639 l 289 144 l 335 139 l 132 639 l 0 639 l 244 90 l 69 -306 l 194 -306 l 611 639 m 306 868 l 458 736 l 528 792 l 306 986 l 83 792 l 153 736 l 306 868 z "},"ỳ":{"ha":611,"x_min":0,"x_max":611,"o":"m 306 736 l 368 778 l 160 1000 l 56 944 l 306 736 m 611 639 l 486 639 l 289 144 l 335 139 l 132 639 l 0 639 l 244 90 l 69 -306 l 194 -306 l 611 639 z "},"z":{"ha":639,"x_min":21,"x_max":618,"o":"m 417 535 l 21 0 l 590 0 l 590 104 l 222 104 l 618 639 l 63 639 l 63 535 l 417 535 z "},"ź":{"ha":639,"x_min":21,"x_max":618,"o":"m 417 535 l 21 0 l 590 0 l 590 104 l 222 104 l 618 639 l 63 639 l 63 535 l 417 535 m 563 972 l 458 1028 l 250 806 l 313 764 l 563 972 z "},"ż":{"ha":639,"x_min":21,"x_max":618,"o":"m 417 535 l 21 0 l 590 0 l 590 104 l 222 104 l 618 639 l 63 639 l 63 535 l 417 535 m 264 854 q 287 801 264 824 q 340 778 310 778 q 394 801 372 778 q 417 854 417 824 q 394 908 417 886 q 340 931 372 931 q 287 908 310 931 q 264 854 264 886 z "},"ž":{"ha":639,"x_min":21,"x_max":618,"o":"m 340 854 l 188 986 l 118 931 l 340 736 l 563 931 l 493 986 l 340 854 m 417 535 l 21 0 l 590 0 l 590 104 l 222 104 l 618 639 l 63 639 l 63 535 l 417 535 z "},"ß":{"ha":785,"x_min":100,"x_max":744,"o":"m 475 -17 q 581 4 532 -17 q 666 62 629 25 q 724 148 703 99 q 744 253 744 197 q 728 338 744 303 q 685 399 711 374 q 629 444 658 425 q 574 481 600 464 q 531 516 547 497 q 514 558 514 535 q 529 620 514 593 q 567 672 544 647 q 613 726 590 697 q 651 795 636 756 q 667 892 667 835 q 634 1012 667 965 q 544 1081 601 1058 q 411 1103 486 1103 q 247 1069 317 1103 q 138 978 176 1036 q 100 844 100 919 l 100 -3 l 213 -3 l 211 817 q 235 923 211 882 q 299 983 258 964 q 393 1001 340 1001 q 470 990 435 1001 q 528 953 506 979 q 550 882 550 928 q 534 806 550 839 q 494 744 518 772 q 447 688 471 715 q 408 628 424 660 q 392 558 392 597 q 409 490 392 519 q 453 439 426 461 q 510 397 479 417 q 567 355 540 376 q 610 305 593 333 q 628 238 628 276 q 609 163 628 197 q 558 109 590 129 q 483 89 525 89 q 431 98 457 89 q 383 124 406 107 q 339 161 360 140 l 271 78 q 327 28 296 50 q 395 -5 358 7 q 475 -17 432 -17 z "},"æ":{"ha":1146,"x_min":42,"x_max":1097,"o":"m 289 -14 q 461 31 393 -14 q 542 153 529 76 l 528 153 q 628 26 568 65 q 782 -14 689 -14 q 958 27 881 -14 q 1086 149 1035 68 l 996 206 q 911 119 961 147 q 796 90 861 90 q 686 117 732 90 q 616 196 640 144 q 592 318 592 247 l 561 292 l 1094 292 q 1097 305 1096 296 q 1097 325 1097 314 q 1060 496 1097 422 q 959 611 1024 569 q 810 653 894 653 q 702 634 753 653 q 612 580 651 615 q 547 494 572 544 l 561 494 q 495 613 551 572 q 344 653 439 653 q 215 633 278 653 q 100 574 153 613 l 154 489 q 214 525 182 510 q 280 548 246 540 q 344 556 314 556 q 444 519 410 556 q 479 417 479 483 l 479 319 l 539 319 q 419 381 468 364 q 314 397 371 397 q 172 369 233 397 q 76 290 111 340 q 42 174 42 240 q 108 38 42 89 q 289 -14 175 -14 m 289 85 q 187 110 219 85 q 154 188 154 135 q 197 281 154 249 q 319 313 239 313 q 411 301 368 313 q 492 269 454 290 l 479 307 l 488 161 l 492 267 q 431 129 479 174 q 289 85 383 85 m 592 332 q 617 450 592 400 q 687 528 642 500 q 793 556 732 556 q 891 533 850 556 q 955 468 932 510 q 978 369 978 426 q 978 356 978 361 q 975 347 978 351 l 1008 386 l 561 386 l 592 332 z "},"ð":{"ha":800,"x_min":69,"x_max":731,"o":"m 400 -14 q 572 29 497 -14 q 688 147 646 72 q 731 319 731 222 q 715 434 731 375 q 667 556 700 493 q 585 690 635 619 q 465 839 535 760 q 307 1007 396 918 l 240 929 q 349 825 300 875 q 436 727 397 775 q 506 632 475 679 q 560 536 538 585 l 624 536 q 357 635 483 635 q 209 594 274 635 q 107 482 144 553 q 69 319 69 411 q 112 147 69 222 q 229 29 154 72 q 400 -14 304 -14 m 400 93 q 287 122 336 93 q 210 203 238 151 q 182 319 182 254 q 210 438 182 386 q 288 519 239 489 q 400 549 338 549 q 512 519 463 549 q 590 438 561 489 q 618 319 618 386 q 590 203 618 254 q 513 122 563 151 q 400 93 464 93 m 256 699 l 644 847 l 619 913 l 231 764 l 256 699 z "},"ø":{"ha":758,"x_min":49,"x_max":710,"o":"m 49 319 q 92 148 49 224 q 211 29 136 72 q 379 -14 286 -14 q 548 29 474 -14 q 666 148 622 72 q 710 319 710 224 q 666 492 710 417 q 548 610 622 567 q 379 653 474 653 q 211 610 286 653 q 92 492 136 567 q 49 319 49 417 m 161 319 q 190 438 161 386 q 267 519 218 490 q 379 549 317 549 q 491 519 442 549 q 569 438 540 490 q 597 319 597 386 q 569 201 597 253 q 491 120 540 150 q 379 90 442 90 q 267 120 317 90 q 190 201 218 150 q 161 319 161 253 m 611 694 l 69 -33 l 132 -61 l 674 667 l 611 694 z "},"þ":{"ha":792,"x_min":97,"x_max":743,"o":"m 208 -306 l 208 1083 l 97 1083 l 97 -306 l 208 -306 m 743 319 q 700 498 743 424 q 585 613 657 572 q 426 653 514 653 q 287 613 347 653 q 192 498 226 572 q 158 319 158 424 q 192 142 158 217 q 287 26 226 67 q 426 -14 347 -14 q 585 26 514 -14 q 700 142 657 67 q 743 319 743 217 m 631 319 q 601 194 631 246 q 522 117 571 143 q 413 90 472 90 q 317 117 364 90 q 239 194 269 143 q 208 319 208 246 q 239 444 208 393 q 317 522 269 496 q 413 549 364 549 q 522 522 472 549 q 601 444 571 496 q 631 319 631 393 z "},"đ":{"ha":792,"x_min":49,"x_max":826,"o":"m 410 819 l 826 819 l 826 924 l 410 924 l 410 819 m 583 1083 l 583 0 l 694 0 l 694 1083 l 583 1083 m 49 319 q 92 142 49 217 q 207 26 135 67 q 365 -14 279 -14 q 506 26 446 -14 q 599 142 565 67 q 633 319 633 217 q 599 498 633 424 q 506 613 565 572 q 365 653 446 653 q 207 613 279 653 q 92 498 135 572 q 49 319 49 424 m 161 319 q 191 444 161 393 q 271 522 221 496 q 379 549 321 549 q 451 533 415 549 q 517 489 488 518 q 565 417 547 460 q 583 319 583 375 q 565 222 583 264 q 517 150 547 179 q 451 106 488 121 q 379 90 415 90 q 271 117 321 90 q 191 194 221 143 q 161 319 161 246 z "},"ħ":{"ha":729,"x_min":7,"x_max":625,"o":"m 215 1083 l 104 1083 l 104 0 l 215 0 l 215 1083 m 514 389 l 514 0 l 625 0 l 625 403 q 598 542 625 486 q 522 625 571 597 q 406 653 472 653 q 288 618 339 653 q 208 524 238 583 q 179 389 179 465 l 215 389 q 235 471 215 435 q 292 528 256 507 q 378 549 329 549 q 480 508 446 549 q 514 389 514 468 m 7 868 l 440 868 l 440 972 l 7 972 l 7 868 z "},"ı":{"ha":361,"x_min":125,"x_max":236,"o":"m 125 639 l 125 0 l 236 0 l 236 639 l 125 639 z "},"ĳ":{"ha":708,"x_min":104,"x_max":604,"o":"m 451 903 q 474 849 451 872 q 528 826 497 826 q 582 849 560 826 q 604 903 604 872 q 582 957 604 935 q 528 979 560 979 q 474 957 497 979 q 451 903 451 935 m 338 -158 l 276 -250 q 304 -276 288 -264 q 345 -297 321 -289 q 399 -306 369 -306 q 498 -281 457 -306 q 561 -208 539 -257 q 583 -83 583 -158 l 583 639 l 472 639 l 472 -69 q 465 -142 472 -115 q 442 -182 457 -169 q 406 -194 426 -194 q 371 -188 389 -194 q 338 -158 353 -182 m 104 903 q 127 849 104 872 q 181 826 150 826 q 235 849 213 826 q 257 903 257 872 q 235 957 257 935 q 181 979 213 979 q 127 957 150 979 q 104 903 104 935 m 125 639 l 125 0 l 236 0 l 236 639 l 125 639 z "},"ĸ":{"ha":611,"x_min":97,"x_max":611,"o":"m 97 639 l 97 0 l 208 0 l 208 639 l 97 639 m 444 639 l 167 375 l 472 0 l 611 0 l 306 375 l 583 639 l 444 639 z "},"ŀ":{"ha":514,"x_min":104,"x_max":451,"o":"m 104 1083 l 104 0 l 215 0 l 215 1083 l 104 1083 m 299 576 q 322 523 299 546 q 375 500 344 500 q 429 523 407 500 q 451 576 451 546 q 429 631 451 608 q 375 653 407 653 q 322 631 344 653 q 299 576 299 608 z "},"ł":{"ha":319,"x_min":-21,"x_max":354,"o":"m 7 472 l 354 681 l 326 757 l -21 549 l 7 472 m 104 1083 l 104 0 l 215 0 l 215 1083 l 104 1083 z "},"ŉ":{"ha":882,"x_min":97,"x_max":778,"o":"m 368 639 l 257 639 l 257 0 l 368 0 l 368 639 m 667 389 l 667 0 l 778 0 l 778 403 q 717 590 778 526 q 558 653 657 653 q 438 618 493 653 q 351 524 383 583 q 318 389 318 465 l 368 389 q 388 471 368 435 q 445 528 408 507 q 531 549 482 549 q 633 508 599 549 q 667 389 667 468 m 181 972 l 97 653 l 174 653 l 313 972 l 181 972 z "},"ŋ":{"ha":729,"x_min":104,"x_max":625,"o":"m 440 -306 q 578 -249 532 -306 q 625 -83 625 -193 l 625 403 q 567 588 625 522 q 406 653 510 653 q 297 623 346 653 q 215 539 247 593 l 215 639 l 104 639 l 104 0 l 215 0 l 215 389 q 236 472 215 436 q 294 528 257 508 q 378 549 331 549 q 480 508 446 549 q 514 389 514 468 l 514 -69 q 497 -164 514 -133 q 447 -194 481 -194 q 379 -158 401 -194 l 318 -250 q 370 -291 338 -276 q 440 -306 403 -306 z "},"œ":{"ha":1250,"x_min":49,"x_max":1201,"o":"m 1083 347 l 1083 319 l 1200 292 q 1201 308 1201 300 q 1201 325 1201 317 q 1161 499 1201 426 q 1056 613 1121 572 q 914 653 990 653 q 766 619 832 653 q 658 526 700 586 q 603 388 617 467 q 599 354 600 371 q 597 319 597 338 q 637 148 597 224 q 745 29 676 72 q 900 -14 814 -14 q 1023 6 969 -14 q 1117 63 1076 26 q 1190 149 1158 100 l 1100 206 q 1019 122 1068 154 q 900 90 969 90 q 792 117 838 90 q 721 194 746 143 q 696 319 696 246 l 699 361 q 726 465 699 421 q 799 532 753 508 q 900 556 844 556 q 1003 528 963 556 q 1063 454 1043 501 q 1083 347 1083 407 m 668 292 l 1200 292 l 1172 386 l 668 386 l 668 292 m 49 319 q 92 142 49 217 q 207 26 135 67 q 365 -14 279 -14 q 516 26 453 -14 q 613 142 579 67 q 647 319 647 217 q 613 498 647 424 q 516 613 579 572 q 365 653 453 653 q 207 613 279 653 q 92 498 135 572 q 49 319 49 424 m 161 319 q 191 444 161 393 q 271 522 221 496 q 379 549 321 549 q 472 522 428 549 q 542 444 515 496 q 569 319 569 393 q 542 194 569 246 q 472 117 515 143 q 379 90 428 90 q 271 117 321 90 q 191 194 221 143 q 161 319 161 246 z "},"ŧ":{"ha":333,"x_min":7,"x_max":326,"o":"m 28 285 l 306 285 l 306 389 l 28 389 l 28 285 m 7 639 l 7 535 l 326 535 l 326 639 l 7 639 m 111 861 l 111 0 l 222 0 l 222 861 l 111 861 z "},"ȷ":{"ha":347,"x_min":-85,"x_max":222,"o":"m -24 -158 l -85 -250 q -57 -276 -74 -264 q -16 -297 -40 -289 q 38 -306 8 -306 q 138 -281 96 -306 q 201 -208 179 -257 q 222 -83 222 -158 l 222 639 l 111 639 l 111 -69 q 103 -142 111 -115 q 81 -182 96 -169 q 44 -194 65 -194 q 10 -188 28 -194 q -24 -158 -8 -182 z "},"μ":{"ha":729,"x_min":104,"x_max":625,"o":"m 215 639 l 104 639 l 104 -444 l 215 -444 l 215 11 q 266 -8 239 -1 q 324 -14 293 -14 q 431 13 382 -14 q 514 86 481 39 l 514 0 l 625 0 l 625 639 l 514 639 l 514 250 q 494 168 514 204 q 437 111 474 132 q 351 90 400 90 q 249 131 283 90 q 215 250 215 171 l 215 639 z "},"π":{"ha":750,"x_min":42,"x_max":694,"o":"m 125 597 l 125 0 l 236 0 l 236 597 l 125 597 m 42 639 l 42 535 l 694 535 l 694 639 l 42 639 m 472 597 l 472 168 q 494 54 472 93 q 558 1 517 15 q 657 -12 599 -12 l 657 99 q 619 104 636 99 q 593 130 603 110 q 583 196 583 150 l 583 597 l 472 597 z "},"а":{"ha":674,"x_min":42,"x_max":590,"o":"m 154 188 q 172 254 154 226 q 227 297 190 282 q 319 313 264 313 q 429 297 381 313 q 525 247 478 281 l 525 313 q 489 345 515 325 q 419 381 463 365 q 314 397 375 397 q 169 372 231 397 q 75 299 108 346 q 42 183 42 251 q 72 74 42 118 q 151 8 101 31 q 261 -14 201 -14 q 382 9 328 -14 q 469 76 436 32 q 501 181 501 119 l 479 250 q 455 154 479 190 q 388 101 431 118 q 289 85 344 85 q 221 97 251 85 q 172 131 190 108 q 154 188 154 154 m 154 489 q 197 516 169 500 q 261 544 224 532 q 344 556 299 556 q 438 531 397 556 q 479 458 479 507 l 479 0 l 590 0 l 590 458 q 559 564 590 521 q 473 630 528 607 q 344 653 418 653 q 197 626 258 653 q 100 574 136 600 l 154 489 z "},"б":{"ha":758,"x_min":49,"x_max":710,"o":"m 379 549 q 491 519 442 549 q 569 438 540 490 q 597 319 597 386 q 569 201 597 253 q 491 120 540 150 q 379 90 442 90 q 267 120 317 90 q 189 201 218 150 q 160 319 160 253 l 49 403 q 92 172 49 265 q 211 33 136 79 q 379 -14 286 -14 q 548 29 474 -14 q 666 148 622 72 q 710 319 710 224 q 666 492 710 417 q 548 610 622 567 q 379 653 474 653 l 379 549 m 110 319 l 160 319 q 180 417 160 375 q 233 489 200 460 q 304 533 265 518 q 379 549 343 549 l 379 653 q 270 630 319 653 q 185 564 221 607 q 129 459 149 521 q 110 319 110 397 m 49 403 l 146 329 l 146 472 q 164 612 146 542 q 230 738 182 682 q 364 821 278 793 q 501 883 440 846 q 599 972 561 921 q 643 1083 636 1022 l 533 1083 q 477 988 524 1033 q 336 911 431 943 q 162 803 225 874 q 74 633 99 733 q 49 403 49 533 z "},"в":{"ha":629,"x_min":104,"x_max":588,"o":"m 169 333 l 169 275 l 354 275 q 409 269 386 275 q 447 250 432 263 q 469 222 461 238 q 476 188 476 207 q 447 124 476 150 q 354 97 417 97 l 169 97 l 169 0 l 382 0 q 540 51 492 0 q 588 174 588 101 q 557 271 588 236 q 474 319 526 306 q 354 333 421 333 l 169 333 m 169 306 l 340 306 q 449 323 400 306 q 529 376 499 340 q 560 465 560 411 q 529 566 560 528 q 449 622 499 604 q 340 639 400 639 l 169 639 l 169 542 l 340 542 q 419 519 390 542 q 449 458 449 496 q 441 424 449 440 q 419 396 433 408 q 385 377 406 383 q 340 371 365 371 l 169 371 l 169 306 m 104 639 l 104 0 l 215 0 l 215 639 l 104 639 z "},"г":{"ha":458,"x_min":111,"x_max":451,"o":"m 111 639 l 111 0 l 222 0 l 222 535 l 451 535 l 451 639 l 111 639 z "},"ѓ":{"ha":458,"x_min":111,"x_max":532,"o":"m 111 639 l 111 0 l 222 0 l 222 535 l 451 535 l 451 639 l 111 639 m 532 944 l 428 1000 l 219 778 l 282 736 l 532 944 z "},"д":{"ha":910,"x_min":56,"x_max":847,"o":"m 451 447 l 639 42 l 764 42 l 451 688 l 139 42 l 264 42 l 451 447 m 736 0 l 736 -125 l 847 -125 l 847 104 l 56 104 l 56 -125 l 174 -125 l 174 0 l 736 0 z "},"е":{"ha":715,"x_min":49,"x_max":667,"o":"m 119 292 l 665 292 q 667 308 667 300 q 667 325 667 317 q 629 499 667 426 q 524 613 592 572 q 365 653 456 653 q 217 619 283 653 q 110 526 151 586 q 54 388 68 467 q 50 354 51 371 q 49 319 49 338 q 88 148 49 224 q 197 29 128 72 q 351 -14 265 -14 q 490 6 435 -14 q 585 63 546 26 q 656 149 624 100 l 565 206 q 515 145 544 171 q 449 105 486 119 q 365 90 413 90 q 257 117 303 90 q 186 194 211 143 q 161 319 161 246 l 164 361 q 191 465 164 421 q 264 532 218 508 q 365 556 310 556 q 459 534 421 556 q 519 474 497 513 q 546 386 540 436 l 119 386 l 119 292 z "},"ѐ":{"ha":715,"x_min":49,"x_max":667,"o":"m 119 292 l 665 292 q 667 308 667 300 q 667 325 667 317 q 629 499 667 426 q 524 613 592 572 q 365 653 456 653 q 217 619 283 653 q 110 526 151 586 q 54 388 68 467 q 50 354 51 371 q 49 319 49 338 q 88 148 49 224 q 197 29 128 72 q 351 -14 265 -14 q 490 6 435 -14 q 585 63 546 26 q 656 149 624 100 l 565 206 q 515 145 544 171 q 449 105 486 119 q 365 90 413 90 q 257 117 303 90 q 186 194 211 143 q 161 319 161 246 l 164 361 q 191 465 164 421 q 264 532 218 508 q 365 556 310 556 q 459 534 421 556 q 519 474 497 513 q 546 386 540 436 l 119 386 l 119 292 m 157 944 l 407 736 l 469 778 l 261 1000 l 157 944 z "},"ё":{"ha":715,"x_min":49,"x_max":667,"o":"m 119 292 l 665 292 q 667 308 667 300 q 667 325 667 317 q 629 499 667 426 q 524 613 592 572 q 365 653 456 653 q 217 619 283 653 q 110 526 151 586 q 54 388 68 467 q 50 354 51 371 q 49 319 49 338 q 88 148 49 224 q 197 29 128 72 q 351 -14 265 -14 q 490 6 435 -14 q 585 63 546 26 q 656 149 624 100 l 565 206 q 515 145 544 171 q 449 105 486 119 q 365 90 413 90 q 257 117 303 90 q 186 194 211 143 q 161 319 161 246 l 164 361 q 191 465 164 421 q 264 532 218 508 q 365 556 310 556 q 459 534 421 556 q 519 474 497 513 q 546 386 540 436 l 119 386 l 119 292 m 428 813 q 451 759 428 782 q 504 736 474 736 q 558 759 536 736 q 581 813 581 782 q 558 867 581 844 q 504 889 536 889 q 451 867 474 889 q 428 813 428 844 m 150 813 q 173 759 150 782 q 226 736 196 736 q 281 759 258 736 q 303 813 303 782 q 281 867 303 844 q 226 889 258 889 q 173 867 196 889 q 150 813 150 844 z "},"ж":{"ha":938,"x_min":0,"x_max":938,"o":"m 771 639 l 493 375 l 799 0 l 938 0 l 618 361 l 910 639 l 771 639 m 521 639 l 417 639 l 417 0 l 521 0 l 521 639 m 167 639 l 28 639 l 319 361 l 0 0 l 139 0 l 444 375 l 167 639 z "},"з":{"ha":654,"x_min":83,"x_max":592,"o":"m 331 319 q 502 365 440 319 q 564 481 564 411 q 535 567 564 528 q 457 629 507 606 q 344 653 407 653 q 225 626 278 653 q 142 553 172 599 q 111 453 111 507 l 224 453 q 236 498 224 475 q 276 537 249 521 q 344 553 303 553 q 422 531 394 553 q 450 472 450 510 q 422 413 450 438 q 331 389 394 389 l 331 319 m 342 -14 q 467 10 410 -14 q 558 80 524 35 q 592 188 592 125 q 521 319 592 278 q 331 361 450 361 l 331 292 q 413 279 379 292 q 465 243 447 267 q 482 186 482 219 q 465 132 482 156 q 417 96 449 108 q 342 83 386 83 q 238 119 269 83 q 196 201 206 156 l 83 201 q 162 47 94 108 q 342 -14 229 -14 z "},"и":{"ha":757,"x_min":111,"x_max":646,"o":"m 639 528 l 646 688 l 118 111 l 111 -49 l 639 528 m 222 639 l 111 639 l 111 -49 l 222 104 l 222 639 m 646 688 l 535 535 l 535 0 l 646 0 l 646 688 z "},"й":{"ha":757,"x_min":111,"x_max":646,"o":"m 639 528 l 646 688 l 118 111 l 111 -49 l 639 528 m 222 639 l 111 639 l 111 -49 l 222 104 l 222 639 m 646 688 l 535 535 l 535 0 l 646 0 l 646 688 m 163 965 q 187 873 163 918 q 260 799 211 828 q 382 771 310 771 q 504 799 456 771 q 577 873 553 828 q 601 965 601 918 l 503 965 q 493 923 503 947 q 457 880 483 899 q 382 861 431 861 q 307 880 333 861 q 271 923 281 899 q 261 965 261 947 l 163 965 z "},"ѝ":{"ha":757,"x_min":111,"x_max":646,"o":"m 639 528 l 646 688 l 118 111 l 111 -49 l 639 528 m 222 639 l 111 639 l 111 -49 l 222 104 l 222 639 m 646 688 l 535 535 l 535 0 l 646 0 l 646 688 m 160 979 l 410 771 l 472 813 l 264 1035 l 160 979 z "},"к":{"ha":611,"x_min":97,"x_max":611,"o":"m 97 639 l 97 0 l 208 0 l 208 639 l 97 639 m 444 639 l 167 375 l 472 0 l 611 0 l 306 375 l 583 639 l 444 639 z "},"ќ":{"ha":611,"x_min":97,"x_max":611,"o":"m 97 639 l 97 0 l 208 0 l 208 639 l 97 639 m 444 639 l 167 375 l 472 0 l 611 0 l 306 375 l 583 639 l 444 639 m 590 944 l 486 1000 l 278 778 l 340 736 l 590 944 z "},"л":{"ha":775,"x_min":14,"x_max":664,"o":"m 664 639 l 115 639 l 115 222 q 85 128 115 154 q 14 101 56 101 l 14 0 q 133 24 86 0 q 203 98 181 49 q 226 222 226 147 l 226 535 l 553 535 l 553 0 l 664 0 l 664 639 z "},"м":{"ha":843,"x_min":7,"x_max":836,"o":"m 711 0 l 836 0 l 669 688 l 607 507 l 711 0 m 378 96 l 419 -43 l 683 465 l 669 688 l 378 96 m 419 -43 l 461 96 l 174 688 l 160 465 l 419 -43 m 7 0 l 132 0 l 236 507 l 174 688 l 7 0 z "},"н":{"ha":785,"x_min":104,"x_max":681,"o":"m 169 285 l 642 285 l 642 389 l 169 389 l 169 285 m 569 639 l 569 0 l 681 0 l 681 639 l 569 639 m 104 639 l 104 0 l 215 0 l 215 639 l 104 639 z "},"о":{"ha":758,"x_min":49,"x_max":710,"o":"m 49 319 q 92 148 49 224 q 211 29 136 72 q 379 -14 286 -14 q 548 29 474 -14 q 666 148 622 72 q 710 319 710 224 q 666 492 710 417 q 548 610 622 567 q 379 653 474 653 q 211 610 286 653 q 92 492 136 567 q 49 319 49 417 m 161 319 q 190 438 161 386 q 267 519 218 490 q 379 549 317 549 q 491 519 442 549 q 569 438 540 490 q 597 319 597 386 q 569 201 597 253 q 491 120 540 150 q 379 90 442 90 q 267 120 317 90 q 190 201 218 150 q 161 319 161 253 z "},"п":{"ha":729,"x_min":104,"x_max":625,"o":"m 625 639 l 104 639 l 104 0 l 215 0 l 215 535 l 514 535 l 514 0 l 625 0 l 625 639 z "},"р":{"ha":792,"x_min":97,"x_max":743,"o":"m 208 -306 l 208 639 l 97 639 l 97 -306 l 208 -306 m 743 319 q 700 498 743 424 q 585 613 657 572 q 426 653 514 653 q 287 613 347 653 q 192 498 226 572 q 158 319 158 424 q 192 142 158 217 q 287 26 226 67 q 426 -14 347 -14 q 585 26 514 -14 q 700 142 657 67 q 743 319 743 217 m 631 319 q 601 194 631 246 q 522 117 571 143 q 413 90 472 90 q 317 117 364 90 q 239 194 269 143 q 208 319 208 246 q 239 444 208 393 q 317 522 269 496 q 413 549 364 549 q 522 522 472 549 q 601 444 571 496 q 631 319 631 393 z "},"с":{"ha":664,"x_min":42,"x_max":594,"o":"m 154 319 q 183 438 154 386 q 260 519 211 490 q 372 549 310 549 q 469 533 424 549 q 547 490 514 517 q 594 432 581 464 l 594 571 q 499 631 561 610 q 372 653 438 653 q 204 610 279 653 q 85 492 129 567 q 42 319 42 417 q 85 148 42 224 q 204 29 129 72 q 372 -14 279 -14 q 499 8 438 -14 q 594 68 561 29 l 594 207 q 547 149 581 176 q 469 106 514 122 q 372 90 424 90 q 260 120 310 90 q 183 201 211 150 q 154 319 154 253 z "},"т":{"ha":389,"x_min":7,"x_max":382,"o":"m 7 639 l 7 535 l 382 535 l 382 639 l 7 639 m 139 611 l 139 0 l 250 0 l 250 611 l 139 611 z "},"у":{"ha":611,"x_min":0,"x_max":611,"o":"m 611 639 l 486 639 l 289 144 l 335 139 l 132 639 l 0 639 l 244 90 l 69 -306 l 194 -306 l 611 639 z "},"ў":{"ha":611,"x_min":0,"x_max":611,"o":"m 611 639 l 486 639 l 289 144 l 335 139 l 132 639 l 0 639 l 244 90 l 69 -306 l 194 -306 l 611 639 m 86 931 q 110 838 86 883 q 184 765 135 793 q 306 736 233 736 q 428 765 379 736 q 501 838 476 793 q 525 931 525 883 l 426 931 q 417 888 426 913 q 381 845 407 864 q 306 826 354 826 q 231 845 257 826 q 194 888 204 864 q 185 931 185 913 l 86 931 z "},"ф":{"ha":814,"x_min":49,"x_max":765,"o":"m 351 778 l 351 -139 l 463 -139 l 463 778 l 351 778 m 49 319 q 93 148 49 224 q 219 29 138 72 q 407 -14 300 -14 q 596 29 515 -14 q 721 148 676 72 q 765 319 765 224 q 721 492 765 417 q 596 610 676 567 q 407 653 515 653 q 219 610 300 653 q 93 492 138 567 q 49 319 49 417 m 161 319 q 191 438 161 386 q 276 519 221 490 q 407 549 331 549 q 538 519 483 549 q 623 438 593 490 q 653 319 653 386 q 623 201 653 253 q 538 120 593 150 q 407 90 483 90 q 276 120 331 90 q 191 201 221 150 q 161 319 161 253 z "},"х":{"ha":583,"x_min":0,"x_max":583,"o":"m 444 639 l 292 417 l 139 639 l 14 639 l 232 329 l 0 0 l 125 0 l 292 242 l 458 0 l 583 0 l 351 329 l 569 639 l 444 639 z "},"ц":{"ha":785,"x_min":104,"x_max":736,"o":"m 625 104 l 625 639 l 514 639 l 514 104 l 215 104 l 215 639 l 104 639 l 104 0 l 639 0 l 639 -125 l 736 -125 l 736 104 l 625 104 z "},"ч":{"ha":674,"x_min":69,"x_max":569,"o":"m 319 194 l 538 194 l 538 299 l 319 299 l 319 194 m 458 639 l 458 0 l 569 0 l 569 639 l 458 639 m 181 639 l 69 639 l 69 456 q 92 305 69 363 q 169 221 114 247 q 319 194 224 194 l 319 299 q 236 315 267 299 q 193 365 206 331 q 181 456 181 400 l 181 639 z "},"ш":{"ha":1083,"x_min":104,"x_max":979,"o":"m 597 104 l 597 639 l 486 639 l 486 104 l 215 104 l 215 639 l 104 639 l 104 0 l 979 0 l 979 639 l 868 639 l 868 104 l 597 104 z "},"щ":{"ha":1139,"x_min":104,"x_max":1090,"o":"m 597 104 l 597 639 l 486 639 l 486 104 l 215 104 l 215 639 l 104 639 l 104 0 l 993 0 l 993 -125 l 1090 -125 l 1090 104 l 979 104 l 979 639 l 868 639 l 868 104 l 597 104 z "},"ъ":{"ha":803,"x_min":7,"x_max":733,"o":"m 301 300 l 500 300 q 592 274 561 300 q 622 199 622 247 q 608 144 622 167 q 567 109 594 121 q 500 97 540 97 l 301 97 l 301 0 l 500 0 q 619 21 567 0 q 703 86 672 42 q 733 199 733 131 q 666 349 733 301 q 500 397 599 397 l 301 397 l 301 300 m 236 535 l 236 0 l 347 0 l 347 639 l 7 639 l 7 535 l 236 535 z "},"ы":{"ha":896,"x_min":104,"x_max":792,"o":"m 681 639 l 681 0 l 792 0 l 792 639 l 681 639 m 104 639 l 104 0 l 215 0 l 215 639 l 104 639 m 169 300 l 368 300 q 460 274 429 300 q 490 199 490 247 q 476 144 490 167 q 435 109 463 121 q 368 97 408 97 l 169 97 l 169 0 l 368 0 q 488 21 435 0 q 571 86 540 42 q 601 199 601 131 q 534 349 601 301 q 368 397 467 397 l 169 397 l 169 300 z "},"ь":{"ha":671,"x_min":104,"x_max":601,"o":"m 104 639 l 104 0 l 215 0 l 215 639 l 104 639 m 169 300 l 368 300 q 460 274 429 300 q 490 199 490 247 q 476 144 490 167 q 435 109 463 121 q 368 97 408 97 l 169 97 l 169 0 l 368 0 q 488 21 435 0 q 571 86 540 42 q 601 199 601 131 q 534 349 601 301 q 368 397 467 397 l 169 397 l 169 300 z "},"э":{"ha":664,"x_min":69,"x_max":622,"o":"m 190 371 l 190 268 l 510 268 l 607 371 l 190 371 m 510 319 q 481 201 510 253 q 403 120 453 150 q 292 90 354 90 q 195 106 240 90 q 117 149 150 122 q 69 207 85 176 l 69 68 q 165 8 103 29 q 292 -14 226 -14 q 460 29 386 -14 q 578 148 535 72 q 622 319 622 224 q 578 492 622 417 q 460 610 535 567 q 292 653 386 653 q 165 631 226 653 q 69 571 103 610 l 69 432 q 117 490 85 464 q 195 533 150 517 q 292 549 240 549 q 403 519 354 549 q 481 438 453 490 q 510 319 510 386 z "},"ю":{"ha":1036,"x_min":104,"x_max":988,"o":"m 169 285 l 406 285 l 406 389 l 169 389 l 169 285 m 104 639 l 104 0 l 215 0 l 215 639 l 104 639 m 326 319 q 370 148 326 224 q 489 29 414 72 q 657 -14 564 -14 q 826 29 751 -14 q 944 148 900 72 q 988 319 988 224 q 944 492 988 417 q 826 610 900 567 q 657 653 751 653 q 489 610 564 653 q 370 492 414 567 q 326 319 326 417 m 439 319 q 467 438 439 386 q 545 519 496 490 q 657 549 594 549 q 769 519 719 549 q 847 438 818 490 q 875 319 875 386 q 847 201 875 253 q 769 120 818 150 q 657 90 719 90 q 545 120 594 90 q 467 201 496 150 q 439 319 439 253 z "},"я":{"ha":671,"x_min":74,"x_max":601,"o":"m 196 0 l 432 333 l 310 333 l 74 0 l 196 0 m 601 0 l 601 639 l 490 639 l 490 0 l 601 0 m 536 353 l 338 353 q 270 363 297 353 q 229 394 243 374 q 215 447 215 415 q 229 500 215 479 q 270 531 243 521 q 338 542 297 542 l 536 542 l 536 639 l 338 639 q 219 619 272 639 q 135 558 165 600 q 104 447 104 517 q 135 337 104 379 q 219 275 165 294 q 338 256 272 256 l 536 256 l 536 353 z "},"ª":{"ha":331,"x_min":28,"x_max":303,"o":"m 85 739 q 107 789 85 768 q 167 810 129 810 q 222 801 197 810 q 269 776 247 793 l 269 810 q 236 835 263 818 q 164 851 210 851 q 70 820 113 851 q 28 739 28 789 q 62 660 28 688 q 139 632 96 632 q 224 658 189 632 q 258 729 258 683 l 247 764 q 218 701 247 719 q 153 682 189 682 q 99 699 114 682 q 85 739 85 717 m 85 897 q 121 918 96 906 q 181 931 146 931 q 227 918 207 931 q 247 882 247 906 l 247 639 l 303 639 l 303 882 q 269 953 303 928 q 181 979 235 979 q 107 966 138 979 q 58 940 76 953 l 85 897 z "},"º":{"ha":386,"x_min":28,"x_max":358,"o":"m 28 806 q 75 686 28 733 q 193 639 122 639 q 311 686 264 639 q 358 806 358 733 q 311 926 358 879 q 193 972 264 972 q 75 926 122 972 q 28 806 28 879 m 83 806 q 115 888 83 856 q 193 919 146 919 q 272 888 240 919 q 303 806 303 856 q 272 724 303 756 q 193 692 240 692 q 115 724 146 692 q 83 806 83 756 z "},"̀":{"ha":0,"x_min":0,"x_max":313,"o":"m 250 757 l 313 799 l 104 1021 l 0 965 l 250 757 z "},"́":{"ha":0,"x_min":21,"x_max":333,"o":"m 83 757 l 333 965 l 229 1021 l 21 799 l 83 757 z "},"̂":{"ha":0,"x_min":0,"x_max":419,"o":"m 57 760 l 233 911 l 186 911 l 363 760 l 419 828 l 210 1008 l 0 828 l 57 760 z "},"̃":{"ha":0,"x_min":0,"x_max":458,"o":"m 74 817 q 79 844 74 828 q 100 874 85 861 q 143 888 115 888 q 198 872 175 888 q 247 839 221 856 q 311 822 274 822 q 375 837 346 822 q 426 875 404 851 q 458 924 447 899 l 394 983 q 355 933 374 950 q 317 917 336 917 q 271 926 289 917 q 237 949 253 936 q 199 972 221 963 q 144 982 178 982 q 83 967 114 982 q 29 928 51 953 q 0 868 7 903 l 74 817 z "},"̄":{"ha":0,"x_min":0,"x_max":486,"o":"m 0 833 l 486 833 l 486 938 l 0 938 l 0 833 z "},"̆":{"ha":0,"x_min":0,"x_max":439,"o":"m 219 750 q 333 775 283 750 q 410 844 382 800 q 439 944 439 889 l 340 944 q 324 892 340 915 q 281 854 308 868 q 219 840 254 840 q 158 854 185 840 q 115 892 131 868 q 99 944 99 915 l 0 944 q 28 844 0 889 q 106 775 57 800 q 219 750 156 750 z "},"̇":{"ha":0,"x_min":0,"x_max":153,"o":"m 76 792 q 131 815 108 792 q 153 868 153 838 q 131 922 153 900 q 76 944 108 944 q 23 922 46 944 q 0 868 0 900 q 23 815 0 838 q 76 792 46 792 z "},"̈":{"ha":0,"x_min":0,"x_max":431,"o":"m 76 840 q 132 861 111 840 q 153 917 153 882 q 132 972 153 951 q 76 993 111 993 q 21 972 42 993 q 0 917 0 951 q 21 861 0 882 q 76 840 42 840 m 354 840 q 410 861 389 840 q 431 917 431 882 q 410 972 431 951 q 354 993 389 993 q 299 972 319 993 q 278 917 278 951 q 299 861 278 882 q 354 840 319 840 z "},"̊":{"ha":0,"x_min":0,"x_max":313,"o":"m 156 722 q 234 743 199 722 q 291 799 269 764 q 313 875 313 833 q 291 952 313 918 q 234 1007 269 986 q 156 1028 199 1028 q 46 983 92 1028 q 0 875 0 939 q 46 767 0 811 q 156 722 92 722 m 156 794 q 101 818 124 794 q 78 875 78 842 q 101 932 78 908 q 156 956 124 956 q 210 932 188 956 q 233 875 233 908 q 210 818 233 842 q 156 794 188 794 z "},"̋":{"ha":0,"x_min":0,"x_max":489,"o":"m 72 710 l 258 975 l 144 1003 l 0 733 l 72 710 m 300 710 l 489 975 l 372 1003 l 229 733 l 300 710 z "},"̌":{"ha":0,"x_min":0,"x_max":419,"o":"m 210 760 l 419 942 l 363 1008 l 186 857 l 233 857 l 57 1008 l 0 942 l 210 760 z "},"̒":{"ha":0,"x_min":0,"x_max":233,"o":"m 111 694 l 233 1054 l 153 1083 l 0 736 l 111 694 z "},"̦":{"ha":0,"x_min":0,"x_max":214,"o":"m 56 -306 l 214 -69 l 136 -24 l 0 -274 l 56 -306 z "},"̧":{"ha":0,"x_min":0,"x_max":272,"o":"m 124 -306 q 231 -268 189 -306 q 272 -175 272 -231 q 244 -99 272 -133 q 171 -65 215 -65 q 133 -72 144 -65 q 110 -100 121 -79 l 143 -100 l 247 83 l 163 83 l 51 -129 q 86 -126 65 -126 q 124 -125 107 -125 q 176 -137 160 -125 q 193 -175 193 -150 q 175 -216 193 -201 q 124 -231 157 -231 q 79 -226 97 -231 q 32 -204 61 -221 l 0 -267 q 57 -297 29 -287 q 124 -306 85 -306 z "},"̨":{"ha":0,"x_min":0,"x_max":293,"o":"m 171 -306 q 247 -288 215 -306 q 293 -250 278 -271 l 247 -181 q 219 -201 233 -194 q 178 -208 206 -208 q 129 -192 147 -208 q 111 -139 111 -176 q 128 -87 111 -112 q 175 -38 146 -61 q 240 0 204 -15 l 183 35 q 93 -22 135 10 q 26 -89 51 -53 q 0 -167 0 -125 q 19 -239 0 -207 q 75 -288 38 -271 q 171 -306 113 -306 z "},"０":{"ha":806,"x_min":42,"x_max":764,"o":"m 160 486 q 176 642 160 571 q 225 766 193 714 q 302 847 257 818 q 403 875 347 875 q 504 847 460 875 q 581 766 549 818 q 629 642 613 714 q 646 486 646 571 q 629 330 646 401 q 581 206 613 258 q 504 126 549 154 q 403 97 460 97 q 302 126 347 97 q 225 206 257 154 q 176 330 193 258 q 160 486 160 401 m 42 486 q 88 228 42 340 q 215 51 133 115 q 403 -14 296 -14 q 591 51 510 -14 q 718 228 672 115 q 764 486 764 340 q 718 744 764 632 q 591 922 672 857 q 403 986 510 986 q 215 922 296 986 q 88 744 133 857 q 42 486 42 632 z "},"１":{"ha":806,"x_min":160,"x_max":493,"o":"m 160 781 l 375 844 l 375 0 l 493 0 l 493 986 l 160 903 l 160 781 z "},"２":{"ha":806,"x_min":36,"x_max":722,"o":"m 36 0 l 722 0 l 722 111 l 278 111 l 589 426 q 681 551 646 485 q 717 693 717 618 q 700 794 717 742 q 648 890 683 846 q 556 960 613 933 q 419 988 500 988 q 246 944 319 988 q 132 822 172 900 q 92 639 92 743 l 208 639 q 235 766 208 713 q 310 848 263 819 q 419 876 357 876 q 497 861 464 876 q 553 821 531 846 q 586 765 575 796 q 597 703 597 735 q 585 628 597 664 q 549 559 572 593 q 494 490 526 525 l 36 0 z "},"３":{"ha":806,"x_min":107,"x_max":719,"o":"m 375 479 q 540 513 469 479 q 651 603 611 546 q 692 728 692 660 q 659 856 692 797 q 566 950 626 914 q 422 986 506 986 q 281 953 343 986 q 184 864 219 921 q 149 731 149 807 l 261 731 q 308 837 261 794 q 424 879 356 879 q 505 860 472 879 q 554 805 538 840 q 571 724 571 769 q 558 658 571 689 q 519 605 544 628 q 458 569 494 582 q 375 556 422 556 l 375 479 m 417 -14 q 572 19 504 -14 q 680 114 640 53 q 719 257 719 175 q 692 381 719 329 q 617 465 665 432 q 508 513 569 497 q 375 528 446 528 l 375 451 q 463 440 422 451 q 533 406 503 429 q 581 349 564 383 q 599 271 599 315 q 576 179 599 218 q 513 119 554 140 q 417 97 472 97 q 318 118 361 97 q 251 175 275 139 q 226 257 226 211 l 107 257 q 129 151 107 200 q 192 65 151 101 q 289 7 232 28 q 417 -14 346 -14 z "},"４":{"ha":806,"x_min":25,"x_max":765,"o":"m 25 194 l 765 194 l 765 299 l 567 299 l 543 299 l 122 299 l 25 194 m 150 194 l 494 710 l 494 260 l 494 244 l 494 0 l 613 0 l 613 972 l 564 972 l 25 194 l 150 194 z "},"５":{"ha":806,"x_min":53,"x_max":739,"o":"m 739 319 q 701 490 739 417 q 598 606 664 564 q 449 647 532 647 q 328 623 388 647 q 219 546 268 599 l 150 454 q 238 508 200 489 q 315 534 276 526 q 399 542 353 542 q 510 514 461 542 q 588 436 560 486 q 617 319 617 386 q 591 203 617 253 q 517 125 565 153 q 399 97 468 97 q 297 120 344 97 q 212 180 249 143 q 153 258 175 217 l 53 190 q 131 88 85 135 q 244 14 178 42 q 399 -14 310 -14 q 531 7 469 -14 q 639 69 592 28 q 713 174 686 111 q 739 319 739 236 m 369 868 l 736 868 l 736 972 l 278 972 l 150 454 l 296 579 l 369 868 z "},"６":{"ha":806,"x_min":72,"x_max":733,"o":"m 185 319 q 213 438 185 386 q 291 519 242 490 q 403 549 340 549 q 515 519 465 549 q 592 438 564 490 q 621 319 621 386 q 592 202 621 253 q 515 122 564 151 q 403 93 465 93 q 291 122 340 93 q 213 202 242 151 q 185 319 185 253 m 461 972 l 133 521 q 89 431 106 482 q 72 319 72 379 q 116 144 72 219 q 235 28 160 69 q 403 -14 310 -14 q 572 28 497 -14 q 690 144 646 69 q 733 319 733 219 q 711 444 733 386 q 649 544 689 501 q 558 611 610 588 q 446 635 506 635 q 362 624 399 635 q 297 578 325 613 l 306 571 l 610 972 l 461 972 z "},"７":{"ha":806,"x_min":81,"x_max":761,"o":"m 81 861 l 583 861 l 172 0 l 294 0 l 761 972 l 81 972 l 81 861 z "},"８":{"ha":806,"x_min":100,"x_max":706,"o":"m 135 738 q 154 635 135 681 q 209 558 174 590 q 294 510 244 526 q 403 493 343 493 q 512 510 463 493 q 597 558 561 526 q 651 635 632 590 q 671 738 671 681 q 635 863 671 807 q 540 953 600 919 q 403 986 479 986 q 266 953 326 986 q 170 863 206 919 q 135 738 135 807 m 247 724 q 267 806 247 769 q 323 862 288 842 q 403 882 358 882 q 483 862 449 882 q 538 806 518 842 q 558 724 558 769 q 537 643 558 678 q 480 589 515 608 q 403 569 444 569 q 326 589 361 569 q 269 643 290 608 q 247 724 247 678 m 100 264 q 123 157 100 207 q 187 68 146 107 q 283 8 228 29 q 403 -14 338 -14 q 523 8 468 -14 q 619 68 578 29 q 683 157 660 107 q 706 264 706 207 q 681 383 706 331 q 615 470 657 435 q 517 524 572 506 q 403 542 463 542 q 288 524 343 542 q 191 470 233 506 q 124 383 149 435 q 100 264 100 331 m 213 278 q 240 373 213 331 q 310 440 267 415 q 403 465 354 465 q 495 440 451 465 q 566 373 539 415 q 593 278 593 331 q 566 176 593 218 q 495 113 539 135 q 403 90 451 90 q 310 113 354 90 q 240 176 267 135 q 213 278 213 218 z "},"９":{"ha":806,"x_min":72,"x_max":733,"o":"m 621 653 q 592 535 621 586 q 515 453 564 483 q 403 424 465 424 q 291 453 340 424 q 213 535 242 483 q 185 653 185 586 q 213 770 185 719 q 291 850 242 821 q 403 879 340 879 q 515 850 465 879 q 592 770 564 821 q 621 653 621 719 m 344 0 l 672 451 q 717 542 700 490 q 733 653 733 593 q 690 828 733 753 q 572 944 646 903 q 403 986 497 986 q 235 944 310 986 q 116 828 160 903 q 72 653 72 753 q 94 528 72 586 q 156 428 117 471 q 248 361 196 385 q 360 338 300 338 q 444 349 407 338 q 508 394 481 360 l 500 401 l 196 0 l 344 0 z "},"¹":{"ha":653,"x_min":211,"x_max":411,"o":"m 211 849 l 340 888 l 340 381 l 411 381 l 411 972 l 211 922 l 211 849 z "},"²":{"ha":481,"x_min":35,"x_max":446,"o":"m 35 392 l 446 392 l 446 458 l 181 458 l 365 647 q 422 724 400 683 q 443 808 443 764 q 425 888 443 847 q 368 957 407 929 q 265 985 329 985 q 161 958 206 985 q 92 885 117 932 q 68 775 68 838 l 139 775 q 174 880 139 842 q 265 918 210 918 q 324 903 301 918 q 359 864 347 888 q 371 814 371 840 q 355 748 371 779 q 310 686 339 717 l 35 392 z "},"³":{"ha":433,"x_min":35,"x_max":403,"o":"m 196 676 q 295 697 253 676 q 362 751 338 717 q 386 825 386 785 q 343 933 386 886 q 225 981 300 981 q 106 938 153 981 q 60 828 60 896 l 128 828 q 156 892 128 867 q 225 917 185 917 q 292 891 269 917 q 314 824 314 865 q 300 773 314 796 q 260 736 286 750 q 196 722 233 722 l 196 676 m 221 381 q 351 425 299 381 q 403 543 403 469 q 374 637 403 601 q 299 689 346 672 q 196 706 253 706 l 196 660 q 264 648 233 660 q 313 612 294 636 q 331 551 331 588 q 301 476 331 504 q 221 447 271 447 q 139 474 171 447 q 107 543 107 501 l 35 543 q 58 461 35 499 q 123 402 81 424 q 221 381 165 381 z "},"¼":{"ha":1047,"x_min":42,"x_max":997,"o":"m 858 972 l 136 0 l 226 0 l 949 972 l 858 972 m 42 849 l 171 888 l 171 381 l 242 381 l 242 972 l 42 922 l 42 849 m 553 117 l 997 117 l 997 179 l 878 179 l 864 179 l 611 179 l 553 117 m 628 117 l 835 426 l 835 156 l 835 147 l 835 0 l 906 0 l 906 583 l 876 583 l 553 117 l 628 117 z "},"½":{"ha":1138,"x_min":42,"x_max":1096,"o":"m 858 972 l 136 0 l 226 0 l 949 972 l 858 972 m 42 849 l 171 888 l 171 381 l 242 381 l 242 972 l 42 922 l 42 849 m 685 3 l 1096 3 l 1096 69 l 831 69 l 1015 258 q 1072 335 1050 294 q 1093 419 1093 375 q 1075 499 1093 458 q 1018 568 1057 540 q 915 596 979 596 q 811 569 856 596 q 742 496 767 543 q 718 386 718 449 l 789 386 q 824 491 789 453 q 915 529 860 529 q 974 514 951 529 q 1009 475 997 499 q 1021 425 1021 451 q 1005 359 1021 390 q 960 297 989 328 l 685 3 z "},"¾":{"ha":1139,"x_min":42,"x_max":1090,"o":"m 951 972 l 229 0 l 319 0 l 1042 972 l 951 972 m 203 676 q 302 697 260 676 q 369 751 344 717 q 393 825 393 785 q 350 933 393 886 q 232 981 307 981 q 113 938 160 981 q 67 828 67 896 l 135 828 q 163 892 135 867 q 232 917 192 917 q 299 891 276 917 q 321 824 321 865 q 307 773 321 796 q 267 736 293 750 q 203 722 240 722 l 203 676 m 228 381 q 358 425 306 381 q 410 543 410 469 q 381 637 410 601 q 306 689 353 672 q 203 706 260 706 l 203 660 q 271 648 240 660 q 319 612 301 636 q 338 551 338 588 q 308 476 338 504 q 228 447 278 447 q 146 474 178 447 q 114 543 114 501 l 42 543 q 65 461 42 499 q 130 402 88 424 q 228 381 172 381 m 646 117 l 1090 117 l 1090 179 l 971 179 l 957 179 l 704 179 l 646 117 m 721 117 l 928 426 l 928 156 l 928 147 l 928 0 l 999 0 l 999 583 l 969 583 l 646 117 l 721 117 z "},"⁰":{"ha":517,"x_min":42,"x_max":475,"o":"m 113 681 q 130 801 113 749 q 181 884 147 854 q 258 914 214 914 q 337 884 304 914 q 387 801 369 854 q 404 681 404 749 q 387 560 404 613 q 337 477 369 507 q 258 447 304 447 q 181 477 214 447 q 130 560 147 507 q 113 681 113 613 m 42 681 q 69 526 42 594 q 146 419 97 458 q 258 381 194 381 q 371 419 322 381 q 447 526 419 458 q 475 681 475 594 q 447 835 475 768 q 371 942 419 903 q 258 981 322 981 q 146 942 194 981 q 69 835 97 903 q 42 681 42 768 z "},"⁴":{"ha":536,"x_min":42,"x_max":486,"o":"m 42 506 l 486 506 l 486 568 l 367 568 l 353 568 l 100 568 l 42 506 m 117 506 l 324 815 l 324 544 l 324 536 l 324 389 l 394 389 l 394 972 l 365 972 l 42 506 l 117 506 z "},"⁵":{"ha":494,"x_min":42,"x_max":453,"o":"m 453 578 q 431 681 453 636 q 369 750 408 725 q 279 775 329 775 q 207 760 243 775 q 142 714 171 746 l 100 658 q 176 701 144 690 q 249 711 207 711 q 342 675 306 711 q 379 578 379 639 q 345 481 379 518 q 249 444 311 444 q 161 474 201 444 q 101 542 121 504 l 42 500 q 119 414 71 450 q 249 378 168 378 q 351 400 306 378 q 425 467 397 422 q 453 578 453 513 m 231 907 l 451 907 l 451 969 l 176 969 l 100 658 l 188 733 l 231 907 z "},"⁶":{"ha":481,"x_min":50,"x_max":447,"o":"m 118 578 q 135 649 118 618 q 182 698 153 681 q 249 715 211 715 q 316 698 286 715 q 363 649 346 681 q 379 578 379 618 q 342 480 379 518 q 249 442 306 442 q 156 480 193 442 q 118 578 118 518 m 283 969 l 88 699 q 60 645 71 676 q 50 578 50 614 q 76 473 50 518 q 148 403 103 428 q 249 378 193 378 q 350 403 306 378 q 421 473 394 428 q 447 578 447 518 q 424 674 447 632 q 361 742 400 717 q 275 767 322 767 q 225 760 247 767 q 186 733 203 754 l 190 729 l 374 969 l 283 969 z "},"⁷":{"ha":492,"x_min":42,"x_max":450,"o":"m 42 906 l 344 906 l 97 389 l 171 389 l 450 972 l 42 972 l 42 906 z "},"⁸":{"ha":447,"x_min":42,"x_max":406,"o":"m 63 832 q 83 754 63 788 q 140 703 103 721 q 224 685 176 685 q 308 703 272 685 q 365 754 344 721 q 385 832 385 788 q 363 907 385 874 q 306 960 342 940 q 224 981 269 981 q 141 960 178 981 q 83 907 104 940 q 63 832 63 874 m 131 824 q 157 892 131 865 q 224 918 183 918 q 290 892 264 918 q 317 824 317 865 q 304 775 317 796 q 270 742 292 754 q 224 731 249 731 q 178 742 199 731 q 144 775 157 754 q 131 824 131 796 m 42 547 q 65 465 42 503 q 131 403 89 426 q 224 381 172 381 q 317 403 276 381 q 382 465 358 426 q 406 547 406 503 q 391 619 406 588 q 351 671 376 650 q 292 703 325 692 q 224 714 260 714 q 155 703 188 714 q 97 671 122 692 q 56 619 71 650 q 42 547 42 588 m 110 556 q 126 613 110 588 q 169 653 143 639 q 224 668 194 668 q 278 653 253 668 q 321 613 304 639 q 338 556 338 588 q 303 472 338 501 q 224 443 268 443 q 145 472 181 443 q 110 556 110 501 z "},"⁹":{"ha":481,"x_min":58,"x_max":456,"o":"m 388 783 q 371 712 388 743 q 324 663 354 681 q 257 646 294 646 q 190 663 219 646 q 144 712 161 681 q 126 783 126 743 q 164 882 126 844 q 257 919 201 919 q 351 882 314 919 q 388 783 388 844 m 222 392 l 418 663 q 445 717 435 686 q 456 783 456 749 q 429 888 456 843 q 358 958 403 933 q 257 983 314 983 q 156 958 201 983 q 85 888 111 933 q 58 783 58 843 q 82 688 58 731 q 144 619 106 644 q 231 594 183 594 q 281 601 258 594 q 319 628 303 607 l 315 632 l 132 392 l 222 392 z "},"₀":{"ha":517,"x_min":42,"x_max":475,"o":"m 113 292 q 130 413 113 360 q 181 495 147 465 q 258 525 214 525 q 337 495 304 525 q 387 413 369 465 q 404 292 404 360 q 387 171 404 224 q 337 88 369 118 q 258 58 304 58 q 181 88 214 58 q 130 171 147 118 q 113 292 113 224 m 42 292 q 69 138 42 206 q 146 31 97 69 q 258 -8 194 -8 q 371 31 322 -8 q 447 138 419 69 q 475 292 475 206 q 447 447 475 379 q 371 553 419 514 q 258 592 322 592 q 146 553 194 592 q 69 447 97 514 q 42 292 42 379 z "},"₁":{"ha":436,"x_min":125,"x_max":325,"o":"m 125 469 l 254 508 l 254 1 l 325 1 l 325 593 l 125 543 l 125 469 z "},"₂":{"ha":481,"x_min":35,"x_max":446,"o":"m 35 3 l 446 3 l 446 69 l 181 69 l 365 258 q 422 335 400 294 q 443 419 443 375 q 425 499 443 458 q 368 568 407 540 q 265 596 329 596 q 161 569 206 596 q 92 496 117 543 q 68 386 68 449 l 139 386 q 174 491 139 453 q 265 529 210 529 q 324 514 301 529 q 359 475 347 499 q 371 425 371 451 q 355 359 371 390 q 310 297 339 328 l 35 3 z "},"₃":{"ha":433,"x_min":35,"x_max":403,"o":"m 196 288 q 295 308 253 288 q 362 362 338 328 q 386 436 386 396 q 343 544 386 497 q 225 592 300 592 q 106 549 153 592 q 60 439 60 507 l 128 439 q 156 503 128 478 q 225 528 185 528 q 292 502 269 528 q 314 435 314 476 q 300 384 314 407 q 260 347 286 361 q 196 333 233 333 l 196 288 m 221 -8 q 351 36 299 -8 q 403 154 403 81 q 374 248 403 213 q 299 300 346 283 q 196 317 253 317 l 196 271 q 264 259 233 271 q 313 223 294 247 q 331 163 331 199 q 301 87 331 115 q 221 58 271 58 q 139 85 171 58 q 107 154 107 113 l 35 154 q 58 72 35 110 q 123 13 81 35 q 221 -8 165 -8 z "},"₄":{"ha":536,"x_min":42,"x_max":486,"o":"m 42 117 l 486 117 l 486 179 l 367 179 l 353 179 l 100 179 l 42 117 m 117 117 l 324 426 l 324 156 l 324 147 l 324 0 l 394 0 l 394 583 l 365 583 l 42 117 l 117 117 z "},"₅":{"ha":494,"x_min":42,"x_max":453,"o":"m 453 189 q 431 292 453 247 q 369 361 408 336 q 279 386 329 386 q 207 372 243 386 q 142 325 171 357 l 100 269 q 176 312 144 301 q 249 322 207 322 q 342 286 306 322 q 379 189 379 250 q 345 92 379 129 q 249 56 311 56 q 161 85 201 56 q 101 153 121 115 l 42 111 q 119 25 71 61 q 249 -11 168 -11 q 351 11 306 -11 q 425 78 397 33 q 453 189 453 124 m 231 518 l 451 518 l 451 581 l 176 581 l 100 269 l 188 344 l 231 518 z "},"₆":{"ha":481,"x_min":49,"x_max":446,"o":"m 117 189 q 134 260 117 229 q 181 309 151 292 q 247 326 210 326 q 315 309 285 326 q 361 260 344 292 q 378 189 378 229 q 341 91 378 129 q 247 53 304 53 q 154 91 192 53 q 117 189 117 129 m 282 581 l 86 310 q 59 256 69 288 q 49 189 49 225 q 75 84 49 129 q 147 14 101 39 q 247 -11 192 -11 q 349 14 304 -11 q 419 84 393 39 q 446 189 446 129 q 422 285 446 243 q 360 353 399 328 q 274 378 321 378 q 224 372 246 378 q 185 344 201 365 l 189 340 l 372 581 l 282 581 z "},"₇":{"ha":492,"x_min":42,"x_max":450,"o":"m 42 517 l 344 517 l 97 0 l 171 0 l 450 583 l 42 583 l 42 517 z "},"₈":{"ha":447,"x_min":42,"x_max":406,"o":"m 63 443 q 83 365 63 399 q 140 314 103 332 q 224 296 176 296 q 308 314 272 296 q 365 365 344 332 q 385 443 385 399 q 363 518 385 485 q 306 572 342 551 q 224 592 269 592 q 141 572 178 592 q 83 518 104 551 q 63 443 63 485 m 131 435 q 157 503 131 476 q 224 529 183 529 q 290 503 264 529 q 317 435 317 476 q 304 386 317 407 q 270 353 292 365 q 224 342 249 342 q 178 353 199 342 q 144 386 157 365 q 131 435 131 407 m 42 158 q 65 76 42 114 q 131 15 89 38 q 224 -8 172 -8 q 317 15 276 -8 q 382 76 358 38 q 406 158 406 114 q 391 230 406 199 q 351 282 376 261 q 292 314 325 303 q 224 325 260 325 q 155 314 188 325 q 97 282 122 303 q 56 230 71 261 q 42 158 42 199 m 110 167 q 126 224 110 199 q 169 265 143 250 q 224 279 194 279 q 278 265 253 279 q 321 224 304 250 q 338 167 338 199 q 303 83 338 113 q 224 54 268 54 q 145 83 181 54 q 110 167 110 113 z "},"₉":{"ha":481,"x_min":35,"x_max":432,"o":"m 364 394 q 347 323 364 354 q 301 274 331 292 q 233 257 271 257 q 167 274 196 257 q 120 323 138 292 q 103 394 103 354 q 140 493 103 456 q 233 531 178 531 q 327 493 290 531 q 364 394 364 456 m 199 3 l 394 274 q 422 328 411 297 q 432 394 432 360 q 406 499 432 454 q 335 569 379 544 q 233 594 290 594 q 133 569 178 594 q 61 499 88 544 q 35 394 35 454 q 58 298 35 340 q 121 231 82 256 q 207 206 160 206 q 257 212 235 206 q 296 239 279 218 l 292 243 l 108 3 l 199 3 z "},"⅐":{"ha":1169,"x_min":42,"x_max":1128,"o":"m 789 972 l 67 0 l 157 0 l 879 972 l 789 972 m 42 849 l 171 888 l 171 381 l 242 381 l 242 972 l 42 922 l 42 849 m 719 517 l 1022 517 l 775 0 l 849 0 l 1128 583 l 719 583 l 719 517 z "},"⅑":{"ha":1089,"x_min":42,"x_max":1064,"o":"m 789 972 l 67 0 l 157 0 l 879 972 l 789 972 m 42 849 l 171 888 l 171 381 l 242 381 l 242 972 l 42 922 l 42 849 m 996 394 q 979 323 996 354 q 933 274 963 292 q 865 257 903 257 q 799 274 828 257 q 752 323 769 292 q 735 394 735 354 q 772 493 735 456 q 865 531 810 531 q 959 493 922 531 q 996 394 996 456 m 831 3 l 1026 274 q 1053 328 1043 297 q 1064 394 1064 360 q 1038 499 1064 454 q 967 569 1011 544 q 865 594 922 594 q 765 569 810 594 q 693 499 719 544 q 667 394 667 454 q 690 298 667 340 q 753 231 714 256 q 839 206 792 206 q 889 212 867 206 q 928 239 911 218 l 924 243 l 740 3 l 831 3 z "},"⅒":{"ha":1500,"x_min":42,"x_max":1458,"o":"m 789 972 l 67 0 l 157 0 l 879 972 l 789 972 m 42 849 l 171 888 l 171 381 l 242 381 l 242 972 l 42 922 l 42 849 m 678 469 l 807 508 l 807 1 l 878 1 l 878 593 l 678 543 l 678 469 m 1096 292 q 1113 413 1096 360 q 1164 495 1131 465 q 1242 525 1197 525 q 1320 495 1288 525 q 1370 413 1353 465 q 1388 292 1388 360 q 1370 171 1388 224 q 1320 88 1353 118 q 1242 58 1288 58 q 1164 88 1197 58 q 1113 171 1131 118 q 1096 292 1096 224 m 1025 292 q 1053 138 1025 206 q 1129 31 1081 69 q 1242 -8 1178 -8 q 1354 31 1306 -8 q 1431 138 1403 69 q 1458 292 1458 206 q 1431 447 1458 379 q 1354 553 1403 514 q 1242 592 1306 592 q 1129 553 1178 592 q 1053 447 1081 514 q 1025 292 1025 379 z "},"⅓":{"ha":1049,"x_min":42,"x_max":1011,"o":"m 789 972 l 67 0 l 157 0 l 879 972 l 789 972 m 42 849 l 171 888 l 171 381 l 242 381 l 242 972 l 42 922 l 42 849 m 804 288 q 903 308 861 288 q 970 362 946 328 q 994 436 994 396 q 951 544 994 497 q 833 592 908 592 q 715 549 761 592 q 668 439 668 507 l 736 439 q 765 503 736 478 q 833 528 793 528 q 900 502 878 528 q 922 435 922 476 q 908 384 922 407 q 868 347 894 361 q 804 333 842 333 l 804 288 m 829 -8 q 959 36 907 -8 q 1011 154 1011 81 q 983 248 1011 213 q 908 300 954 283 q 804 317 861 317 l 804 271 q 872 259 842 271 q 921 223 903 247 q 939 163 939 199 q 909 87 939 115 q 829 58 879 58 q 747 85 779 58 q 715 154 715 113 l 643 154 q 666 72 643 110 q 731 13 689 35 q 829 -8 774 -8 z "},"⅔":{"ha":1225,"x_min":42,"x_max":1188,"o":"m 965 972 l 243 0 l 333 0 l 1056 972 l 965 972 m 42 392 l 453 392 l 453 458 l 188 458 l 372 647 q 428 724 407 683 q 450 808 450 764 q 432 888 450 847 q 375 957 414 929 q 272 985 336 985 q 168 958 213 985 q 99 885 124 932 q 75 775 75 838 l 146 775 q 181 880 146 842 q 272 918 217 918 q 331 903 308 918 q 366 864 354 888 q 378 814 378 840 q 362 748 378 779 q 317 686 346 717 l 42 392 m 981 288 q 1080 308 1038 288 q 1147 362 1122 328 q 1171 436 1171 396 q 1128 544 1171 497 q 1010 592 1085 592 q 891 549 938 592 q 844 439 844 507 l 913 439 q 941 503 913 478 q 1010 528 969 528 q 1076 502 1054 528 q 1099 435 1099 476 q 1085 384 1099 407 q 1044 347 1071 361 q 981 333 1018 333 l 981 288 m 1006 -8 q 1135 36 1083 -8 q 1188 154 1188 81 q 1159 248 1188 213 q 1084 300 1131 283 q 981 317 1038 317 l 981 271 q 1049 259 1018 271 q 1097 223 1079 247 q 1115 163 1115 199 q 1085 87 1115 115 q 1006 58 1056 58 q 924 85 956 58 q 892 154 892 113 l 819 154 q 842 72 819 110 q 908 13 865 35 q 1006 -8 950 -8 z "},"⅕":{"ha":1033,"x_min":42,"x_max":992,"o":"m 789 972 l 67 0 l 157 0 l 879 972 l 789 972 m 42 849 l 171 888 l 171 381 l 242 381 l 242 972 l 42 922 l 42 849 m 992 189 q 969 292 992 247 q 908 361 947 336 q 818 386 868 386 q 746 372 782 386 q 681 325 710 357 l 639 269 q 715 312 683 301 q 788 322 746 322 q 881 286 844 322 q 918 189 918 250 q 884 92 918 129 q 788 56 850 56 q 700 85 740 56 q 640 153 660 115 l 581 111 q 658 25 610 61 q 788 -11 707 -11 q 890 11 844 -11 q 964 78 936 33 q 992 189 992 124 m 769 518 l 990 518 l 990 581 l 715 581 l 639 269 l 726 344 l 769 518 z "},"⅖":{"ha":1210,"x_min":42,"x_max":1168,"o":"m 965 972 l 243 0 l 333 0 l 1056 972 l 965 972 m 42 392 l 453 392 l 453 458 l 188 458 l 372 647 q 428 724 407 683 q 450 808 450 764 q 432 888 450 847 q 375 957 414 929 q 272 985 336 985 q 168 958 213 985 q 99 885 124 932 q 75 775 75 838 l 146 775 q 181 880 146 842 q 272 918 217 918 q 331 903 308 918 q 366 864 354 888 q 378 814 378 840 q 362 748 378 779 q 317 686 346 717 l 42 392 m 1168 189 q 1146 292 1168 247 q 1084 361 1124 336 q 994 386 1044 386 q 922 372 958 386 q 857 325 886 357 l 815 269 q 891 312 860 301 q 964 322 922 322 q 1058 286 1021 322 q 1094 189 1094 250 q 1060 92 1094 129 q 964 56 1026 56 q 876 85 917 56 q 817 153 836 115 l 757 111 q 835 25 786 61 q 964 -11 883 -11 q 1067 11 1021 -11 q 1140 78 1113 33 q 1168 189 1168 124 m 946 518 l 1167 518 l 1167 581 l 892 581 l 815 269 l 903 344 l 946 518 z "},"⅗":{"ha":1154,"x_min":42,"x_max":1113,"o":"m 910 972 l 188 0 l 278 0 l 1000 972 l 910 972 m 203 676 q 302 697 260 676 q 369 751 344 717 q 393 825 393 785 q 350 933 393 886 q 232 981 307 981 q 113 938 160 981 q 67 828 67 896 l 135 828 q 163 892 135 867 q 232 917 192 917 q 299 891 276 917 q 321 824 321 865 q 307 773 321 796 q 267 736 293 750 q 203 722 240 722 l 203 676 m 228 381 q 358 425 306 381 q 410 543 410 469 q 381 637 410 601 q 306 689 353 672 q 203 706 260 706 l 203 660 q 271 648 240 660 q 319 612 301 636 q 338 551 338 588 q 308 476 338 504 q 228 447 278 447 q 146 474 178 447 q 114 543 114 501 l 42 543 q 65 461 42 499 q 130 402 88 424 q 228 381 172 381 m 1113 189 q 1090 292 1113 247 q 1028 361 1068 336 q 939 386 989 386 q 867 372 903 386 q 801 325 831 357 l 760 269 q 835 312 804 301 q 908 322 867 322 q 1002 286 965 322 q 1039 189 1039 250 q 1005 92 1039 129 q 908 56 971 56 q 821 85 861 56 q 761 153 781 115 l 701 111 q 779 25 731 61 q 908 -11 828 -11 q 1011 11 965 -11 q 1085 78 1057 33 q 1113 189 1113 124 m 890 518 l 1111 518 l 1111 581 l 836 581 l 760 269 l 847 344 l 890 518 z "},"⅘":{"ha":1203,"x_min":42,"x_max":1161,"o":"m 958 972 l 236 0 l 326 0 l 1049 972 l 958 972 m 42 506 l 486 506 l 486 568 l 367 568 l 353 568 l 100 568 l 42 506 m 117 506 l 324 815 l 324 544 l 324 536 l 324 389 l 394 389 l 394 972 l 365 972 l 42 506 l 117 506 m 1161 189 q 1139 292 1161 247 q 1077 361 1117 336 q 988 386 1038 386 q 915 372 951 386 q 850 325 879 357 l 808 269 q 884 312 853 301 q 957 322 915 322 q 1051 286 1014 322 q 1088 189 1088 250 q 1053 92 1088 129 q 957 56 1019 56 q 869 85 910 56 q 810 153 829 115 l 750 111 q 828 25 779 61 q 957 -11 876 -11 q 1060 11 1014 -11 q 1133 78 1106 33 q 1161 189 1161 124 m 939 518 l 1160 518 l 1160 581 l 885 581 l 808 269 l 896 344 l 939 518 z "},"⅙":{"ha":1019,"x_min":42,"x_max":986,"o":"m 789 972 l 67 0 l 157 0 l 879 972 l 789 972 m 42 849 l 171 888 l 171 381 l 242 381 l 242 972 l 42 922 l 42 849 m 657 189 q 674 260 657 229 q 720 309 690 292 q 788 326 750 326 q 855 309 825 326 q 901 260 885 292 q 918 189 918 229 q 881 91 918 129 q 788 53 844 53 q 694 91 732 53 q 657 189 657 129 m 822 581 l 626 310 q 599 256 610 288 q 589 189 589 225 q 615 84 589 129 q 687 14 642 39 q 788 -11 732 -11 q 889 14 844 -11 q 960 84 933 39 q 986 189 986 129 q 963 285 986 243 q 900 353 939 328 q 814 378 861 378 q 764 372 786 378 q 725 344 742 365 l 729 340 l 913 581 l 822 581 z "},"⅚":{"ha":1189,"x_min":42,"x_max":1156,"o":"m 958 972 l 236 0 l 326 0 l 1049 972 l 958 972 m 453 578 q 431 681 453 636 q 369 750 408 725 q 279 775 329 775 q 207 760 243 775 q 142 714 171 746 l 100 658 q 176 701 144 690 q 249 711 207 711 q 342 675 306 711 q 379 578 379 639 q 345 481 379 518 q 249 444 311 444 q 161 474 201 444 q 101 542 121 504 l 42 500 q 119 414 71 450 q 249 378 168 378 q 351 400 306 378 q 425 467 397 422 q 453 578 453 513 m 231 907 l 451 907 l 451 969 l 176 969 l 100 658 l 188 733 l 231 907 m 826 189 q 844 260 826 229 q 890 309 861 292 q 957 326 919 326 q 1024 309 994 326 q 1071 260 1054 292 q 1088 189 1088 229 q 1051 91 1088 129 q 957 53 1014 53 q 864 91 901 53 q 826 189 826 129 m 992 581 l 796 310 q 769 256 779 288 q 758 189 758 225 q 785 84 758 129 q 856 14 811 39 q 957 -11 901 -11 q 1058 14 1014 -11 q 1129 84 1103 39 q 1156 189 1156 129 q 1132 285 1156 243 q 1069 353 1108 328 q 983 378 1031 378 q 933 372 956 378 q 894 344 911 365 l 899 340 l 1082 581 l 992 581 z "},"⅛":{"ha":1056,"x_min":42,"x_max":1014,"o":"m 789 972 l 67 0 l 157 0 l 879 972 l 789 972 m 42 849 l 171 888 l 171 381 l 242 381 l 242 972 l 42 922 l 42 849 m 671 443 q 691 365 671 399 q 748 314 711 332 q 832 296 785 296 q 917 314 881 296 q 973 365 953 332 q 993 443 993 399 q 972 518 993 485 q 915 572 951 551 q 832 592 878 592 q 750 572 786 592 q 692 518 714 551 q 671 443 671 485 m 739 435 q 765 503 739 476 q 832 529 792 529 q 899 503 872 529 q 925 435 925 476 q 913 386 925 407 q 878 353 900 365 q 832 342 857 342 q 786 353 807 342 q 752 386 765 365 q 739 435 739 407 m 650 158 q 674 76 650 114 q 739 15 697 38 q 832 -8 781 -8 q 926 15 885 -8 q 990 76 967 38 q 1014 158 1014 114 q 999 230 1014 199 q 959 282 985 261 q 901 314 933 303 q 832 325 868 325 q 763 314 796 325 q 705 282 731 303 q 665 230 679 261 q 650 158 650 199 m 718 167 q 735 224 718 199 q 777 265 751 250 q 832 279 803 279 q 887 265 861 279 q 929 224 913 250 q 946 167 946 199 q 911 83 946 113 q 832 54 876 54 q 753 83 789 54 q 718 167 718 113 z "},"⅜":{"ha":1176,"x_min":42,"x_max":1135,"o":"m 910 972 l 188 0 l 278 0 l 1000 972 l 910 972 m 203 676 q 302 697 260 676 q 369 751 344 717 q 393 825 393 785 q 350 933 393 886 q 232 981 307 981 q 113 938 160 981 q 67 828 67 896 l 135 828 q 163 892 135 867 q 232 917 192 917 q 299 891 276 917 q 321 824 321 865 q 307 773 321 796 q 267 736 293 750 q 203 722 240 722 l 203 676 m 228 381 q 358 425 306 381 q 410 543 410 469 q 381 637 410 601 q 306 689 353 672 q 203 706 260 706 l 203 660 q 271 648 240 660 q 319 612 301 636 q 338 551 338 588 q 308 476 338 504 q 228 447 278 447 q 146 474 178 447 q 114 543 114 501 l 42 543 q 65 461 42 499 q 130 402 88 424 q 228 381 172 381 m 792 443 q 812 365 792 399 q 869 314 832 332 q 953 296 906 296 q 1038 314 1001 296 q 1094 365 1074 332 q 1114 443 1114 399 q 1093 518 1114 485 q 1035 572 1072 551 q 953 592 999 592 q 871 572 907 592 q 813 518 835 551 q 792 443 792 485 m 860 435 q 886 503 860 476 q 953 529 913 529 q 1019 503 993 529 q 1046 435 1046 476 q 1033 386 1046 407 q 999 353 1021 365 q 953 342 978 342 q 907 353 928 342 q 873 386 886 365 q 860 435 860 407 m 771 158 q 794 76 771 114 q 860 15 818 38 q 953 -8 901 -8 q 1047 15 1006 -8 q 1111 76 1088 38 q 1135 158 1135 114 q 1120 230 1135 199 q 1080 282 1106 261 q 1022 314 1054 303 q 953 325 989 325 q 884 314 917 325 q 826 282 851 303 q 785 230 800 261 q 771 158 771 199 m 839 167 q 856 224 839 199 q 898 265 872 250 q 953 279 924 279 q 1008 265 982 279 q 1050 224 1033 250 q 1067 167 1067 199 q 1032 83 1067 113 q 953 54 997 54 q 874 83 910 54 q 839 167 839 113 z "},"⅝":{"ha":1225,"x_min":42,"x_max":1183,"o":"m 958 972 l 236 0 l 326 0 l 1049 972 l 958 972 m 453 578 q 431 681 453 636 q 369 750 408 725 q 279 775 329 775 q 207 760 243 775 q 142 714 171 746 l 100 658 q 176 701 144 690 q 249 711 207 711 q 342 675 306 711 q 379 578 379 639 q 345 481 379 518 q 249 444 311 444 q 161 474 201 444 q 101 542 121 504 l 42 500 q 119 414 71 450 q 249 378 168 378 q 351 400 306 378 q 425 467 397 422 q 453 578 453 513 m 231 907 l 451 907 l 451 969 l 176 969 l 100 658 l 188 733 l 231 907 m 840 443 q 860 365 840 399 q 917 314 881 332 q 1001 296 954 296 q 1086 314 1050 296 q 1142 365 1122 332 q 1163 443 1163 399 q 1142 518 1163 485 q 1084 572 1121 551 q 1001 592 1047 592 q 919 572 956 592 q 862 518 883 551 q 840 443 840 485 m 908 435 q 935 503 908 476 q 1001 529 961 529 q 1068 503 1042 529 q 1094 435 1094 476 q 1082 386 1094 407 q 1048 353 1069 365 q 1001 342 1026 342 q 956 353 976 342 q 922 386 935 365 q 908 435 908 407 m 819 158 q 843 76 819 114 q 908 15 867 38 q 1001 -8 950 -8 q 1095 15 1054 -8 q 1160 76 1136 38 q 1183 158 1183 114 q 1169 230 1183 199 q 1128 282 1154 261 q 1070 314 1103 303 q 1001 325 1038 325 q 933 314 965 325 q 874 282 900 303 q 834 230 849 261 q 819 158 819 199 m 888 167 q 904 224 888 199 q 947 265 921 250 q 1001 279 972 279 q 1056 265 1031 279 q 1099 224 1082 250 q 1115 167 1115 199 q 1081 83 1115 113 q 1001 54 1046 54 q 923 83 958 54 q 888 167 888 113 z "},"⅞":{"ha":1072,"x_min":42,"x_max":1031,"o":"m 806 972 l 83 0 l 174 0 l 896 972 l 806 972 m 42 906 l 344 906 l 97 389 l 171 389 l 450 972 l 42 972 l 42 906 m 688 443 q 708 365 688 399 q 765 314 728 332 q 849 296 801 296 q 933 314 897 296 q 990 365 969 332 q 1010 443 1010 399 q 989 518 1010 485 q 931 572 968 551 q 849 592 894 592 q 767 572 803 592 q 709 518 731 551 q 688 443 688 485 m 756 435 q 782 503 756 476 q 849 529 808 529 q 915 503 889 529 q 942 435 942 476 q 929 386 942 407 q 895 353 917 365 q 849 342 874 342 q 803 353 824 342 q 769 386 782 365 q 756 435 756 407 m 667 158 q 690 76 667 114 q 756 15 714 38 q 849 -8 797 -8 q 942 15 901 -8 q 1007 76 983 38 q 1031 158 1031 114 q 1016 230 1031 199 q 976 282 1001 261 q 917 314 950 303 q 849 325 885 325 q 780 314 813 325 q 722 282 747 303 q 681 230 696 261 q 667 158 667 199 m 735 167 q 751 224 735 199 q 794 265 768 250 q 849 279 819 279 q 903 265 878 279 q 946 224 929 250 q 963 167 963 199 q 928 83 963 113 q 849 54 893 54 q 770 83 806 54 q 735 167 735 113 z "},"_":{"ha":694,"x_min":0,"x_max":694,"o":"m 0 -185 l 694 -185 l 694 -108 l 0 -108 l 0 -185 z "},"-":{"ha":292,"x_min":7,"x_max":285,"o":"m 7 278 l 285 278 l 285 382 l 7 382 l 7 278 z "},"‐":{"ha":292,"x_min":7,"x_max":285,"o":"m 7 278 l 285 278 l 285 382 l 7 382 l 7 278 z "},"‒":{"ha":819,"x_min":97,"x_max":722,"o":"m 97 278 l 722 278 l 722 382 l 97 382 l 97 278 z "},"–":{"ha":1028,"x_min":97,"x_max":931,"o":"m 97 278 l 931 278 l 931 382 l 97 382 l 97 278 z "},"—":{"ha":1236,"x_min":97,"x_max":1139,"o":"m 97 278 l 1139 278 l 1139 382 l 97 382 l 97 278 z "},"(":{"ha":431,"x_min":125,"x_max":389,"o":"m 285 1083 q 163 754 201 928 q 125 403 125 581 q 163 53 125 226 q 285 -278 201 -121 l 389 -278 q 283 53 317 -121 q 250 403 250 226 q 283 754 250 581 q 389 1083 317 928 l 285 1083 z "},")":{"ha":431,"x_min":42,"x_max":306,"o":"m 146 -278 q 267 53 229 -121 q 306 403 306 226 q 267 754 306 581 q 146 1083 229 928 l 42 1083 q 148 754 115 928 q 181 403 181 581 q 148 53 181 226 q 42 -278 115 -121 l 146 -278 z "},"[":{"ha":417,"x_min":139,"x_max":389,"o":"m 249 979 l 389 979 l 389 1083 l 139 1083 l 139 -306 l 389 -306 l 389 -201 l 249 -201 l 249 979 z "},"]":{"ha":417,"x_min":28,"x_max":278,"o":"m 168 -201 l 28 -201 l 28 -306 l 278 -306 l 278 1083 l 28 1083 l 28 979 l 168 979 l 168 -201 z "},"{":{"ha":432,"x_min":69,"x_max":363,"o":"m 247 917 q 265 965 247 944 q 314 986 283 986 l 363 986 l 363 1083 l 279 1083 q 215 1063 249 1083 q 159 1001 182 1043 q 136 889 136 958 l 136 597 q 119 487 136 518 q 69 444 101 456 l 69 361 q 119 319 101 351 q 136 208 136 288 l 136 -83 q 159 -194 136 -151 q 215 -258 182 -237 q 279 -278 249 -278 l 363 -278 l 363 -181 l 314 -181 q 265 -159 283 -181 q 247 -111 247 -137 l 247 125 q 244 222 247 171 q 226 317 240 274 q 179 389 211 361 q 90 417 147 417 l 90 389 q 179 417 147 389 q 226 488 211 444 q 244 583 240 532 q 247 681 247 635 l 247 917 z "},"}":{"ha":432,"x_min":82,"x_max":375,"o":"m 197 -111 q 180 -159 197 -137 q 131 -181 163 -181 l 82 -181 l 82 -278 l 165 -278 q 229 -258 196 -278 q 285 -194 263 -237 q 308 -83 308 -151 l 308 208 q 326 319 308 288 q 375 361 344 351 l 375 444 q 326 487 344 456 q 308 597 308 518 l 308 889 q 285 1001 308 958 q 229 1063 263 1043 q 165 1083 196 1083 l 82 1083 l 82 986 l 131 986 q 180 965 163 986 q 197 917 197 944 l 197 681 q 201 583 197 635 q 219 488 204 532 q 265 417 233 444 q 354 389 297 389 l 354 417 q 265 389 297 417 q 219 317 233 361 q 201 222 204 274 q 197 125 197 171 l 197 -111 z "},"#":{"ha":840,"x_min":49,"x_max":792,"o":"m 104 611 l 292 611 l 311 611 l 578 611 l 597 611 l 792 611 l 792 701 l 104 701 l 104 611 m 49 278 l 736 278 l 736 368 l 558 368 l 531 368 l 253 368 l 231 368 l 49 368 l 49 278 m 632 972 l 557 664 l 551 642 l 479 342 l 472 317 l 396 0 l 500 0 l 736 972 l 632 972 m 340 972 l 104 0 l 208 0 l 285 314 l 290 339 l 365 647 l 371 669 l 444 972 l 340 972 z "},"%":{"ha":1043,"x_min":49,"x_max":994,"o":"m 49 764 q 76 652 49 703 q 153 572 103 601 q 268 542 203 542 q 384 572 335 542 q 460 652 433 601 q 488 764 488 703 q 460 876 488 826 q 384 956 433 926 q 268 986 335 986 q 153 956 203 986 q 76 876 103 926 q 49 764 49 826 m 147 764 q 162 830 147 800 q 203 878 176 860 q 268 896 231 896 q 333 878 307 896 q 374 830 360 860 q 389 764 389 800 q 374 699 389 729 q 333 650 360 668 q 268 632 307 632 q 203 650 231 632 q 162 699 176 668 q 147 764 147 729 m 556 208 q 583 97 556 147 q 660 16 610 46 q 775 -14 710 -14 q 891 16 842 -14 q 967 97 940 46 q 994 208 994 147 q 967 321 994 271 q 891 401 940 371 q 775 431 842 431 q 660 401 710 431 q 583 321 610 371 q 556 208 556 271 m 654 208 q 669 274 654 244 q 710 322 683 304 q 775 340 738 340 q 840 322 814 340 q 881 274 867 304 q 896 208 896 244 q 881 143 896 174 q 840 94 867 113 q 775 76 814 76 q 710 94 738 76 q 669 143 683 113 q 654 208 654 174 m 782 972 l 157 0 l 261 0 l 886 972 l 782 972 z "},"‰":{"ha":1571,"x_min":49,"x_max":1522,"o":"m 1083 208 q 1110 97 1083 147 q 1188 16 1138 46 q 1303 -14 1238 -14 q 1419 16 1369 -14 q 1495 97 1468 46 q 1522 208 1522 147 q 1495 321 1522 271 q 1419 401 1468 371 q 1303 431 1369 431 q 1188 401 1238 431 q 1110 321 1138 371 q 1083 208 1083 271 m 1182 208 q 1197 274 1182 244 q 1238 322 1211 304 q 1303 340 1265 340 q 1368 322 1342 340 q 1409 274 1394 304 q 1424 208 1424 244 q 1409 143 1424 174 q 1368 94 1394 113 q 1303 76 1342 76 q 1238 94 1265 76 q 1197 143 1211 113 q 1182 208 1182 174 m 49 764 q 76 652 49 703 q 153 572 103 601 q 268 542 203 542 q 384 572 335 542 q 460 652 433 601 q 488 764 488 703 q 460 876 488 826 q 384 956 433 926 q 268 986 335 986 q 153 956 203 986 q 76 876 103 926 q 49 764 49 826 m 147 764 q 162 830 147 800 q 203 878 176 860 q 268 896 231 896 q 333 878 307 896 q 374 830 360 860 q 389 764 389 800 q 374 699 389 729 q 333 650 360 668 q 268 632 307 632 q 203 650 231 632 q 162 699 176 668 q 147 764 147 729 m 556 208 q 583 97 556 147 q 660 16 610 46 q 775 -14 710 -14 q 891 16 842 -14 q 967 97 940 46 q 994 208 994 147 q 967 321 994 271 q 891 401 940 371 q 775 431 842 431 q 660 401 710 431 q 583 321 610 371 q 556 208 556 271 m 654 208 q 669 274 654 244 q 710 322 683 304 q 775 340 738 340 q 840 322 814 340 q 881 274 867 304 q 896 208 896 244 q 881 143 896 174 q 840 94 867 113 q 775 76 814 76 q 710 94 738 76 q 669 143 683 113 q 654 208 654 174 m 782 972 l 157 0 l 261 0 l 886 972 l 782 972 z "},"‱":{"ha":2099,"x_min":49,"x_max":2050,"o":"m 1611 208 q 1638 97 1611 147 q 1715 16 1665 46 q 1831 -14 1765 -14 q 1947 16 1897 -14 q 2023 97 1996 46 q 2050 208 2050 147 q 2023 321 2050 271 q 1947 401 1996 371 q 1831 431 1897 431 q 1715 401 1765 431 q 1638 321 1665 371 q 1611 208 1611 271 m 1710 208 q 1724 274 1710 244 q 1766 322 1739 304 q 1831 340 1793 340 q 1896 322 1869 340 q 1937 274 1922 304 q 1951 208 1951 244 q 1937 143 1951 174 q 1896 94 1922 113 q 1831 76 1869 76 q 1766 94 1793 76 q 1724 143 1739 113 q 1710 208 1710 174 m 1083 208 q 1110 97 1083 147 q 1188 16 1138 46 q 1303 -14 1238 -14 q 1419 16 1369 -14 q 1495 97 1468 46 q 1522 208 1522 147 q 1495 321 1522 271 q 1419 401 1468 371 q 1303 431 1369 431 q 1188 401 1238 431 q 1110 321 1138 371 q 1083 208 1083 271 m 1182 208 q 1197 274 1182 244 q 1238 322 1211 304 q 1303 340 1265 340 q 1368 322 1342 340 q 1409 274 1394 304 q 1424 208 1424 244 q 1409 143 1424 174 q 1368 94 1394 113 q 1303 76 1342 76 q 1238 94 1265 76 q 1197 143 1211 113 q 1182 208 1182 174 m 49 764 q 76 652 49 703 q 153 572 103 601 q 268 542 203 542 q 384 572 335 542 q 460 652 433 601 q 488 764 488 703 q 460 876 488 826 q 384 956 433 926 q 268 986 335 986 q 153 956 203 986 q 76 876 103 926 q 49 764 49 826 m 147 764 q 162 830 147 800 q 203 878 176 860 q 268 896 231 896 q 333 878 307 896 q 374 830 360 860 q 389 764 389 800 q 374 699 389 729 q 333 650 360 668 q 268 632 307 632 q 203 650 231 632 q 162 699 176 668 q 147 764 147 729 m 556 208 q 583 97 556 147 q 660 16 610 46 q 775 -14 710 -14 q 891 16 842 -14 q 967 97 940 46 q 994 208 994 147 q 967 321 994 271 q 891 401 940 371 q 775 431 842 431 q 660 401 710 431 q 583 321 610 371 q 556 208 556 271 m 654 208 q 669 274 654 244 q 710 322 683 304 q 775 340 738 340 q 840 322 814 340 q 881 274 867 304 q 896 208 896 244 q 881 143 896 174 q 840 94 867 113 q 775 76 814 76 q 710 94 738 76 q 669 143 683 113 q 654 208 654 174 m 782 972 l 157 0 l 261 0 l 886 972 l 782 972 z "},"'":{"ha":396,"x_min":111,"x_max":313,"o":"m 181 972 l 111 556 l 188 556 l 313 972 l 181 972 z "},"\"":{"ha":646,"x_min":111,"x_max":563,"o":"m 181 972 l 111 556 l 188 556 l 313 972 l 181 972 m 431 972 l 361 556 l 438 556 l 563 972 l 431 972 z "},"‘":{"ha":382,"x_min":97,"x_max":313,"o":"m 229 653 l 313 972 l 236 972 l 97 653 l 229 653 z "},"’":{"ha":382,"x_min":69,"x_max":285,"o":"m 153 972 l 69 653 l 146 653 l 285 972 l 153 972 z "},"“":{"ha":660,"x_min":97,"x_max":590,"o":"m 229 653 l 313 972 l 236 972 l 97 653 l 229 653 m 507 653 l 590 972 l 514 972 l 375 653 l 507 653 z "},"”":{"ha":660,"x_min":69,"x_max":563,"o":"m 153 972 l 69 653 l 146 653 l 285 972 l 153 972 m 431 972 l 347 653 l 424 653 l 563 972 l 431 972 z "},"‚":{"ha":382,"x_min":83,"x_max":299,"o":"m 167 111 l 83 -208 l 160 -208 l 299 111 l 167 111 z "},"„":{"ha":660,"x_min":69,"x_max":563,"o":"m 153 111 l 69 -208 l 146 -208 l 285 111 l 153 111 m 431 111 l 347 -208 l 424 -208 l 563 111 l 431 111 z "},"‹":{"ha":486,"x_min":56,"x_max":389,"o":"m 181 360 l 389 618 l 319 681 l 56 354 l 319 28 l 389 90 l 181 360 z "},"›":{"ha":486,"x_min":97,"x_max":431,"o":"m 306 349 l 97 90 l 167 28 l 431 354 l 167 681 l 97 618 l 306 349 z "},"«":{"ha":708,"x_min":56,"x_max":611,"o":"m 403 360 l 611 618 l 542 681 l 278 354 l 542 28 l 611 90 l 403 360 m 181 360 l 389 618 l 319 681 l 56 354 l 319 28 l 389 90 l 181 360 z "},"»":{"ha":708,"x_min":97,"x_max":653,"o":"m 306 349 l 97 90 l 167 28 l 431 354 l 167 681 l 97 618 l 306 349 m 528 349 l 319 90 l 389 28 l 653 354 l 389 681 l 319 618 l 528 349 z "},"*":{"ha":822,"x_min":139,"x_max":683,"o":"m 654 832 l 400 735 l 422 668 l 683 739 l 654 832 m 610 511 l 439 722 l 383 681 l 531 454 l 610 511 m 292 454 l 439 681 l 383 722 l 213 511 l 292 454 m 139 739 l 400 668 l 422 735 l 168 832 l 139 739 m 363 972 l 376 701 l 446 701 l 460 972 l 363 972 z "},"†":{"ha":792,"x_min":125,"x_max":667,"o":"m 125 750 l 125 646 l 667 646 l 667 750 l 125 750 m 340 972 l 340 -208 l 451 -208 l 451 972 l 340 972 z "},"‡":{"ha":792,"x_min":125,"x_max":667,"o":"m 125 167 l 125 63 l 667 63 l 667 167 l 125 167 m 125 750 l 125 646 l 667 646 l 667 750 l 125 750 m 340 972 l 340 -208 l 451 -208 l 451 972 l 340 972 z "},".":{"ha":417,"x_min":132,"x_max":285,"o":"m 132 56 q 155 2 132 25 q 208 -21 178 -21 q 263 2 240 -21 q 285 56 285 25 q 263 110 285 88 q 208 132 240 132 q 155 110 178 132 q 132 56 132 88 z "},",":{"ha":428,"x_min":83,"x_max":317,"o":"m 206 153 l 83 -207 l 164 -236 l 317 111 l 206 153 z "},":":{"ha":417,"x_min":132,"x_max":285,"o":"m 132 56 q 155 2 132 25 q 208 -21 178 -21 q 263 2 240 -21 q 285 56 285 25 q 263 110 285 88 q 208 132 240 132 q 155 110 178 132 q 132 56 132 88 m 132 583 q 155 530 132 553 q 208 507 178 507 q 263 530 240 507 q 285 583 285 553 q 263 638 285 615 q 208 660 240 660 q 155 638 178 660 q 132 583 132 615 z "},";":{"ha":458,"x_min":83,"x_max":326,"o":"m 174 583 q 197 530 174 553 q 250 507 219 507 q 304 530 282 507 q 326 583 326 553 q 304 638 326 615 q 250 660 282 660 q 197 638 219 660 q 174 583 174 615 m 206 153 l 83 -207 l 164 -236 l 317 111 l 206 153 z "},"…":{"ha":1250,"x_min":132,"x_max":1118,"o":"m 132 56 q 155 2 132 25 q 208 -21 178 -21 q 263 2 240 -21 q 285 56 285 25 q 263 110 285 88 q 208 132 240 132 q 155 110 178 132 q 132 56 132 88 m 549 56 q 572 2 549 25 q 625 -21 594 -21 q 679 2 657 -21 q 701 56 701 25 q 679 110 701 88 q 625 132 657 132 q 572 110 594 132 q 549 56 549 88 m 965 56 q 988 2 965 25 q 1042 -21 1011 -21 q 1096 2 1074 -21 q 1118 56 1118 25 q 1096 110 1118 88 q 1042 132 1074 132 q 988 110 1011 132 q 965 56 965 88 z "},"!":{"ha":417,"x_min":132,"x_max":285,"o":"m 139 972 l 167 278 l 250 278 l 278 972 l 139 972 m 132 56 q 155 2 132 25 q 208 -21 178 -21 q 263 2 240 -21 q 285 56 285 25 q 263 110 285 88 q 208 132 240 132 q 155 110 178 132 q 132 56 132 88 z "},"¡":{"ha":417,"x_min":132,"x_max":285,"o":"m 278 -340 l 250 354 l 167 354 l 139 -340 l 278 -340 m 285 576 q 263 631 285 608 q 208 653 240 653 q 155 631 178 653 q 132 576 132 608 q 155 523 132 546 q 208 500 178 500 q 263 523 240 500 q 285 576 285 546 z "},"?":{"ha":774,"x_min":83,"x_max":690,"o":"m 578 694 q 546 592 578 642 q 454 511 514 543 q 311 479 394 479 l 275 479 l 303 236 l 386 236 l 396 403 q 540 447 474 407 q 649 551 607 486 q 690 694 690 615 q 667 810 690 757 q 603 902 644 863 q 508 964 563 942 q 388 986 453 986 q 249 966 306 986 q 154 909 193 946 q 83 824 115 872 l 174 767 q 255 851 206 819 q 374 882 304 882 q 482 860 436 882 q 553 796 528 838 q 578 694 578 754 m 271 56 q 294 2 271 25 q 347 -21 317 -21 q 401 2 379 -21 q 424 56 424 25 q 401 110 424 88 q 347 132 379 132 q 294 110 317 132 q 271 56 271 88 z "},"¿":{"ha":774,"x_min":83,"x_max":690,"o":"m 196 278 q 228 380 196 331 q 319 461 260 429 q 463 493 379 493 l 499 493 l 471 736 l 388 736 l 378 569 q 234 526 301 565 q 125 422 167 486 q 83 278 83 358 q 106 163 83 215 q 170 70 129 110 q 266 8 211 31 q 386 -14 321 -14 q 525 6 469 -14 q 619 63 581 26 q 690 149 658 100 l 600 206 q 519 122 568 154 q 400 90 469 90 q 292 113 338 90 q 221 176 246 135 q 196 278 196 218 m 503 917 q 481 971 503 949 q 426 993 458 993 q 373 971 396 993 q 350 917 350 949 q 373 863 350 886 q 426 840 396 840 q 481 863 458 840 q 503 917 503 886 z "},"/":{"ha":715,"x_min":21,"x_max":694,"o":"m 583 972 l 21 -208 l 132 -208 l 694 972 l 583 972 z "},"\\":{"ha":715,"x_min":21,"x_max":694,"o":"m 21 972 l 576 0 l 694 0 l 139 972 l 21 972 z "},"⁄":{"ha":979,"x_min":83,"x_max":896,"o":"m 806 972 l 83 0 l 174 0 l 896 972 l 806 972 z "},"|":{"ha":381,"x_min":139,"x_max":242,"o":"m 139 1090 l 139 -299 l 242 -299 l 242 1090 l 139 1090 z "},"¦":{"ha":381,"x_min":139,"x_max":242,"o":"m 139 965 l 139 632 l 242 632 l 242 965 l 139 965 m 242 340 l 139 340 l 139 7 l 242 7 l 242 340 z "},"@":{"ha":1069,"x_min":49,"x_max":1021,"o":"m 369 444 q 392 548 369 504 q 451 615 415 592 q 525 639 488 639 q 587 624 560 639 q 630 581 614 608 q 646 514 646 553 q 619 398 646 440 q 556 338 593 356 q 483 319 518 319 q 398 353 426 319 q 369 444 369 386 m 264 440 q 291 323 264 372 q 362 248 318 274 q 456 222 406 222 q 576 255 522 222 q 663 353 631 288 q 696 514 696 418 q 678 620 696 569 q 622 703 660 671 q 525 736 585 736 q 406 702 467 736 q 305 603 346 668 q 264 440 264 538 m 49 444 q 101 203 49 307 q 256 43 154 100 q 507 -14 358 -14 q 699 9 626 -14 q 835 69 772 32 l 786 149 q 649 91 718 106 q 507 76 581 76 q 316 122 397 76 q 190 249 235 167 q 146 444 146 332 q 176 622 146 540 q 263 765 207 704 q 399 861 319 826 q 576 896 479 896 q 729 867 664 896 q 838 788 794 838 q 902 674 881 738 q 924 542 924 611 q 898 401 924 454 q 840 324 872 347 q 786 300 807 300 q 752 309 764 300 q 736 333 740 318 q 732 364 732 347 q 733 383 732 372 q 735 401 733 394 l 792 722 l 688 722 l 638 375 l 647 375 q 654 292 640 329 q 699 231 668 254 q 772 208 731 208 q 854 226 811 208 q 935 283 897 244 q 997 386 974 322 q 1021 542 1021 450 q 993 704 1021 625 q 910 847 965 783 q 771 949 854 911 q 576 986 688 986 q 363 944 460 986 q 196 829 267 903 q 87 657 125 756 q 49 444 49 558 z "}}}
